{
copyright = "Copyright (c) 2022 by Thanos Poulakidas. All rights reserved.";
designer = "Thanos Poulakidas";
familyName = Geom;
customParameters = (
{
name = glyphOrder;
value = (
.notdef,
uni0000,
uni000D,
space,
quotedbl,
numbersign,
dollar,
percent,
ampersand,
quotesingle,
parenleft,
parenright,
asterisk,
plus,
comma,
hyphen,
period,
slash,
zero,
one,
two,
three,
four,
five,
six,
seven,
eight,
nine,
colon,
semicolon,
less,
equal,
greater,
question,
at,
A,
B,
C,
D,
E,
F,
G,
H,
I,
J,
K,
L,
M,
N,
O,
P,
Q,
R,
S,
T,
U,
V,
W,
X,
Y,
Z,
bracketleft,
backslash,
bracketright,
asciicircum,
underscore,
grave,
a,
b,
c,
d,
e,
f,
g,
h,
i,
j,
k,
l,
m,
n,
o,
p,
q,
r,
s,
t,
u,
v,
w,
x,
y,
z,
braceleft,
bar,
braceright,
asciitilde,
Euro,
quotesinglbase,
florin,
quotedblbase,
ellipsis,
dagger,
daggerdbl,
circumflex,
perthousand,
guilsinglleft,
quoteleft,
quoteright,
quotedblleft,
quotedblright,
bullet,
endash,
emdash,
tilde,
trademark,
guilsinglright,
exclamdown,
cent,
sterling,
currency,
yen,
brokenbar,
section,
dieresis,
copyright,
ordfeminine,
guillemotleft,
logicalnot,
registered,
degree,
plusminus,
acute,
paragraph,
cedilla,
ordmasculine,
guillemotright,
onequarter,
onehalf,
threequarters,
questiondown,
germandbls,
divide,
oslash,
fraction,
fi,
fl,
breve,
dotaccent,
ring,
hungarumlaut,
ogonek,
caron,
dotlessi,
greaterequal,
radical,
notequal,
product,
summation,
lessequal,
uni02C9,
lozenge,
minus,
uni2215,
approxequal,
integral,
uni2113,
partialdiff,
uni2206,
infinity,
uni2126,
uni2219,
estimated,
exclam,
Alpha,
Epsilon,
Eta,
Iota,
Kappa,
Mu,
Nu,
Omicron,
Chi,
Tau,
Rho,
Upsilon,
uni0394,
uni03A9,
Lambda,
Beta,
Zeta,
Pi,
Xi,
Sigma,
Psi,
omicron,
kappa,
nu,
tonos,
Alphatonos,
Epsilontonos,
Etatonos,
Iotatonos,
Omicrontonos,
Upsilontonos,
Gamma,
Theta,
Iotadieresis,
Upsilondieresis,
dieresistonos,
alpha,
rho,
iota,
eta,
gamma,
upsilon,
beta,
pi,
uni03BC,
tau,
Phi,
chi,
sigma,
theta,
lambda,
psi,
epsilon,
delta,
alphatonos,
etatonos,
iotatonos,
omicrontonos,
upsilontonos,

glyphs = (
{
glyphname = .notdef;
layers = (
{
hints = (
{
horizontal = 1;
place = "{0, 57}";
type = Stem;
},
{
horizontal = 1;
place = "{663, 57}";
type = Stem;
},
{
place = "{-8, 70}";
type = Stem;
},
{
place = "{452, 69}";
type = Stem;
}
);
layerId = "E376C904-BF5F-4CD7-8FD3-9BC68FA291DD";
paths = (
{
closed = 1;
nodes = (
"-8 0 LINE",
"521 0 LINE",
"521 720 LINE",
"-8 720 LINE"
);
},
{
closed = 1;
nodes = (
"257 421 LINE",
"94 663 LINE",
"419 663 LINE"
);
},
{
closed = 1;
nodes = (
"62 595 LINE",
"217 360 LINE",
"62 127 LINE"
);
},
{
closed = 1;
nodes = (
"296 360 LINE",
"452 594 LINE",
"452 127 LINE"
);
},
{
closed = 1;
nodes = (
"94 57 LINE",
"257 301 LINE",
"419 57 LINE"
);
}
);
width = 515;
}
);
},
{
glyphname = quotedbl;
layers = (
{
hints = (
{
place = "{34, 452}";
type = Stem;
},
{
horizontal = 1;
place = "{358, 343}";
type = Stem;
},
{
horizontal = 1;
place = "{701, -20}";
target = down;
type = TopGhost;
}
);
layerId = "E376C904-BF5F-4CD7-8FD3-9BC68FA291DD";
paths = (
{
closed = 1;
nodes = (
"126 358 LINE",
"240 690 LINE",
"242 701 LINE",
"57 701 LINE",
"34 358 LINE"
);
},
{
closed = 1;
nodes = (
"277 358 LINE",
"370 358 LINE",
"484 690 LINE",
"486 701 LINE",
"301 701 LINE"
);
}
);
width = 519;
}
);
unicode = 0022;
},
{
glyphname = numbersign;
layers = (
{
hints = (
{
horizontal = 1;
place = "{0, 21}";
target = up;
type = BottomGhost;
},
{
horizontal = 1;
place = "{145, 146}";
type = Stem;
},
{
horizontal = 1;
place = "{414, 147}";
type = Stem;
},
{
horizontal = 1;
place = "{701, -20}";
target = down;
type = TopGhost;
},
{
place = "{39, 633}";
type = Stem;
}
);
layerId = "E376C904-BF5F-4CD7-8FD3-9BC68FA291DD";
paths = (
{
closed = 1;
nodes = (
"97 0 LINE",
"230 0 LINE",
"254 145 LINE",
"387 145 LINE",
"363 0 LINE",
"496 0 LINE",
"520 145 LINE",
"639 145 LINE",
"639 291 LINE",
"545 291 LINE",
"565 414 LINE",
"672 414 LINE",
"672 561 LINE",
"591 561 LINE",
"613 701 LINE",
"480 701 LINE",
"458 561 LINE",
"325 561 LINE",
"348 701 LINE",
"215 701 LINE",
"192 561 LINE",
"72 561 LINE",
"72 414 LINE",
"167 414 LINE",
"147 291 LINE",
"39 291 LINE",
"39 145 LINE",
"122 145 LINE"
);
},
{
closed = 1;
nodes = (
"436 418 LINE",
"414 288 LINE",
"275 288 LINE",
"298 418 LINE"
);
}
);
width = 710;
}
);
unicode = 0023;
},
{
glyphname = dollar;
layers = (
{
hints = (
{
place = "{80, 160}";
type = Stem;
},
{
place = "{309, 98}";
type = Stem;
},
{
place = "{314, 90}";
type = Stem;
},
{
place = "{479, 158}";
type = Stem;
},
{
horizontal = 1;
place = "{1, 131}";
type = Stem;
},
{
horizontal = 1;
place = "{-1, 21}";
target = up;
type = BottomGhost;
},
{
horizontal = 1;
place = "{1, 21}";
target = up;
type = BottomGhost;
},
{
horizontal = 1;
place = "{569, 192}";
type = Stem;
},
{
horizontal = 1;
place = "{700, -20}";
target = down;
type = TopGhost;
},
{
horizontal = 1;
place = "{703, -20}";
target = down;
type = TopGhost;
}
);
layerId = "E376C904-BF5F-4CD7-8FD3-9BC68FA291DD";
paths = (
{
closed = 1;
nodes = (
"309 -98 LINE",
"407 -98 LINE",
"407 -1 LINE",
"544 12 OFFCURVE",
"637 89 OFFCURVE",
"637 209 CURVE SMOOTH",
"637 326 OFFCURVE",
"560 384 OFFCURVE",
"404 423 CURVE",
"404 569 LINE",
"449 561 OFFCURVE",
"487 542 OFFCURVE",
"518 505 CURVE",
"607 603 LINE",
"562 654 OFFCURVE",
"492 691 OFFCURVE",
"409 700 CURVE",
"409 761 LINE",
"311 761 LINE",
"311 703 LINE",
"166 692 OFFCURVE",
"80 610 OFFCURVE",
"80 496 CURVE SMOOTH",
"80 375 OFFCURVE",
"161 320 OFFCURVE",
"314 280 CURVE",
"314 132 LINE",
"255 137 OFFCURVE",
"196 173 OFFCURVE",
"156 220 CURVE",
"56 112 LINE",
"127 41 OFFCURVE",
"220 1 OFFCURVE",
"309 1 CURVE"
);
},
{
closed = 1;
nodes = (
"240 541 OFFCURVE",
"262 565 OFFCURVE",
"315 569 CURVE",
"315 441 LINE",
"259 458 OFFCURVE",
"240 481 OFFCURVE",
"240 510 CURVE SMOOTH"
);
},
{
closed = 1;
nodes = (
"479 164 OFFCURVE",
"456 140 OFFCURVE",
"404 133 CURVE",
"404 264 LINE",
"463 245 OFFCURVE",
"479 223 OFFCURVE",
"479 196 CURVE SMOOTH"
);
}
);
width = 689;
}
);
unicode = 0024;
},
{
glyphname = percent;
layers = (
{
hints = (
{
place = "{28, 113}";
type = Stem;
},
{
place = "{271, 113}";
type = Stem;
},
{
place = "{488, 113}";
type = Stem;
},
{
place = "{731, 113}";
type = Stem;
},
{
horizontal = 1;
place = "{-10, 102}";
type = Stem;
},
{
horizontal = 1;
place = "{-1, 21}";
target = up;
type = BottomGhost;
},
{
horizontal = 1;
place = "{262, 102}";
type = Stem;
},
{
horizontal = 1;
place = "{338, 101}";
type = Stem;
},
{
horizontal = 1;
place = "{611, 101}";
type = Stem;
},
{
horizontal = 1;
place = "{704, -20}";
target = down;
type = TopGhost;
}
);
layerId = "E376C904-BF5F-4CD7-8FD3-9BC68FA291DD";
paths = (
{
closed = 1;
nodes = (
"384 628 OFFCURVE",
"313 712 OFFCURVE",
"206 712 CURVE SMOOTH",
"99 712 OFFCURVE",
"28 628 OFFCURVE",
"28 526 CURVE SMOOTH",
"28 422 OFFCURVE",
"99 338 OFFCURVE",
"205 338 CURVE SMOOTH",
"312 338 OFFCURVE",
"384 423 OFFCURVE",
"384 527 CURVE SMOOTH"
);
},
{
closed = 1;
nodes = (
"762 702 LINE",
"639 704 LINE",
"108 -1 LINE",
"232 -3 LINE"
);
},
{
closed = 1;
nodes = (
"271 477 OFFCURVE",
"246 439 OFFCURVE",
"206 439 CURVE SMOOTH",
"169 439 OFFCURVE",
"141 477 OFFCURVE",
"141 526 CURVE SMOOTH",
"141 575 OFFCURVE",
"166 611 OFFCURVE",
"205 611 CURVE SMOOTH",
"244 611 OFFCURVE",
"271 574 OFFCURVE",
"271 525 CURVE SMOOTH"
);
},
{
closed = 1;
nodes = (
"844 282 OFFCURVE",
"773 364 OFFCURVE",
"666 364 CURVE SMOOTH",
"559 364 OFFCURVE",
"488 280 OFFCURVE",
"488 177 CURVE SMOOTH",
"488 76 OFFCURVE",
"559 -10 OFFCURVE",
"665 -10 CURVE SMOOTH",
"772 -10 OFFCURVE",
"844 77 OFFCURVE",
"844 178 CURVE SMOOTH"
);
},
{
closed = 1;
nodes = (
"731 129 OFFCURVE",
"705 92 OFFCURVE",
"666 92 CURVE SMOOTH",
"629 92 OFFCURVE",
"601 129 OFFCURVE",
"601 178 CURVE SMOOTH",
"601 227 OFFCURVE",
"625 262 OFFCURVE",
"665 262 CURVE SMOOTH",
"704 262 OFFCURVE",
"731 228 OFFCURVE",
"731 177 CURVE SMOOTH"
);
}
);
width = 873;
}
);
unicode = 0025;
},
{
glyphname = ampersand;
layers = (
{
hints = (
{
place = "{32, 176}";
type = Stem;
},
{
place = "{129, 150}";
type = Stem;
},
{
place = "{401, 142}";
type = Stem;
},
{
horizontal = 1;
place = "{-12, 131}";
type = Stem;
},
{
horizontal = 1;
place = "{-5, 21}";
target = up;
type = BottomGhost;
},
{
horizontal = 1;
place = "{597, 122}";
type = Stem;
}
);
layerId = "E376C904-BF5F-4CD7-8FD3-9BC68FA291DD";
paths = (
{
closed = 1;
nodes = (
"562 383 LINE",
"541 340 OFFCURVE",
"518 301 OFFCURVE",
"493 265 CURVE",
"403 361 LINE",
"487 400 OFFCURVE",
"543 457 OFFCURVE",
"543 542 CURVE SMOOTH",
"543 643 OFFCURVE",
"465 719 OFFCURVE",
"341 719 CURVE SMOOTH",
"211 719 OFFCURVE",
"129 634 OFFCURVE",
"129 534 CURVE SMOOTH",
"129 486 OFFCURVE",
"146 439 OFFCURVE",
"179 391 CURVE",
"80 348 OFFCURVE",
"32 283 OFFCURVE",
"32 192 CURVE SMOOTH",
"32 64 OFFCURVE",
"137 -12 OFFCURVE",
"277 -12 CURVE SMOOTH",
"360 -12 OFFCURVE",
"427 16 OFFCURVE",
"487 64 CURVE",
"552 -5 LINE",
"713 30 LINE",
"586 171 LINE",
"621 218 OFFCURVE",
"656 286 OFFCURVE",
"687 342 CURVE"
);
},
{
closed = 1;
nodes = (
"376 597 OFFCURVE",
"401 573 OFFCURVE",
"401 536 CURVE SMOOTH",
"401 497 OFFCURVE",
"373 466 OFFCURVE",
"320 441 CURVE",
"293 474 OFFCURVE",
"279 500 OFFCURVE",
"279 529 CURVE SMOOTH",
"279 570 OFFCURVE",
"305 597 OFFCURVE",
"341 597 CURVE SMOOTH"
);
},
{
closed = 1;
nodes = (
"396 159 LINE",
"367 135 OFFCURVE",
"335 119 OFFCURVE",
"300 119 CURVE SMOOTH",
"247 119 OFFCURVE",
"208 153 OFFCURVE",
"208 199 CURVE SMOOTH",
"208 238 OFFCURVE",
"228 267 OFFCURVE",
"271 290 CURVE"
);
}
);
width = 721;
}
);
unicode = 0026;
},
{
glyphname = quotesingle;
layers = (
{
hints = (
{
horizontal = 1;
place = "{701, -20}";
target = down;
type = TopGhost;
},
{
place = "{34, 211}";
type = Stem;
}
);
layerId = "E376C904-BF5F-4CD7-8FD3-9BC68FA291DD";
paths = (
{
closed = 1;
nodes = (
"34 358 LINE",
"129 358 LINE",
"243 690 LINE",
"245 701 LINE",
"56 701 LINE"
);
}
);
width = 278;
}
);
unicode = 0027;
},
{
glyphname = parenleft;
layers = (
{
hints = (
{
horizontal = 1;
place = "{711, -20}";
target = down;
type = TopGhost;
},
{
place = "{61, 169}";
type = Stem;
}
);
layerId = "E376C904-BF5F-4CD7-8FD3-9BC68FA291DD";
paths = (
{
closed = 1;
nodes = (
"230 422 OFFCURVE",
"287 517 OFFCURVE",
"415 612 CURVE",
"329 711 LINE",
"167 613 OFFCURVE",
"61 486 OFFCURVE",
"61 287 CURVE SMOOTH",
"61 86 OFFCURVE",
"160 -42 OFFCURVE",
"326 -136 CURVE",
"415 -38 LINE",
"287 57 OFFCURVE",
"230 151 OFFCURVE",
"230 287 CURVE SMOOTH"
);
}
);
width = 455;
}
);
unicode = 0028;
},
{
glyphname = parenright;
layers = (
{
hints = (
{
horizontal = 1;
place = "{711, -20}";
target = down;
type = TopGhost;
},
{
place = "{225, 169}";
type = Stem;
}
);
layerId = "E376C904-BF5F-4CD7-8FD3-9BC68FA291DD";
paths = (
{
closed = 1;
nodes = (
"225 152 OFFCURVE",
"169 57 OFFCURVE",
"40 -38 CURVE",
"129 -136 LINE",
"298 -41 OFFCURVE",
"394 87 OFFCURVE",
"394 287 CURVE SMOOTH",
"394 484 OFFCURVE",
"296 613 OFFCURVE",
"126 711 CURVE",
"39 612 LINE",
"170 517 OFFCURVE",
"225 422 OFFCURVE",
"225 287 CURVE SMOOTH"
);
}
);
width = 456;
}
);
unicode = 0029;
},
{
glyphname = asterisk;
layers = (
{
hints = (
{
horizontal = 1;
place = "{713, -20}";
target = down;
type = TopGhost;
},
{
place = "{177, 78}";
type = Stem;
}
);
layerId = "E376C904-BF5F-4CD7-8FD3-9BC68FA291DD";
paths = (
{
closed = 1;
nodes = (
"153 563 LINE",
"31 521 LINE",
"54 448 LINE",
"177 490 LINE",
"177 357 LINE",
"255 357 LINE",
"255 488 LINE",
"375 448 LINE",
"399 521 LINE",
"280 561 LINE",
"353 668 LINE",
"290 713 LINE",
"215 609 LINE",
"141 713 LINE",
"77 668 LINE"
);
}
);
width = 429;
}
);
unicode = 002A;
},
{
glyphname = plus;
layers = (
{
hints = (
{
horizontal = 1;
place = "{275, 152}";
type = Stem;
},
{
place = "{217, 158}";
type = Stem;
}
);
layerId = "E376C904-BF5F-4CD7-8FD3-9BC68FA291DD";
paths = (
{
closed = 1;
nodes = (
"375 605 LINE",
"217 605 LINE",
"217 427 LINE",
"42 427 LINE",
"42 275 LINE",
"217 275 LINE",
"217 97 LINE",
"375 97 LINE",
"375 275 LINE",
"551 275 LINE",
"551 427 LINE",
"375 427 LINE"
);
}
);
width = 592;
}
);
unicode = 002B;
},
{
glyphname = comma;
layers = (
{
hints = (
{
horizontal = 1;
place = "{-160, 344}";
type = Stem;
},
{
place = "{-1, 218}";
type = Stem;
}
);
layerId = "E376C904-BF5F-4CD7-8FD3-9BC68FA291DD";
paths = (
{
closed = 1;
nodes = (
"217 184 LINE",
"58 184 LINE",
"-1 -160 LINE",
"119 -160 LINE"
);
}
);
width = 248;
}
);
unicode = 002C;
},
{
glyphname = hyphen;
layers = (
{
hints = (
{
horizontal = 1;
place = "{230, 152}";
type = Stem;
},
{
place = "{32, 318}";
type = Stem;
}
);
layerId = "E376C904-BF5F-4CD7-8FD3-9BC68FA291DD";
paths = (
{
closed = 1;
nodes = (
"350 382 LINE",
"32 382 LINE",
"32 230 LINE",
"350 230 LINE"
);
}
);
width = 383;
}
);
unicode = 002D;
},
{
glyphname = period;
layers = (
{
hints = (
{
place = "{52, 207}";
type = Stem;
},
{
horizontal = 1;
place = "{-13, 203}";
type = Stem;
},
{
horizontal = 1;
place = "{-13, 21}";
target = up;
type = BottomGhost;
}
);
layerId = "E376C904-BF5F-4CD7-8FD3-9BC68FA291DD";
paths = (
{
closed = 1;
nodes = (
"52 24 OFFCURVE",
"98 -13 OFFCURVE",
"155 -13 CURVE SMOOTH",
"214 -13 OFFCURVE",
"259 24 OFFCURVE",
"259 89 CURVE SMOOTH",
"259 154 OFFCURVE",
"214 190 OFFCURVE",
"155 190 CURVE SMOOTH",
"98 190 OFFCURVE",
"52 154 OFFCURVE",
"52 89 CURVE SMOOTH"
);
}
);
width = 289;
}
);
unicode = 002E;
},
{
glyphname = slash;
layers = (
{
hints = (
{
horizontal = 1;
place = "{-122, 918}";
type = Stem;
},
{
place = "{21, 580}";
type = Stem;
}
);
layerId = "E376C904-BF5F-4CD7-8FD3-9BC68FA291DD";
paths = (
{
closed = 1;
nodes = (
"601 793 LINE",
"461 796 LINE",
"21 -120 LINE",
"160 -122 LINE"
);
}
);
width = 602;
}
);
unicode = 002F;
},
{
glyphname = zero;
layers = (
{
hints = (
{
horizontal = 1;
place = "{-14, 156}";
type = Stem;
},
{
horizontal = 1;
place = "{559, 156}";
type = Stem;
},
{
place = "{33, 177}";
type = Stem;
},
{
place = "{485, 177}";
type = Stem;
}
);
layerId = "E376C904-BF5F-4CD7-8FD3-9BC68FA291DD";
paths = (
{
closed = 1;
nodes = (
"153 715 OFFCURVE",
"33 552 OFFCURVE",
"33 351 CURVE SMOOTH",
"33 148 OFFCURVE",
"151 -14 OFFCURVE",
"346 -14 CURVE SMOOTH",
"543 -14 OFFCURVE",
"662 152 OFFCURVE",
"662 352 CURVE SMOOTH",
"662 554 OFFCURVE",
"543 715 OFFCURVE",
"348 715 CURVE SMOOTH"
);
},
{
closed = 1;
nodes = (
"430 559 OFFCURVE",
"485 472 OFFCURVE",
"485 350 CURVE SMOOTH",
"485 230 OFFCURVE",
"433 142 OFFCURVE",
"348 142 CURVE SMOOTH",
"265 142 OFFCURVE",
"210 229 OFFCURVE",
"210 353 CURVE SMOOTH",
"210 473 OFFCURVE",
"263 559 OFFCURVE",
"346 559 CURVE SMOOTH"
);
}
);
width = 695;
}
);
unicode = 0030;
},
{
glyphname = one;
layers = (
{
hints = (
{
horizontal = 1;
place = "{0, 21}";
target = up;
type = BottomGhost;
},
{
horizontal = 1;
place = "{542, 164}";
type = Stem;
},
{
place = "{233, 173}";
type = Stem;
}
);
layerId = "E376C904-BF5F-4CD7-8FD3-9BC68FA291DD";
paths = (
{
closed = 1;
nodes = (
"406 706 LINE",
"86 706 LINE",
"86 542 LINE",
"233 542 LINE",
"233 0 LINE",
"406 0 LINE"
);
}
);
width = 582;
}
);
unicode = 0031;
},
{
glyphname = two;
layers = (
{
hints = (
{
horizontal = 1;
place = "{0, 144}";
type = Stem;
},
{
horizontal = 1;
place = "{560, 153}";
type = Stem;
},
{
place = "{399, 178}";
type = Stem;
}
);
layerId = "E376C904-BF5F-4CD7-8FD3-9BC68FA291DD";
paths = (
{
closed = 1;
nodes = (
"174 713 OFFCURVE",
"54 627 OFFCURVE",
"49 463 CURVE",
"212 463 LINE",
"215 529 OFFCURVE",
"261 560 OFFCURVE",
"314 560 CURVE SMOOTH",
"368 560 OFFCURVE",
"399 527 OFFCURVE",
"399 483 CURVE SMOOTH",
"399 444 OFFCURVE",
"376 393 OFFCURVE",
"319 325 CURVE SMOOTH",
"44 0 LINE",
"585 0 LINE",
"585 144 LINE",
"376 144 LINE",
"455 246 LINE SMOOTH",
"535 350 OFFCURVE",
"577 414 OFFCURVE",
"577 496 CURVE SMOOTH",
"577 624 OFFCURVE",
"474 713 OFFCURVE",
"318 713 CURVE SMOOTH"
);
}
);
width = 638;
}
);
unicode = 0032;
},
{
glyphname = three;
layers = (
{
hints = (
{
place = "{421, 172}";
type = Stem;
},
{
horizontal = 1;
place = "{-14, 151}";
type = Stem;
},
{
horizontal = 1;
place = "{560, 143}";
type = Stem;
},
{
horizontal = 1;
place = "{575, 128}";
type = Stem;
}
);
layerId = "E376C904-BF5F-4CD7-8FD3-9BC68FA291DD";
paths = (
{
closed = 1;
nodes = (
"576 575 LINE",
"576 703 LINE",
"86 703 LINE",
"86 560 LINE",
"360 560 LINE",
"191 401 LINE",
"216 309 LINE",
"232 312 OFFCURVE",
"281 310 OFFCURVE",
"296 310 CURVE SMOOTH",
"374 310 OFFCURVE",
"421 282 OFFCURVE",
"421 224 CURVE SMOOTH",
"421 173 OFFCURVE",
"379 137 OFFCURVE",
"316 137 CURVE SMOOTH",
"259 137 OFFCURVE",
"206 165 OFFCURVE",
"163 217 CURVE",
"39 118 LINE",
"102 38 OFFCURVE",
"200 -14 OFFCURVE",
"325 -14 CURVE SMOOTH",
"485 -14 OFFCURVE",
"593 81 OFFCURVE",
"593 222 CURVE SMOOTH",
"593 344 OFFCURVE",
"509 403 OFFCURVE",
"405 422 CURVE"
);
}
);
width = 652;
}
);
unicode = 0033;
},
{
glyphname = four;
layers = (
{
hints = (
{
horizontal = 1;
place = "{0, 21}";
target = up;
type = BottomGhost;
},
{
horizontal = 1;
place = "{139, 133}";
type = Stem;
},
{
horizontal = 1;
place = "{706, -20}";
target = down;
type = TopGhost;
},
{
place = "{400, 171}";
type = Stem;
}
);
layerId = "E376C904-BF5F-4CD7-8FD3-9BC68FA291DD";
paths = (
{
closed = 1;
nodes = (
"386 706 LINE",
"26 267 LINE",
"55 139 LINE",
"400 139 LINE",
"400 0 LINE",
"571 0 LINE",
"571 139 LINE",
"661 139 LINE",
"661 272 LINE",
"571 272 LINE",
"571 706 LINE"
);
},
{
closed = 1;
nodes = (
"400 272 LINE",
"212 272 LINE",
"400 507 LINE"
);
}
);
width = 684;
}
);
unicode = 0034;
},
{
glyphname = five;
layers = (
{
hints = (
{
horizontal = 1;
place = "{-14, 150}";
type = Stem;
},
{
horizontal = 1;
place = "{325, 132}";
type = Stem;
},
{
horizontal = 1;
place = "{555, 146}";
type = Stem;
},
{
place = "{108, 145}";
type = Stem;
},
{
place = "{429, 172}";
type = Stem;
}
);
layerId = "E376C904-BF5F-4CD7-8FD3-9BC68FA291DD";
paths = (
{
closed = 1;
nodes = (
"204 293 LINE",
"237 312 OFFCURVE",
"272 325 OFFCURVE",
"313 325 CURVE SMOOTH",
"381 325 OFFCURVE",
"429 290 OFFCURVE",
"429 232 CURVE SMOOTH",
"429 175 OFFCURVE",
"386 136 OFFCURVE",
"315 136 CURVE SMOOTH",
"254 136 OFFCURVE",
"201 164 OFFCURVE",
"145 212 CURVE",
"44 95 LINE",
"116 28 OFFCURVE",
"197 -14 OFFCURVE",
"318 -14 CURVE SMOOTH",
"485 -14 OFFCURVE",
"601 81 OFFCURVE",
"601 235 CURVE SMOOTH",
"601 383 OFFCURVE",
"487 457 OFFCURVE",
"360 457 CURVE SMOOTH",
"316 457 OFFCURVE",
"282 447 OFFCURVE",
"249 432 CURVE",
"258 555 LINE",
"570 555 LINE",
"571 701 LINE",
"119 701 LINE",
"97 351 LINE"
);
}
);
width = 653;
}
);
unicode = 0035;
},
{
glyphname = six;
layers = (
{
hints = (
{
horizontal = 1;
place = "{-14, 138}";
type = Stem;
},
{
horizontal = 1;
place = "{326, 127}";
type = Stem;
},
{
horizontal = 1;
place = "{706, -20}";
target = down;
type = TopGhost;
},
{
place = "{31, 178}";
type = Stem;
},
{
place = "{425, 172}";
type = Stem;
}
);
layerId = "E376C904-BF5F-4CD7-8FD3-9BC68FA291DD";
paths = (
{
closed = 1;
nodes = (
"291 706 LINE",
"156 504 LINE SMOOTH",
"60 360 OFFCURVE",
"31 297 OFFCURVE",
"31 222 CURVE SMOOTH",
"31 83 OFFCURVE",
"145 -14 OFFCURVE",
"321 -14 CURVE SMOOTH",
"478 -14 OFFCURVE",
"597 82 OFFCURVE",
"597 236 CURVE SMOOTH",
"597 375 OFFCURVE",
"514 453 OFFCURVE",
"392 453 CURVE SMOOTH",
"328 453 OFFCURVE",
"303 438 OFFCURVE",
"266 412 CURVE",
"476 706 LINE"
);
},
{
closed = 1;
nodes = (
"209 281 OFFCURVE",
"248 326 OFFCURVE",
"316 326 CURVE SMOOTH",
"383 326 OFFCURVE",
"425 284 OFFCURVE",
"425 226 CURVE SMOOTH",
"425 168 OFFCURVE",
"384 124 OFFCURVE",
"318 124 CURVE SMOOTH",
"252 124 OFFCURVE",
"209 170 OFFCURVE",
"209 227 CURVE SMOOTH"
);
}
);
width = 624;
}
);
unicode = 0036;
},
{
glyphname = seven;
layers = (
{
hints = (
{
horizontal = 1;
place = "{0, 21}";
target = up;
type = BottomGhost;
},
{
horizontal = 1;
place = "{553, 148}";
type = Stem;
},
{
place = "{50, 529}";
type = Stem;
}
);
layerId = "E376C904-BF5F-4CD7-8FD3-9BC68FA291DD";
paths = (
{
closed = 1;
nodes = (
"579 567 LINE",
"579 701 LINE",
"50 701 LINE",
"50 553 LINE",
"385 553 LINE",
"71 0 LINE",
"265 0 LINE"
);
}
);
width = 628;
}
);
unicode = 0037;
},
{
glyphname = eight;
layers = (
{
hints = (
{
place = "{32, 171}";
type = Stem;
},
{
place = "{57, 162}";
type = Stem;
},
{
place = "{408, 163}";
type = Stem;
},
{
place = "{425, 170}";
type = Stem;
},
{
horizontal = 1;
place = "{-12, 133}";
type = Stem;
},
{
horizontal = 1;
place = "{297, 117}";
type = Stem;
},
{
horizontal = 1;
place = "{580, 133}";
type = Stem;
}
);
layerId = "E376C904-BF5F-4CD7-8FD3-9BC68FA291DD";
paths = (
{
closed = 1;
nodes = (
"571 630 OFFCURVE",
"463 713 OFFCURVE",
"314 713 CURVE SMOOTH",
"162 713 OFFCURVE",
"57 630 OFFCURVE",
"57 519 CURVE SMOOTH",
"57 443 OFFCURVE",
"98 395 OFFCURVE",
"155 364 CURVE",
"78 332 OFFCURVE",
"32 274 OFFCURVE",
"32 194 CURVE SMOOTH",
"32 73 OFFCURVE",
"150 -12 OFFCURVE",
"314 -12 CURVE SMOOTH",
"477 -12 OFFCURVE",
"595 71 OFFCURVE",
"595 195 CURVE SMOOTH",
"595 272 OFFCURVE",
"547 331 OFFCURVE",
"472 364 CURVE",
"529 396 OFFCURVE",
"571 442 OFFCURVE",
"571 518 CURVE SMOOTH"
);
},
{
closed = 1;
nodes = (
"219 545 OFFCURVE",
"256 580 OFFCURVE",
"314 580 CURVE SMOOTH",
"371 580 OFFCURVE",
"408 543 OFFCURVE",
"408 499 CURVE SMOOTH",
"408 454 OFFCURVE",
"370 414 OFFCURVE",
"314 414 CURVE SMOOTH",
"258 414 OFFCURVE",
"219 455 OFFCURVE",
"219 499 CURVE SMOOTH"
);
},
{
closed = 1;
nodes = (
"203 262 OFFCURVE",
"248 297 OFFCURVE",
"314 297 CURVE SMOOTH",
"378 297 OFFCURVE",
"425 262 OFFCURVE",
"425 211 CURVE SMOOTH",
"425 164 OFFCURVE",
"383 121 OFFCURVE",
"314 121 CURVE SMOOTH",
"242 121 OFFCURVE",
"203 164 OFFCURVE",
"203 211 CURVE SMOOTH"
);
}
);
width = 626;
}
);
unicode = 0038;
},
{
glyphname = nine;
layers = (
{
hints = (
{
horizontal = 1;
place = "{0, 21}";
target = up;
type = BottomGhost;
},
{
horizontal = 1;
place = "{252, 128}";
type = Stem;
},
{
horizontal = 1;
place = "{582, 138}";
type = Stem;
},
{
place = "{30, 172}";
type = Stem;
},
{
place = "{418, 177}";
type = Stem;
}
);
layerId = "E376C904-BF5F-4CD7-8FD3-9BC68FA291DD";
paths = (
{
closed = 1;
nodes = (
"336 0 LINE",
"512 272 LINE SMOOTH",
"574 369 OFFCURVE",
"595 427 OFFCURVE",
"595 483 CURVE SMOOTH",
"595 622 OFFCURVE",
"484 720 OFFCURVE",
"302 720 CURVE SMOOTH",
"151 720 OFFCURVE",
"30 624 OFFCURVE",
"30 472 CURVE SMOOTH",
"30 334 OFFCURVE",
"113 252 OFFCURVE",
"235 252 CURVE SMOOTH",
"292 252 OFFCURVE",
"323 267 OFFCURVE",
"360 294 CURVE",
"151 0 LINE"
);
},
{
closed = 1;
nodes = (
"418 425 OFFCURVE",
"377 380 OFFCURVE",
"310 380 CURVE SMOOTH",
"243 380 OFFCURVE",
"202 425 OFFCURVE",
"202 482 CURVE SMOOTH",
"202 538 OFFCURVE",
"242 582 OFFCURVE",
"308 582 CURVE SMOOTH",
"375 582 OFFCURVE",
"418 537 OFFCURVE",
"418 481 CURVE SMOOTH"
);
}
);
width = 630;
}
);
unicode = 0039;
},
{
glyphname = colon;
layers = (
{
hints = (
{
place = "{52, 208}";
type = Stem;
},
{
horizontal = 1;
place = "{-13, 203}";
type = Stem;
},
{
horizontal = 1;
place = "{-13, 21}";
target = up;
type = BottomGhost;
},
{
horizontal = 1;
place = "{339, 203}";
type = Stem;
},
{
horizontal = 1;
place = "{542, -20}";
target = down;
type = TopGhost;
}
);
layerId = "E376C904-BF5F-4CD7-8FD3-9BC68FA291DD";
paths = (
{
closed = 1;
nodes = (
"52 376 OFFCURVE",
"97 339 OFFCURVE",
"156 339 CURVE SMOOTH",
"215 339 OFFCURVE",
"260 376 OFFCURVE",
"260 441 CURVE SMOOTH",
"260 506 OFFCURVE",
"215 542 OFFCURVE",
"156 542 CURVE SMOOTH",
"97 542 OFFCURVE",
"52 506 OFFCURVE",
"52 441 CURVE SMOOTH"
);
},
{
closed = 1;
nodes = (
"52 24 OFFCURVE",
"97 -13 OFFCURVE",
"156 -13 CURVE SMOOTH",
"215 -13 OFFCURVE",
"260 24 OFFCURVE",
"260 89 CURVE SMOOTH",
"260 156 OFFCURVE",
"215 190 OFFCURVE",
"156 190 CURVE SMOOTH",
"97 190 OFFCURVE",
"52 156 OFFCURVE",
"52 89 CURVE SMOOTH"
);
}
);
width = 291;
}
);
unicode = 003A;
},
{
glyphname = semicolon;
layers = (
{
hints = (
{
place = "{24, 208}";
type = Stem;
},
{
horizontal = 1;
place = "{339, 203}";
type = Stem;
},
{
horizontal = 1;
place = "{542, -20}";
target = down;
type = TopGhost;
}
);
layerId = "E376C904-BF5F-4CD7-8FD3-9BC68FA291DD";
paths = (
{
closed = 1;
nodes = (
"24 376 OFFCURVE",
"69 339 OFFCURVE",
"128 339 CURVE SMOOTH",
"187 339 OFFCURVE",
"232 376 OFFCURVE",
"232 441 CURVE SMOOTH",
"232 506 OFFCURVE",
"187 542 OFFCURVE",
"128 542 CURVE SMOOTH",
"69 542 OFFCURVE",
"24 506 OFFCURVE",
"24 441 CURVE SMOOTH"
);
},
{
closed = 1;
nodes = (
"218 184 LINE",
"59 184 LINE",
"0 -160 LINE",
"120 -160 LINE"
);
}
);
width = 259;
}
);
unicode = 003B;
},
{
glyphname = less;
layers = (
{
hints = (
{
horizontal = 1;
place = "{67, 566}";
type = Stem;
},
{
place = "{59, 494}";
type = Stem;
}
);
layerId = "E376C904-BF5F-4CD7-8FD3-9BC68FA291DD";
paths = (
{
closed = 1;
nodes = (
"553 633 LINE",
"59 430 LINE",
"59 270 LINE",
"553 67 LINE",
"553 229 LINE",
"216 351 LINE",
"553 472 LINE"
);
}
);
width = 611;
}
);
unicode = 003C;
},
{
glyphname = equal;
layers = (
{
hints = (
{
horizontal = 1;
place = "{144, 152}";
type = Stem;
},
{
horizontal = 1;
place = "{409, 152}";
type = Stem;
},
{
place = "{42, 488}";
type = Stem;
}
);
layerId = "E376C904-BF5F-4CD7-8FD3-9BC68FA291DD";
paths = (
{
closed = 1;
nodes = (
"42 561 LINE",
"42 409 LINE",
"530 409 LINE",
"530 561 LINE"
);
},
{
closed = 1;
nodes = (
"42 296 LINE",
"42 144 LINE",
"530 144 LINE",
"530 296 LINE"
);
}
);
width = 572;
}
);
unicode = 003D;
},
{
glyphname = greater;
layers = (
{
hints = (
{
horizontal = 1;
place = "{68, 565}";
type = Stem;
},
{
place = "{59, 494}";
type = Stem;
}
);
layerId = "E376C904-BF5F-4CD7-8FD3-9BC68FA291DD";
paths = (
{
closed = 1;
nodes = (
"59 471 LINE",
"396 350 LINE",
"59 228 LINE",
"59 68 LINE",
"553 270 LINE",
"553 430 LINE",
"59 633 LINE"
);
}
);
width = 611;
}
);
unicode = 003E;
},
{
glyphname = question;
layers = (
{
hints = (
{
place = "{150, 200}";
type = Stem;
},
{
place = "{164, 158}";
type = Stem;
},
{
place = "{308, 172}";
type = Stem;
},
{
horizontal = 1;
place = "{-12, 180}";
type = Stem;
},
{
horizontal = 1;
place = "{563, 147}";
type = Stem;
}
);
layerId = "E376C904-BF5F-4CD7-8FD3-9BC68FA291DD";
paths = (
{
closed = 1;
nodes = (
"267 563 OFFCURVE",
"308 542 OFFCURVE",
"308 502 CURVE SMOOTH",
"308 470 OFFCURVE",
"280 442 OFFCURVE",
"252 419 CURVE SMOOTH",
"208 383 OFFCURVE",
"164 342 OFFCURVE",
"164 260 CURVE SMOOTH",
"164 213 LINE",
"322 213 LINE",
"322 245 LINE SMOOTH",
"322 287 OFFCURVE",
"335 303 OFFCURVE",
"371 333 CURVE SMOOTH",
"435 384 OFFCURVE",
"480 424 OFFCURVE",
"480 514 CURVE SMOOTH",
"480 639 OFFCURVE",
"375 710 OFFCURVE",
"254 710 CURVE SMOOTH",
"173 710 OFFCURVE",
"98 682 OFFCURVE",
"50 619 CURVE",
"50 471 LINE",
"90 514 OFFCURVE",
"156 563 OFFCURVE",
"223 563 CURVE SMOOTH"
);
},
{
closed = 1;
nodes = (
"150 19 OFFCURVE",
"194 -12 OFFCURVE",
"250 -12 CURVE SMOOTH",
"305 -12 OFFCURVE",
"350 19 OFFCURVE",
"350 78 CURVE SMOOTH",
"350 137 OFFCURVE",
"305 168 OFFCURVE",
"250 168 CURVE SMOOTH",
"194 168 OFFCURVE",
"150 137 OFFCURVE",
"150 78 CURVE SMOOTH"
);
}
);
width = 519;
}
);
unicode = 003F;
},
{
glyphname = at;
layers = (
{
hints = (
{
place = "{55, 52}";
type = Stem;
},
{
place = "{233, 147}";
type = Stem;
},
{
place = "{562, 132}";
type = Stem;
},
{
place = "{866, 51}";
type = Stem;
},
{
horizontal = 1;
place = "{-151, 49}";
type = Stem;
},
{
horizontal = 1;
place = "{66, 62}";
type = Stem;
},
{
horizontal = 1;
place = "{68, 123}";
type = Stem;
},
{
horizontal = 1;
place = "{397, 124}";
type = Stem;
},
{
horizontal = 1;
place = "{668, 47}";
type = Stem;
}
);
layerId = "E376C904-BF5F-4CD7-8FD3-9BC68FA291DD";
paths = (
{
closed = 1;
nodes = (
"742 -42 LINE",
"666 -86 OFFCURVE",
"593 -102 OFFCURVE",
"498 -102 CURVE SMOOTH",
"262 -102 OFFCURVE",
"107 62 OFFCURVE",
"107 281 CURVE SMOOTH",
"107 499 OFFCURVE",
"264 668 OFFCURVE",
"493 668 CURVE SMOOTH",
"715 668 OFFCURVE",
"866 519 OFFCURVE",
"866 329 CURVE SMOOTH",
"866 198 OFFCURVE",
"820 128 OFFCURVE",
"756 128 CURVE SMOOTH",
"700 128 OFFCURVE",
"694 186 OFFCURVE",
"694 206 CURVE SMOOTH",
"694 213 OFFCURVE",
"694 220 OFFCURVE",
"695 227 CURVE",
"740 487 LINE",
"599 508 LINE",
"587 446 LINE",
"560 487 OFFCURVE",
"520 521 OFFCURVE",
"453 521 CURVE SMOOTH",
"336 521 OFFCURVE",
"233 406 OFFCURVE",
"233 266 CURVE SMOOTH",
"233 146 OFFCURVE",
"312 68 OFFCURVE",
"415 68 CURVE SMOOTH",
"479 68 OFFCURVE",
"525 99 OFFCURVE",
"562 143 CURVE",
"586 99 OFFCURVE",
"629 66 OFFCURVE",
"709 66 CURVE SMOOTH",
"818 66 OFFCURVE",
"917 153 OFFCURVE",
"917 330 CURVE SMOOTH",
"917 541 OFFCURVE",
"736 715 OFFCURVE",
"493 715 CURVE SMOOTH",
"244 715 OFFCURVE",
"55 519 OFFCURVE",
"55 281 CURVE SMOOTH",
"55 41 OFFCURVE",
"241 -151 OFFCURVE",
"496 -151 CURVE SMOOTH",
"600 -151 OFFCURVE",
"686 -122 OFFCURVE",
"763 -74 CURVE"
);
},
{
closed = 1;
nodes = (
"530 397 OFFCURVE",
"562 365 OFFCURVE",
"562 314 CURVE SMOOTH",
"562 247 OFFCURVE",
"517 191 OFFCURVE",
"458 191 CURVE SMOOTH",
"411 191 OFFCURVE",
"380 222 OFFCURVE",
"380 277 CURVE SMOOTH",
"380 344 OFFCURVE",
"426 397 OFFCURVE",
"483 397 CURVE SMOOTH"
);
}
);
width = 963;
}
);
unicode = 0040;
},
{
glyphname = A;
layers = (
{
hints = (
{
horizontal = 1;
place = "{0, 21}";
target = up;
type = BottomGhost;
},
{
horizontal = 1;
place = "{137, 138}";
type = Stem;
},
{
horizontal = 1;
place = "{705, -20}";
target = down;
type = TopGhost;
},
{
place = "{17, 767}";
type = Stem;
}
);
layerId = "E376C904-BF5F-4CD7-8FD3-9BC68FA291DD";
paths = (
{
closed = 1;
nodes = (
"539 137 LINE",
"595 0 LINE",
"784 0 LINE",
"484 705 LINE",
"317 705 LINE",
"17 0 LINE",
"202 0 LINE",
"258 137 LINE"
);
},
{
closed = 1;
nodes = (
"399 497 LINE",
"487 275 LINE",
"311 275 LINE"
);
}
);
width = 809;
}
);
unicode = 0041;
},
{
glyphname = B;
layers = (
{
hints = (
{
place = "{68, 171}";
type = Stem;
},
{
place = "{462, 176}";
type = Stem;
},
{
place = "{499, 175}";
type = Stem;
},
{
horizontal = 1;
place = "{0, 142}";
type = Stem;
},
{
horizontal = 1;
place = "{291, 126}";
type = Stem;
},
{
horizontal = 1;
place = "{559, 142}";
type = Stem;
}
);
layerId = "E376C904-BF5F-4CD7-8FD3-9BC68FA291DD";
paths = (
{
closed = 1;
nodes = (
"68 0 LINE",
"405 0 LINE SMOOTH",
"579 0 OFFCURVE",
"674 78 OFFCURVE",
"674 195 CURVE SMOOTH",
"674 287 OFFCURVE",
"622 342 OFFCURVE",
"531 366 CURVE",
"595 393 OFFCURVE",
"638 444 OFFCURVE",
"638 525 CURVE SMOOTH",
"638 639 OFFCURVE",
"540 701 OFFCURVE",
"399 701 CURVE SMOOTH",
"68 701 LINE"
);
},
{
closed = 1;
nodes = (
"239 559 LINE",
"364 559 LINE SMOOTH",
"428 559 OFFCURVE",
"462 534 OFFCURVE",
"462 489 CURVE SMOOTH",
"462 444 OFFCURVE",
"428 417 OFFCURVE",
"361 417 CURVE SMOOTH",
"239 417 LINE"
);
},
{
closed = 1;
nodes = (
"239 291 LINE",
"383 291 LINE SMOOTH",
"462 291 OFFCURVE",
"499 263 OFFCURVE",
"499 218 CURVE SMOOTH",
"499 170 OFFCURVE",
"459 142 OFFCURVE",
"390 142 CURVE SMOOTH",
"239 142 LINE"
);
}
);
width = 714;
}
);
unicode = 0042;
},
{
glyphname = C;
layers = (
{
hints = (
{
horizontal = 1;
place = "{-14, 160}";
type = Stem;
},
{
horizontal = 1;
place = "{555, 160}";
type = Stem;
},
{
place = "{36, 182}";
type = Stem;
}
);
layerId = "E376C904-BF5F-4CD7-8FD3-9BC68FA291DD";
paths = (
{
closed = 1;
nodes = (
"623 236 LINE",
"561 180 OFFCURVE",
"497 146 OFFCURVE",
"419 146 CURVE SMOOTH",
"292 146 OFFCURVE",
"218 237 OFFCURVE",
"218 352 CURVE SMOOTH",
"218 464 OFFCURVE",
"293 555 OFFCURVE",
"419 555 CURVE SMOOTH",
"503 555 OFFCURVE",
"570 519 OFFCURVE",
"617 470 CURVE",
"617 651 LINE",
"561 690 OFFCURVE",
"493 715 OFFCURVE",
"405 715 CURVE SMOOTH",
"193 715 OFFCURVE",
"36 555 OFFCURVE",
"36 350 CURVE SMOOTH",
"36 141 OFFCURVE",
"197 -14 OFFCURVE",
"397 -14 CURVE SMOOTH",
"488 -14 OFFCURVE",
"558 11 OFFCURVE",
"623 58 CURVE"
);
}
);
width = 651;
}
);
unicode = 0043;
},
{
glyphname = D;
layers = (
{
hints = (
{
horizontal = 1;
place = "{0, 156}";
type = Stem;
},
{
horizontal = 1;
place = "{545, 156}";
type = Stem;
},
{
place = "{68, 175}";
type = Stem;
},
{
place = "{540, 181}";
type = Stem;
}
);
layerId = "E376C904-BF5F-4CD7-8FD3-9BC68FA291DD";
paths = (
{
closed = 1;
nodes = (
"68 0 LINE",
"326 0 LINE SMOOTH",
"574 0 OFFCURVE",
"721 152 OFFCURVE",
"721 354 CURVE SMOOTH",
"721 558 OFFCURVE",
"575 701 OFFCURVE",
"329 701 CURVE SMOOTH",
"68 701 LINE"
);
},
{
closed = 1;
nodes = (
"243 545 LINE",
"339 545 LINE SMOOTH",
"462 545 OFFCURVE",
"540 466 OFFCURVE",
"540 351 CURVE SMOOTH",
"540 230 OFFCURVE",
"461 156 OFFCURVE",
"331 156 CURVE SMOOTH",
"243 156 LINE"
);
}
);
width = 758;
}
);
unicode = 0044;
},
{
glyphname = E;
layers = (
{
hints = (
{
horizontal = 1;
place = "{0, 150}";
type = Stem;
},
{
horizontal = 1;
place = "{284, 140}";
type = Stem;
},
{
horizontal = 1;
place = "{551, 150}";
type = Stem;
},
{
place = "{68, 174}";
type = Stem;
}
);
layerId = "E376C904-BF5F-4CD7-8FD3-9BC68FA291DD";
paths = (
{
closed = 1;
nodes = (
"242 284 LINE",
"579 284 LINE",
"579 424 LINE",
"242 424 LINE",
"242 551 LINE",
"613 551 LINE",
"613 701 LINE",
"68 701 LINE",
"68 0 LINE",
"619 0 LINE",
"619 150 LINE",
"242 150 LINE"
);
}
);
width = 659;
}
);
unicode = 0045;
},
{
glyphname = F;
layers = (
{
hints = (
{
horizontal = 1;
place = "{0, 21}";
target = up;
type = BottomGhost;
},
{
horizontal = 1;
place = "{261, 146}";
type = Stem;
},
{
horizontal = 1;
place = "{547, 154}";
type = Stem;
},
{
place = "{68, 175}";
type = Stem;
}
);
layerId = "E376C904-BF5F-4CD7-8FD3-9BC68FA291DD";
paths = (
{
closed = 1;
nodes = (
"243 261 LINE",
"576 261 LINE",
"576 407 LINE",
"243 407 LINE",
"243 547 LINE",
"610 547 LINE",
"610 701 LINE",
"68 701 LINE",
"68 0 LINE",
"243 0 LINE"
);
}
);
width = 663;
}
);
unicode = 0046;
},
{
glyphname = G;
layers = (
{
hints = (
{
place = "{36, 180}";
type = Stem;
},
{
place = "{412, 199}";
type = Stem;
},
{
place = "{562, 167}";
type = Stem;
},
{
horizontal = 1;
place = "{-14, 152}";
type = Stem;
},
{
horizontal = 1;
place = "{276, 131}";
type = Stem;
},
{
horizontal = 1;
place = "{558, 157}";
type = Stem;
}
);
layerId = "E376C904-BF5F-4CD7-8FD3-9BC68FA291DD";
paths = (
{
closed = 1;
nodes = (
"562 276 LINE",
"562 180 OFFCURVE",
"478 138 OFFCURVE",
"408 138 CURVE SMOOTH",
"301 138 OFFCURVE",
"216 226 OFFCURVE",
"216 350 CURVE SMOOTH",
"216 465 OFFCURVE",
"305 558 OFFCURVE",
"424 558 CURVE SMOOTH",
"495 558 OFFCURVE",
"560 532 OFFCURVE",
"611 488 CURVE",
"611 675 LINE",
"558 700 OFFCURVE",
"485 715 OFFCURVE",
"414 715 CURVE SMOOTH",
"200 715 OFFCURVE",
"36 555 OFFCURVE",
"36 350 CURVE SMOOTH",
"36 140 OFFCURVE",
"198 -14 OFFCURVE",
"399 -14 CURVE SMOOTH",
"568 -14 OFFCURVE",
"729 83 OFFCURVE",
"729 370 CURVE SMOOTH",
"729 407 LINE",
"412 407 LINE",
"412 276 LINE"
);
}
);
width = 783;
}
);
unicode = 0047;
},
{
glyphname = H;
layers = (
{
hints = (
{
horizontal = 1;
place = "{0, 21}";
target = up;
type = BottomGhost;
},
{
horizontal = 1;
place = "{275, 156}";
type = Stem;
},
{
horizontal = 1;
place = "{701, -20}";
target = down;
type = TopGhost;
},
{
place = "{68, 175}";
type = Stem;
},
{
place = "{514, 176}";
type = Stem;
}
);
layerId = "E376C904-BF5F-4CD7-8FD3-9BC68FA291DD";
paths = (
{
closed = 1;
nodes = (
"68 0 LINE",
"243 0 LINE",
"243 275 LINE",
"514 275 LINE",
"514 0 LINE",
"690 0 LINE",
"690 701 LINE",
"514 701 LINE",
"514 431 LINE",
"243 431 LINE",
"243 701 LINE",
"68 701 LINE"
);
}
);
width = 757;
}
);
unicode = 0048;
},
{
glyphname = I;
layers = (
{
hints = (
{
horizontal = 1;
place = "{0, 21}";
target = up;
type = BottomGhost;
},
{
horizontal = 1;
place = "{701, -20}";
target = down;
type = TopGhost;
},
{
place = "{68, 176}";
type = Stem;
}
);
layerId = "E376C904-BF5F-4CD7-8FD3-9BC68FA291DD";
paths = (
{
closed = 1;
nodes = (
"244 701 LINE",
"68 701 LINE",
"68 0 LINE",
"244 0 LINE"
);
}
);
width = 311;
}
);
unicode = 0049;
},
{
glyphname = J;
layers = (
{
hints = (
{
horizontal = 1;
place = "{-12, 155}";
type = Stem;
},
{
horizontal = 1;
place = "{701, -20}";
target = down;
type = TopGhost;
},
{
place = "{224, 175}";
type = Stem;
}
);
layerId = "E376C904-BF5F-4CD7-8FD3-9BC68FA291DD";
paths = (
{
closed = 1;
nodes = (
"-2 38 LINE",
"23 21 OFFCURVE",
"48 7 OFFCURVE",
"75 -1 CURVE",
"90 -6 OFFCURVE",
"102 -8 OFFCURVE",
"115 -9 CURVE",
"122 -10 OFFCURVE",
"129 -11 OFFCURVE",
"136 -11 CURVE",
"137 -12 OFFCURVE",
"139 -12 OFFCURVE",
"140 -12 CURVE",
"153 -12 LINE SMOOTH",
"297 -12 OFFCURVE",
"385 72 OFFCURVE",
"398 215 CURVE",
"398 228 OFFCURVE",
"399 241 OFFCURVE",
"399 256 CURVE SMOOTH",
"399 701 LINE",
"224 701 LINE",
"224 249 LINE SMOOTH",
"224 177 OFFCURVE",
"185 143 OFFCURVE",
"133 143 CURVE SMOOTH",
"110 143 OFFCURVE",
"90 149 OFFCURVE",
"71 158 CURVE SMOOTH",
"44 171 OFFCURVE",
"21 192 OFFCURVE",
"-2 213 CURVE"
);
}
);
width = 461;
}
);
unicode = 004A;
},
{
glyphname = K;
layers = (
{
hints = (
{
horizontal = 1;
place = "{0, 21}";
target = up;
type = BottomGhost;
},
{
horizontal = 1;
place = "{701, -20}";
target = down;
type = TopGhost;
},
{
place = "{68, 175}";
type = Stem;
}
);
layerId = "E376C904-BF5F-4CD7-8FD3-9BC68FA291DD";
paths = (
{
closed = 1;
nodes = (
"243 701 LINE",
"68 701 LINE",
"68 0 LINE",
"243 0 LINE",
"243 362 LINE",
"498 0 LINE",
"710 0 LINE",
"427 395 LINE",
"698 701 LINE",
"489 701 LINE",
"243 415 LINE"
);
}
);
width = 709;
}
);
unicode = 004B;
},
{
glyphname = L;
layers = (
{
hints = (
{
horizontal = 1;
place = "{0, 154}";
type = Stem;
},
{
horizontal = 1;
place = "{701, -20}";
target = down;
type = TopGhost;
},
{
place = "{68, 175}";
type = Stem;
}
);
layerId = "E376C904-BF5F-4CD7-8FD3-9BC68FA291DD";
paths = (
{
closed = 1;
nodes = (
"243 701 LINE",
"68 701 LINE",
"68 0 LINE",
"583 0 LINE",
"583 154 LINE",
"243 154 LINE"
);
}
);
width = 610;
}
);
unicode = 004C;
},
{
glyphname = M;
layers = (
{
hints = (
{
horizontal = 1;
place = "{0, 21}";
target = up;
type = BottomGhost;
},
{
horizontal = 1;
place = "{700, -20}";
target = down;
type = TopGhost;
},
{
place = "{52, 172}";
type = Stem;
},
{
place = "{616, 175}";
type = Stem;
}
);
layerId = "E376C904-BF5F-4CD7-8FD3-9BC68FA291DD";
paths = (
{
closed = 1;
nodes = (
"420 132 LINE",
"616 429 LINE",
"616 0 LINE",
"791 0 LINE",
"791 700 LINE",
"606 700 LINE",
"421 404 LINE",
"236 700 LINE",
"52 700 LINE",
"52 0 LINE",
"224 0 LINE",
"224 428 LINE"
);
}
);
width = 844;
}
);
unicode = 004D;
},
{
glyphname = N;
layers = (
{
hints = (
{
horizontal = 1;
place = "{0, 21}";
target = up;
type = BottomGhost;
},
{
horizontal = 1;
place = "{700, -20}";
target = down;
type = TopGhost;
},
{
horizontal = 1;
place = "{701, -20}";
target = down;
type = TopGhost;
},
{
place = "{68, 173}";
type = Stem;
},
{
place = "{542, 174}";
type = Stem;
}
);
layerId = "E376C904-BF5F-4CD7-8FD3-9BC68FA291DD";
paths = (
{
closed = 1;
nodes = (
"233 700 LINE",
"68 700 LINE",
"68 0 LINE",
"241 0 LINE",
"241 416 LINE",
"560 0 LINE",
"716 0 LINE",
"716 701 LINE",
"542 701 LINE",
"542 296 LINE"
);
}
);
width = 784;
}
);
unicode = 004E;
},
{
glyphname = O;
layers = (
{
hints = (
{
horizontal = 1;
place = "{-14, 159}";
type = Stem;
},
{
horizontal = 1;
place = "{556, 159}";
type = Stem;
},
{
place = "{36, 181}";
type = Stem;
},
{
place = "{606, 181}";
type = Stem;
}
);
layerId = "E376C904-BF5F-4CD7-8FD3-9BC68FA291DD";
paths = (
{
closed = 1;
nodes = (
"787 552 OFFCURVE",
"627 715 OFFCURVE",
"412 715 CURVE SMOOTH",
"197 715 OFFCURVE",
"36 553 OFFCURVE",
"36 350 CURVE SMOOTH",
"36 149 OFFCURVE",
"196 -14 OFFCURVE",
"411 -14 CURVE SMOOTH",
"625 -14 OFFCURVE",
"787 151 OFFCURVE",
"787 352 CURVE SMOOTH"
);
},
{
closed = 1;
nodes = (
"606 239 OFFCURVE",
"528 145 OFFCURVE",
"412 145 CURVE SMOOTH",
"296 145 OFFCURVE",
"217 241 OFFCURVE",
"217 352 CURVE SMOOTH",
"217 464 OFFCURVE",
"295 556 OFFCURVE",
"411 556 CURVE SMOOTH",
"527 556 OFFCURVE",
"606 461 OFFCURVE",
"606 350 CURVE SMOOTH"
);
}
);
width = 823;
}
);
unicode = 004F;
},
{
glyphname = P;
layers = (
{
hints = (
{
horizontal = 1;
place = "{0, 21}";
target = up;
type = BottomGhost;
},
{
horizontal = 1;
place = "{213, 140}";
type = Stem;
},
{
horizontal = 1;
place = "{552, 149}";
type = Stem;
},
{
place = "{68, 176}";
type = Stem;
},
{
place = "{464, 176}";
type = Stem;
}
);
layerId = "E376C904-BF5F-4CD7-8FD3-9BC68FA291DD";
paths = (
{
closed = 1;
nodes = (
"68 0 LINE",
"244 0 LINE",
"244 213 LINE",
"346 213 LINE SMOOTH",
"515 213 OFFCURVE",
"640 301 OFFCURVE",
"640 461 CURVE SMOOTH",
"640 613 OFFCURVE",
"528 701 OFFCURVE",
"355 701 CURVE SMOOTH",
"68 701 LINE"
);
},
{
closed = 1;
nodes = (
"244 552 LINE",
"342 552 LINE SMOOTH",
"419 552 OFFCURVE",
"464 518 OFFCURVE",
"464 453 CURVE SMOOTH",
"464 392 OFFCURVE",
"418 353 OFFCURVE",
"342 353 CURVE SMOOTH",
"244 353 LINE"
);
}
);
width = 671;
}
);
unicode = 0050;
},
{
glyphname = Q;
layers = (
{
hints = (
{
horizontal = 1;
place = "{-14, 159}";
type = Stem;
},
{
horizontal = 1;
place = "{556, 159}";
type = Stem;
},
{
place = "{36, 181}";
type = Stem;
},
{
place = "{606, 181}";
type = Stem;
}
);
layerId = "E376C904-BF5F-4CD7-8FD3-9BC68FA291DD";
paths = (
{
closed = 1;
nodes = (
"833 -137 LINE",
"833 48 LINE",
"726 153 LINE",
"767 212 OFFCURVE",
"787 272 OFFCURVE",
"787 351 CURVE SMOOTH",
"787 553 OFFCURVE",
"627 715 OFFCURVE",
"412 715 CURVE SMOOTH",
"197 715 OFFCURVE",
"36 552 OFFCURVE",
"36 350 CURVE SMOOTH",
"36 147 OFFCURVE",
"196 -14 OFFCURVE",
"411 -14 CURVE SMOOTH",
"493 -14 OFFCURVE",
"581 13 OFFCURVE",
"629 53 CURVE"
);
},
{
closed = 1;
nodes = (
"606 238 OFFCURVE",
"528 145 OFFCURVE",
"412 145 CURVE SMOOTH",
"296 145 OFFCURVE",
"217 239 OFFCURVE",
"217 351 CURVE SMOOTH",
"217 463 OFFCURVE",
"295 556 OFFCURVE",
"411 556 CURVE SMOOTH",
"527 556 OFFCURVE",
"606 461 OFFCURVE",
"606 350 CURVE SMOOTH"
);
}
);
width = 867;
}
);
unicode = 0051;
},
{
glyphname = R;
layers = (
{
hints = (
{
horizontal = 1;
place = "{0, 21}";
target = up;
type = BottomGhost;
},
{
horizontal = 1;
place = "{227, 138}";
type = Stem;
},
{
horizontal = 1;
place = "{548, 153}";
type = Stem;
},
{
place = "{68, 176}";
type = Stem;
},
{
place = "{485, 177}";
type = Stem;
}
);
layerId = "E376C904-BF5F-4CD7-8FD3-9BC68FA291DD";
paths = (
{
closed = 1;
nodes = (
"244 0 LINE",
"244 227 LINE",
"330 227 LINE",
"483 0 LINE",
"687 0 LINE",
"510 254 LINE",
"603 289 OFFCURVE",
"662 360 OFFCURVE",
"662 468 CURVE SMOOTH",
"662 608 OFFCURVE",
"567 701 OFFCURVE",
"380 701 CURVE SMOOTH",
"68 701 LINE",
"68 0 LINE"
);
},
{
closed = 1;
nodes = (
"244 365 LINE",
"244 548 LINE",
"370 548 LINE SMOOTH",
"442 548 OFFCURVE",
"485 519 OFFCURVE",
"485 458 CURVE SMOOTH",
"485 400 OFFCURVE",
"440 365 OFFCURVE",
"368 365 CURVE SMOOTH"
);
}
);
width = 706;
}
);
unicode = 0052;
},
{
glyphname = S;
layers = (
{
hints = (
{
horizontal = 1;
place = "{-12, 147}";
type = Stem;
},
{
horizontal = 1;
place = "{571, 142}";
type = Stem;
},
{
place = "{72, 178}";
type = Stem;
},
{
place = "{451, 177}";
type = Stem;
}
);
layerId = "E376C904-BF5F-4CD7-8FD3-9BC68FA291DD";
paths = (
{
closed = 1;
nodes = (
"244 135 OFFCURVE",
"129 186 OFFCURVE",
"42 259 CURVE",
"42 99 LINE",
"126 22 OFFCURVE",
"241 -12 OFFCURVE",
"352 -12 CURVE SMOOTH",
"502 -12 OFFCURVE",
"614 56 OFFCURVE",
"627 181 CURVE",
"628 188 OFFCURVE",
"628 196 OFFCURVE",
"628 203 CURVE SMOOTH",
"628 316 OFFCURVE",
"547 381 OFFCURVE",
"446 413 CURVE SMOOTH",
"413 423 OFFCURVE",
"382 432 OFFCURVE",
"353 441 CURVE SMOOTH",
"295 458 OFFCURVE",
"250 475 OFFCURVE",
"250 514 CURVE SMOOTH",
"250 543 OFFCURVE",
"282 571 OFFCURVE",
"347 571 CURVE SMOOTH",
"433 571 OFFCURVE",
"535 524 OFFCURVE",
"603 461 CURVE",
"603 626 LINE",
"532 683 OFFCURVE",
"446 713 OFFCURVE",
"334 713 CURVE SMOOTH",
"198 713 OFFCURVE",
"72 643 OFFCURVE",
"72 499 CURVE SMOOTH",
"72 249 OFFCURVE",
"451 307 OFFCURVE",
"451 193 CURVE SMOOTH",
"451 141 OFFCURVE",
"390 135 OFFCURVE",
"351 135 CURVE SMOOTH"
);
}
);
width = 668;
}
);
unicode = 0053;
},
{
glyphname = T;
layers = (
{
hints = (
{
horizontal = 1;
place = "{0, 21}";
target = up;
type = BottomGhost;
},
{
horizontal = 1;
place = "{547, 154}";
type = Stem;
},
{
place = "{228, 176}";
type = Stem;
}
);
layerId = "E376C904-BF5F-4CD7-8FD3-9BC68FA291DD";
paths = (
{
closed = 1;
nodes = (
"404 547 LINE",
"614 547 LINE",
"614 701 LINE",
"18 701 LINE",
"18 547 LINE",
"228 547 LINE",
"228 0 LINE",
"404 0 LINE"
);
}
);
width = 632;
}
);
unicode = 0054;
},
{
glyphname = U;
layers = (
{
hints = (
{
horizontal = 1;
place = "{-13, 159}";
type = Stem;
},
{
horizontal = 1;
place = "{701, -20}";
target = down;
type = TopGhost;
},
{
place = "{67, 178}";
type = Stem;
},
{
place = "{525, 178}";
type = Stem;
}
);
layerId = "E376C904-BF5F-4CD7-8FD3-9BC68FA291DD";
paths = (
{
closed = 1;
nodes = (
"581 -13 OFFCURVE",
"703 88 OFFCURVE",
"703 308 CURVE SMOOTH",
"703 701 LINE",
"525 701 LINE",
"525 303 LINE SMOOTH",
"525 195 OFFCURVE",
"472 146 OFFCURVE",
"385 146 CURVE SMOOTH",
"297 146 OFFCURVE",
"245 200 OFFCURVE",
"245 307 CURVE SMOOTH",
"245 701 LINE",
"67 701 LINE",
"67 303 LINE SMOOTH",
"67 91 OFFCURVE",
"186 -13 OFFCURVE",
"383 -13 CURVE SMOOTH"
);
}
);
width = 770;
}
);
unicode = 0055;
},
{
glyphname = V;
layers = (
{
hints = (
{
horizontal = 1;
place = "{-4, 21}";
target = up;
type = BottomGhost;
},
{
horizontal = 1;
place = "{701, -20}";
target = down;
type = TopGhost;
},
{
place = "{12, 732}";
type = Stem;
}
);
layerId = "E376C904-BF5F-4CD7-8FD3-9BC68FA291DD";
paths = (
{
closed = 1;
nodes = (
"12 701 LINE",
"294 -4 LINE",
"461 -4 LINE",
"744 701 LINE",
"551 701 LINE",
"380 229 LINE",
"208 701 LINE"
);
}
);
width = 753;
}
);
unicode = 0056;
},
{
glyphname = W;
layers = (
{
hints = (
{
horizontal = 1;
place = "{-4, 21}";
target = up;
type = BottomGhost;
},
{
horizontal = 1;
place = "{701, -20}";
target = down;
type = TopGhost;
},
{
horizontal = 1;
place = "{703, -20}";
target = down;
type = TopGhost;
},
{
place = "{16, 1070}";
type = Stem;
}
);
layerId = "E376C904-BF5F-4CD7-8FD3-9BC68FA291DD";
paths = (
{
closed = 1;
nodes = (
"202 701 LINE",
"16 701 LINE",
"251 -4 LINE",
"405 -4 LINE",
"551 429 LINE",
"698 -4 LINE",
"852 -4 LINE",
"1086 701 LINE",
"904 701 LINE",
"772 267 LINE",
"629 703 LINE",
"477 703 LINE",
"335 267 LINE"
);
}
);
width = 1101;
}
);
unicode = 0057;
},
{
glyphname = X;
layers = (
{
hints = (
{
horizontal = 1;
place = "{0, 21}";
target = up;
type = BottomGhost;
},
{
horizontal = 1;
place = "{701, -20}";
target = down;
type = TopGhost;
},
{
place = "{16, 693}";
type = Stem;
}
);
layerId = "E376C904-BF5F-4CD7-8FD3-9BC68FA291DD";
paths = (
{
closed = 1;
nodes = (
"26 701 LINE",
"259 357 LINE",
"16 0 LINE",
"214 0 LINE",
"361 225 LINE",
"507 0 LINE",
"709 0 LINE",
"467 359 LINE",
"698 701 LINE",
"501 701 LINE",
"365 490 LINE",
"229 701 LINE"
);
}
);
width = 724;
}
);
unicode = 0058;
},
{
glyphname = Y;
layers = (
{
hints = (
{
horizontal = 1;
place = "{0, 21}";
target = up;
type = BottomGhost;
},
{
horizontal = 1;
place = "{701, -20}";
target = down;
type = TopGhost;
},
{
place = "{275, 177}";
type = Stem;
}
);
layerId = "E376C904-BF5F-4CD7-8FD3-9BC68FA291DD";
paths = (
{
closed = 1;
nodes = (
"452 268 LINE",
"718 701 LINE",
"522 701 LINE",
"365 431 LINE",
"209 701 LINE",
"8 701 LINE",
"275 265 LINE",
"275 0 LINE",
"452 0 LINE"
);
}
);
width = 726;
}
);
unicode = 0059;
},
{
glyphname = Z;
layers = (
{
hints = (
{
horizontal = 1;
place = "{0, 149}";
type = Stem;
},
{
horizontal = 1;
place = "{552, 149}";
type = Stem;
},
{
place = "{24, 616}";
type = Stem;
}
);
layerId = "E376C904-BF5F-4CD7-8FD3-9BC68FA291DD";
paths = (
{
closed = 1;
nodes = (
"640 571 LINE",
"640 701 LINE",
"38 701 LINE",
"38 552 LINE",
"399 552 LINE",
"24 130 LINE",
"24 0 LINE",
"636 0 LINE",
"636 149 LINE",
"265 149 LINE"
);
}
);
width = 672;
}
);
unicode = 005A;
},
{
glyphname = bracketleft;
layers = (
{
hints = (
{
horizontal = 1;
place = "{-135, 119}";
type = Stem;
},
{
horizontal = 1;
place = "{586, 118}";
type = Stem;
},
{
place = "{69, 155}";
type = Stem;
}
);
layerId = "E376C904-BF5F-4CD7-8FD3-9BC68FA291DD";
paths = (
{
closed = 1;
nodes = (
"398 704 LINE",
"69 704 LINE",
"69 -135 LINE",
"398 -135 LINE",
"398 -16 LINE",
"224 -16 LINE",
"224 586 LINE",
"398 586 LINE"
);
}
);
width = 447;
}
);
unicode = 005B;
},
{
glyphname = backslash;
layers = (
{
hints = (
{
horizontal = 1;
place = "{-126, 921}";
type = Stem;
},
{
place = "{15, 559}";
type = Stem;
}
);
layerId = "E376C904-BF5F-4CD7-8FD3-9BC68FA291DD";
paths = (
{
closed = 1;
nodes = (
"443 -126 LINE",
"574 -104 LINE",
"146 795 LINE",
"15 776 LINE"
);
}
);
width = 594;
}
);
unicode = 005C;
},
{
glyphname = bracketright;
layers = (
{
hints = (
{
horizontal = 1;
place = "{-135, 119}";
type = Stem;
},
{
horizontal = 1;
place = "{586, 118}";
type = Stem;
},
{
place = "{222, 155}";
type = Stem;
}
);
layerId = "E376C904-BF5F-4CD7-8FD3-9BC68FA291DD";
paths = (
{
closed = 1;
nodes = (
"48 -135 LINE",
"377 -135 LINE",
"377 704 LINE",
"48 704 LINE",
"48 586 LINE",
"222 586 LINE",
"222 -16 LINE",
"48 -16 LINE"
);
}
);
width = 446;
}
);
unicode = 005D;
},
{
glyphname = asciicircum;
layers = (
{
hints = (
{
place = "{41, 419}";
type = Stem;
},
{
horizontal = 1;
place = "{481, 219}";
type = Stem;
},
{
horizontal = 1;
place = "{599, 101}";
type = Stem;
}
);
layerId = "E376C904-BF5F-4CD7-8FD3-9BC68FA291DD";
paths = (
{
closed = 1;
nodes = (
"41 481 LINE",
"163 481 LINE",
"250 599 LINE",
"336 481 LINE",
"460 481 LINE",
"310 700 LINE",
"191 700 LINE"
);
}
);
width = 500;
}
);
unicode = 005E;
},
{
glyphname = underscore;
layers = (
{
hints = (
{
horizontal = 1;
place = "{-158, 108}";
type = Stem;
},
{
place = "{0, 597}";
type = Stem;
}
);
layerId = "E376C904-BF5F-4CD7-8FD3-9BC68FA291DD";
paths = (
{
closed = 1;
nodes = (
"0 -158 LINE",
"597 -158 LINE",
"597 -50 LINE",
"0 -50 LINE"
);
}
);
width = 597;
}
);
unicode = 005F;
},
{
glyphname = grave;
layers = (
{
hints = (
{
horizontal = 1;
place = "{711, -20}";
target = down;
type = TopGhost;
},
{
place = "{1, 265}";
type = Stem;
}
);
layerId = "E376C904-BF5F-4CD7-8FD3-9BC68FA291DD";
paths = (
{
closed = 1;
nodes = (
"144 583 LINE",
"266 583 LINE",
"164 762 LINE",
"1 711 LINE"
);
}
);
width = 334;
}
);
unicode = 0060;
},
{
glyphname = a;
layers = (
{
hints = (
{
horizontal = 1;
place = "{-12, 111}";
type = Stem;
},
{
horizontal = 1;
place = "{240, 88}";
type = Stem;
},
{
horizontal = 1;
place = "{407, 133}";
type = Stem;
},
{
place = "{29, 168}";
type = Stem;
},
{
place = "{376, 168}";
type = Stem;
}
);
layerId = "E376C904-BF5F-4CD7-8FD3-9BC68FA291DD";
paths = (
{
closed = 1;
nodes = (
"544 -10 LINE",
"544 311 LINE SMOOTH",
"544 459 OFFCURVE",
"460 540 OFFCURVE",
"283 540 CURVE SMOOTH",
"198 540 OFFCURVE",
"133 522 OFFCURVE",
"73 498 CURVE",
"73 373 LINE",
"133 398 OFFCURVE",
"186 407 OFFCURVE",
"241 407 CURVE SMOOTH",
"329 407 OFFCURVE",
"376 380 OFFCURVE",
"376 316 CURVE SMOOTH",
"376 305 LINE",
"343 318 OFFCURVE",
"293 328 OFFCURVE",
"241 328 CURVE SMOOTH",
"119 328 OFFCURVE",
"29 274 OFFCURVE",
"29 159 CURVE SMOOTH",
"29 51 OFFCURVE",
"113 -12 OFFCURVE",
"216 -12 CURVE SMOOTH",
"287 -12 OFFCURVE",
"336 14 OFFCURVE",
"375 55 CURVE"
);
},
{
closed = 1;
nodes = (
"376 136 LINE",
"348 111 OFFCURVE",
"316 99 OFFCURVE",
"279 99 CURVE SMOOTH",
"234 99 OFFCURVE",
"197 125 OFFCURVE",
"197 169 CURVE SMOOTH",
"197 212 OFFCURVE",
"236 240 OFFCURVE",
"293 240 CURVE SMOOTH",
"326 240 OFFCURVE",
"356 233 OFFCURVE",
"376 222 CURVE"
);
}
);
width = 595;
}
);
unicode = 0061;
},
{
glyphname = b;
layers = (
{
hints = (
{
horizontal = 1;
place = "{-12, 144}";
type = Stem;
},
{
horizontal = 1;
place = "{399, 144}";
type = Stem;
},
{
place = "{56, 172}";
type = Stem;
},
{
place = "{466, 169}";
type = Stem;
}
);
layerId = "E376C904-BF5F-4CD7-8FD3-9BC68FA291DD";
paths = (
{
closed = 1;
nodes = (
"527 -12 OFFCURVE",
"635 95 OFFCURVE",
"635 266 CURVE SMOOTH",
"635 438 OFFCURVE",
"525 543 OFFCURVE",
"396 543 CURVE SMOOTH",
"315 543 OFFCURVE",
"267 504 OFFCURVE",
"228 457 CURVE",
"228 730 LINE",
"56 730 LINE",
"56 -10 LINE",
"230 67 LINE",
"265 24 OFFCURVE",
"315 -12 OFFCURVE",
"396 -12 CURVE SMOOTH"
);
},
{
closed = 1;
nodes = (
"466 187 OFFCURVE",
"413 132 OFFCURVE",
"345 132 CURVE SMOOTH",
"278 132 OFFCURVE",
"225 189 OFFCURVE",
"225 265 CURVE SMOOTH",
"225 343 OFFCURVE",
"278 399 OFFCURVE",
"345 399 CURVE SMOOTH",
"414 399 OFFCURVE",
"466 342 OFFCURVE",
"466 267 CURVE SMOOTH"
);
}
);
width = 668;
}
);
unicode = 0062;
},
{
glyphname = c;
layers = (
{
hints = (
{
horizontal = 1;
place = "{-12, 145}";
type = Stem;
},
{
horizontal = 1;
place = "{397, 145}";
type = Stem;
},
{
place = "{33, 168}";
type = Stem;
}
);
layerId = "E376C904-BF5F-4CD7-8FD3-9BC68FA291DD";
paths = (
{
closed = 1;
nodes = (
"433 523 LINE",
"401 536 OFFCURVE",
"356 542 OFFCURVE",
"317 542 CURVE SMOOTH",
"149 542 OFFCURVE",
"33 415 OFFCURVE",
"33 265 CURVE SMOOTH",
"33 113 OFFCURVE",
"155 -12 OFFCURVE",
"314 -12 CURVE SMOOTH",
"357 -12 OFFCURVE",
"403 -4 OFFCURVE",
"438 11 CURVE",
"438 173 LINE",
"403 145 OFFCURVE",
"367 133 OFFCURVE",
"332 133 CURVE SMOOTH",
"259 133 OFFCURVE",
"201 190 OFFCURVE",
"201 266 CURVE SMOOTH",
"201 341 OFFCURVE",
"254 397 OFFCURVE",
"329 397 CURVE SMOOTH",
"370 397 OFFCURVE",
"402 381 OFFCURVE",
"433 356 CURVE"
);
}
);
width = 458;
}
);
unicode = 0063;
},
{
glyphname = d;
layers = (
{
hints = (
{
horizontal = 1;
place = "{-12, 145}";
type = Stem;
},
{
horizontal = 1;
place = "{399, 144}";
type = Stem;
},
{
place = "{32, 170}";
type = Stem;
},
{
place = "{439, 172}";
type = Stem;
}
);
layerId = "E376C904-BF5F-4CD7-8FD3-9BC68FA291DD";
paths = (
{
closed = 1;
nodes = (
"611 -10 LINE",
"611 730 LINE",
"439 730 LINE",
"439 462 LINE",
"403 506 OFFCURVE",
"352 543 OFFCURVE",
"271 543 CURVE SMOOTH",
"143 543 OFFCURVE",
"32 438 OFFCURVE",
"32 265 CURVE SMOOTH",
"32 95 OFFCURVE",
"144 -12 OFFCURVE",
"272 -12 CURVE SMOOTH",
"352 -12 OFFCURVE",
"399 26 OFFCURVE",
"438 73 CURVE"
);
},
{
closed = 1;
nodes = (
"202 345 OFFCURVE",
"257 399 OFFCURVE",
"321 399 CURVE SMOOTH",
"388 399 OFFCURVE",
"442 344 OFFCURVE",
"442 267 CURVE SMOOTH",
"442 187 OFFCURVE",
"388 133 OFFCURVE",
"321 133 CURVE SMOOTH",
"257 133 OFFCURVE",
"202 188 OFFCURVE",
"202 265 CURVE SMOOTH"
);
}
);
width = 669;
}
);
unicode = 0064;
},
{
glyphname = e;
layers = (
{
hints = (
{
horizontal = 1;
place = "{-16, 127}";
type = Stem;
},
{
horizontal = 1;
place = "{410, 129}";
type = Stem;
},
{
place = "{33, 164}";
type = Stem;
}
);
layerId = "E376C904-BF5F-4CD7-8FD3-9BC68FA291DD";
paths = (
{
closed = 1;
nodes = (
"269 111 OFFCURVE",
"235 125 OFFCURVE",
"211 153 CURVE",
"569 244 LINE",
"566 400 OFFCURVE",
"476 539 OFFCURVE",
"307 539 CURVE SMOOTH",
"147 539 OFFCURVE",
"33 422 OFFCURVE",
"33 264 CURVE SMOOTH",
"33 101 OFFCURVE",
"148 -16 OFFCURVE",
"310 -16 CURVE SMOOTH",
"372 -16 OFFCURVE",
"452 0 OFFCURVE",
"518 42 CURVE",
"518 180 LINE",
"467 137 OFFCURVE",
"383 111 OFFCURVE",
"313 111 CURVE SMOOTH"
);
},
{
closed = 1;
nodes = (
"197 270 LINE SMOOTH",
"197 334 OFFCURVE",
"224 410 OFFCURVE",
"298 410 CURVE SMOOTH",
"350 410 OFFCURVE",
"388 375 OFFCURVE",
"400 319 CURVE",
"197 267 LINE"
);
}
);
width = 599;
}
);
unicode = 0065;
},
{
glyphname = f;
layers = (
{
hints = (
{
horizontal = 1;
place = "{0, 21}";
target = up;
type = BottomGhost;
},
{
horizontal = 1;
place = "{393, 133}";
type = Stem;
},
{
horizontal = 1;
place = "{611, 126}";
type = Stem;
},
{
place = "{101, 170}";
type = Stem;
}
);
layerId = "E376C904-BF5F-4CD7-8FD3-9BC68FA291DD";
paths = (
{
closed = 1;
nodes = (
"396 723 LINE",
"368 731 OFFCURVE",
"334 737 OFFCURVE",
"289 737 CURVE SMOOTH",
"172 737 OFFCURVE",
"101 682 OFFCURVE",
"101 551 CURVE SMOOTH",
"101 527 LINE",
"15 393 LINE",
"101 393 LINE",
"101 0 LINE",
"271 0 LINE",
"271 393 LINE",
"392 393 LINE",
"392 526 LINE",
"244 526 LINE",
"244 549 LINE SMOOTH",
"244 589 OFFCURVE",
"284 611 OFFCURVE",
"323 611 CURVE SMOOTH",
"344 611 OFFCURVE",
"373 607 OFFCURVE",
"396 600 CURVE"
);
}
);
width = 386;
}
);
unicode = 0066;
},
{
glyphname = g;
layers = (
{
hints = (
{
horizontal = 1;
place = "{-167, 125}";
type = Stem;
},
{
horizontal = 1;
place = "{43, 135}";
type = Stem;
},
{
horizontal = 1;
place = "{408, 135}";
type = Stem;
},
{
place = "{33, 170}";
type = Stem;
},
{
place = "{443, 169}";
type = Stem;
}
);
layerId = "E376C904-BF5F-4CD7-8FD3-9BC68FA291DD";
paths = (
{
closed = 1;
nodes = (
"196 -42 OFFCURVE",
"108 -2 OFFCURVE",
"53 32 CURVE",
"53 -108 LINE",
"127 -145 OFFCURVE",
"191 -167 OFFCURVE",
"283 -167 CURVE SMOOTH",
"475 -167 OFFCURVE",
"612 -74 OFFCURVE",
"612 119 CURVE SMOOTH",
"612 531 LINE",
"439 466 LINE",
"398 510 OFFCURVE",
"349 543 OFFCURVE",
"273 543 CURVE SMOOTH",
"142 543 OFFCURVE",
"33 448 OFFCURVE",
"33 293 CURVE SMOOTH",
"33 141 OFFCURVE",
"141 43 OFFCURVE",
"272 43 CURVE SMOOTH",
"353 43 OFFCURVE",
"403 80 OFFCURVE",
"443 128 CURVE",
"443 100 LINE SMOOTH",
"443 5 OFFCURVE",
"383 -42 OFFCURVE",
"282 -42 CURVE SMOOTH"
);
},
{
closed = 1;
nodes = (
"203 360 OFFCURVE",
"252 408 OFFCURVE",
"323 408 CURVE SMOOTH",
"391 408 OFFCURVE",
"443 361 OFFCURVE",
"443 294 CURVE SMOOTH",
"443 227 OFFCURVE",
"391 178 OFFCURVE",
"323 178 CURVE SMOOTH",
"252 178 OFFCURVE",
"203 228 OFFCURVE",
"203 292 CURVE SMOOTH"
);
}
);
width = 669;
}
);
unicode = 0067;
},
{
glyphname = h;
layers = (
{
hints = (
{
horizontal = 1;
place = "{0, 21}";
target = up;
type = BottomGhost;
},
{
horizontal = 1;
place = "{389, 154}";
type = Stem;
},
{
place = "{61, 172}";
type = Stem;
},
{
place = "{405, 172}";
type = Stem;
}
);
layerId = "E376C904-BF5F-4CD7-8FD3-9BC68FA291DD";
paths = (
{
closed = 1;
nodes = (
"318 543 OFFCURVE",
"267 503 OFFCURVE",
"232 459 CURVE",
"232 730 LINE",
"61 730 LINE",
"61 0 LINE",
"233 0 LINE",
"233 291 LINE SMOOTH",
"233 354 OFFCURVE",
"276 389 OFFCURVE",
"323 389 CURVE SMOOTH",
"371 389 OFFCURVE",
"405 355 OFFCURVE",
"405 291 CURVE SMOOTH",
"405 0 LINE",
"577 0 LINE",
"577 346 LINE SMOOTH",
"577 470 OFFCURVE",
"502 543 OFFCURVE",
"395 543 CURVE SMOOTH"
);
}
);
width = 636;
}
);
unicode = 0068;
},
{
glyphname = i;
layers = (
{
hints = (
{
place = "{58, 200}";
type = Stem;
},
{
place = "{73, 172}";
type = Stem;
},
{
horizontal = 1;
place = "{0, 21}";
target = up;
type = BottomGhost;
},
{
horizontal = 1;
place = "{586, 180}";
type = Stem;
}
);
layerId = "E376C904-BF5F-4CD7-8FD3-9BC68FA291DD";
paths = (
{
closed = 1;
nodes = (
"58 617 OFFCURVE",
"102 586 OFFCURVE",
"158 586 CURVE SMOOTH",
"213 586 OFFCURVE",
"258 617 OFFCURVE",
"258 676 CURVE SMOOTH",
"258 736 OFFCURVE",
"213 766 OFFCURVE",
"158 766 CURVE SMOOTH",
"102 766 OFFCURVE",
"58 736 OFFCURVE",
"58 676 CURVE SMOOTH"
);
},
{
closed = 1;
nodes = (
"245 531 LINE",
"73 531 LINE",
"73 0 LINE",
"245 0 LINE"
);
}
);
width = 316;
}
);
unicode = 0069;
},
{
glyphname = j;
layers = (
{
hints = (
{
place = "{26, 199}";
type = Stem;
},
{
place = "{41, 172}";
type = Stem;
},
{
horizontal = 1;
place = "{-168, 121}";
type = Stem;
},
{
horizontal = 1;
place = "{586, 180}";
type = Stem;
}
);
layerId = "E376C904-BF5F-4CD7-8FD3-9BC68FA291DD";
paths = (
{
closed = 1;
nodes = (
"26 617 OFFCURVE",
"70 586 OFFCURVE",
"125 586 CURVE SMOOTH",
"181 586 OFFCURVE",
"225 617 OFFCURVE",
"225 676 CURVE SMOOTH",
"225 736 OFFCURVE",
"181 766 OFFCURVE",
"125 766 CURVE SMOOTH",
"70 766 OFFCURVE",
"26 736 OFFCURVE",
"26 676 CURVE SMOOTH"
);
},
{
closed = 1;
nodes = (
"-40 -161 LINE",
"-19 -165 OFFCURVE",
"4 -168 OFFCURVE",
"33 -168 CURVE SMOOTH",
"152 -168 OFFCURVE",
"213 -115 OFFCURVE",
"213 14 CURVE SMOOTH",
"213 531 LINE",
"41 531 LINE",
"41 16 LINE SMOOTH",
"41 -28 OFFCURVE",
"24 -47 OFFCURVE",
"-3 -47 CURVE SMOOTH",
"-15 -47 OFFCURVE",
"-27 -44 OFFCURVE",
"-40 -39 CURVE"
);
}
);
width = 281;
}
);
unicode = 006A;
},
{
glyphname = k;
layers = (
{
hints = (
{
horizontal = 1;
place = "{0, 21}";
target = up;
type = BottomGhost;
},
{
place = "{61, 172}";
type = Stem;
}
);
layerId = "E376C904-BF5F-4CD7-8FD3-9BC68FA291DD";
paths = (
{
closed = 1;
nodes = (
"233 730 LINE",
"61 730 LINE",
"61 0 LINE",
"233 0 LINE",
"233 272 LINE",
"398 0 LINE",
"589 0 LINE",
"390 312 LINE",
"583 531 LINE",
"386 531 LINE",
"233 347 LINE"
);
}
);
width = 573;
}
);
unicode = 006B;
},
{
glyphname = l;
layers = (
{
hints = (
{
horizontal = 1;
place = "{0, 21}";
target = up;
type = BottomGhost;
},
{
place = "{61, 172}";
type = Stem;
}
);
layerId = "E376C904-BF5F-4CD7-8FD3-9BC68FA291DD";
paths = (
{
closed = 1;
nodes = (
"233 730 LINE",
"61 730 LINE",
"61 0 LINE",
"233 0 LINE"
);
}
);
width = 295;
}
);
unicode = 006C;
},
{
glyphname = m;
layers = (
{
hints = (
{
horizontal = 1;
place = "{0, 21}";
target = up;
type = BottomGhost;
},
{
horizontal = 1;
place = "{390, 153}";
type = Stem;
},
{
place = "{57, 172}";
type = Stem;
},
{
place = "{393, 172}";
type = Stem;
},
{
place = "{731, 172}";
type = Stem;
}
);
layerId = "E376C904-BF5F-4CD7-8FD3-9BC68FA291DD";
paths = (
{
closed = 1;
nodes = (
"903 0 LINE",
"903 347 LINE SMOOTH",
"903 454 OFFCURVE",
"837 543 OFFCURVE",
"722 543 CURVE SMOOTH",
"643 543 OFFCURVE",
"586 510 OFFCURVE",
"542 455 CURVE",
"514 515 OFFCURVE",
"454 543 OFFCURVE",
"390 543 CURVE SMOOTH",
"323 543 OFFCURVE",
"270 512 OFFCURVE",
"229 460 CURVE",
"57 531 LINE",
"57 0 LINE",
"229 0 LINE",
"229 292 LINE SMOOTH",
"229 354 OFFCURVE",
"264 390 OFFCURVE",
"314 390 CURVE SMOOTH",
"363 390 OFFCURVE",
"393 354 OFFCURVE",
"393 292 CURVE SMOOTH",
"393 0 LINE",
"565 0 LINE",
"565 292 LINE SMOOTH",
"565 344 OFFCURVE",
"595 390 OFFCURVE",
"651 390 CURVE SMOOTH",
"698 390 OFFCURVE",
"731 359 OFFCURVE",
"731 292 CURVE SMOOTH",
"731 0 LINE"
);
}
);
width = 962;
}
);
unicode = 006D;
},
{
glyphname = n;
layers = (
{
hints = (
{
horizontal = 1;
place = "{0, 21}";
target = up;
type = BottomGhost;
},
{
horizontal = 1;
place = "{390, 153}";
type = Stem;
},
{
place = "{56, 172}";
type = Stem;
},
{
place = "{400, 172}";
type = Stem;
}
);
layerId = "E376C904-BF5F-4CD7-8FD3-9BC68FA291DD";
paths = (
{
closed = 1;
nodes = (
"314 543 OFFCURVE",
"264 502 OFFCURVE",
"229 458 CURVE",
"56 531 LINE",
"56 0 LINE",
"228 0 LINE",
"228 291 LINE SMOOTH",
"228 359 OFFCURVE",
"272 390 OFFCURVE",
"317 390 CURVE SMOOTH",
"361 390 OFFCURVE",
"400 358 OFFCURVE",
"400 291 CURVE SMOOTH",
"400 0 LINE",
"572 0 LINE",
"572 346 LINE SMOOTH",
"572 469 OFFCURVE",
"494 543 OFFCURVE",
"390 543 CURVE SMOOTH"
);
}
);
width = 632;
}
);
unicode = 006E;
},
{
glyphname = o;
layers = (
{
hints = (
{
horizontal = 1;
place = "{-13, 146}";
type = Stem;
},
{
horizontal = 1;
place = "{398, 145}";
type = Stem;
},
{
place = "{33, 168}";
type = Stem;
},
{
place = "{450, 168}";
type = Stem;
}
);
layerId = "E376C904-BF5F-4CD7-8FD3-9BC68FA291DD";
paths = (
{
closed = 1;
nodes = (
"618 420 OFFCURVE",
"495 543 OFFCURVE",
"326 543 CURVE SMOOTH",
"157 543 OFFCURVE",
"33 418 OFFCURVE",
"33 265 CURVE SMOOTH",
"33 113 OFFCURVE",
"156 -13 OFFCURVE",
"324 -13 CURVE SMOOTH",
"495 -13 OFFCURVE",
"618 116 OFFCURVE",
"618 267 CURVE SMOOTH"
);
},
{
closed = 1;
nodes = (
"450 196 OFFCURVE",
"401 133 OFFCURVE",
"326 133 CURVE SMOOTH",
"255 133 OFFCURVE",
"201 195 OFFCURVE",
"201 267 CURVE SMOOTH",
"201 337 OFFCURVE",
"250 398 OFFCURVE",
"324 398 CURVE SMOOTH",
"398 398 OFFCURVE",
"450 336 OFFCURVE",
"450 265 CURVE SMOOTH"
);
}
);
width = 652;
}
);
unicode = 006F;
},
{
glyphname = p;
layers = (
{
hints = (
{
horizontal = 1;
place = "{-165, 21}";
target = up;
type = BottomGhost;
},
{
horizontal = 1;
place = "{-12, 144}";
type = Stem;
},
{
horizontal = 1;
place = "{399, 144}";
type = Stem;
},
{
place = "{56, 172}";
type = Stem;
},
{
place = "{466, 169}";
type = Stem;
}
);
layerId = "E376C904-BF5F-4CD7-8FD3-9BC68FA291DD";
paths = (
{
closed = 1;
nodes = (
"228 69 LINE",
"264 25 OFFCURVE",
"314 -12 OFFCURVE",
"397 -12 CURVE SMOOTH",
"523 -12 OFFCURVE",
"635 95 OFFCURVE",
"635 266 CURVE SMOOTH",
"635 438 OFFCURVE",
"525 543 OFFCURVE",
"396 543 CURVE SMOOTH",
"315 543 OFFCURVE",
"269 504 OFFCURVE",
"230 459 CURVE",
"56 531 LINE",
"56 -165 LINE",
"228 -165 LINE"
);
},
{
closed = 1;
nodes = (
"466 187 OFFCURVE",
"413 132 OFFCURVE",
"345 132 CURVE SMOOTH",
"278 132 OFFCURVE",
"225 189 OFFCURVE",
"225 265 CURVE SMOOTH",
"225 343 OFFCURVE",
"278 399 OFFCURVE",
"345 399 CURVE SMOOTH",
"413 399 OFFCURVE",
"466 343 OFFCURVE",
"466 267 CURVE SMOOTH"
);
}
);
width = 670;
}
);
unicode = 0070;
},
{
glyphname = q;
layers = (
{
hints = (
{
horizontal = 1;
place = "{-165, 21}";
target = up;
type = BottomGhost;
},
{
horizontal = 1;
place = "{-12, 144}";
type = Stem;
},
{
horizontal = 1;
place = "{399, 144}";
type = Stem;
},
{
place = "{33, 170}";
type = Stem;
},
{
place = "{440, 172}";
type = Stem;
}
);
layerId = "E376C904-BF5F-4CD7-8FD3-9BC68FA291DD";
paths = (
{
closed = 1;
nodes = (
"612 -165 LINE",
"612 531 LINE",
"439 464 LINE",
"402 507 OFFCURVE",
"353 543 OFFCURVE",
"272 543 CURVE SMOOTH",
"144 543 OFFCURVE",
"33 438 OFFCURVE",
"33 265 CURVE SMOOTH",
"33 97 OFFCURVE",
"145 -12 OFFCURVE",
"273 -12 CURVE SMOOTH",
"353 -12 OFFCURVE",
"401 27 OFFCURVE",
"440 75 CURVE",
"440 -165 LINE"
);
},
{
closed = 1;
nodes = (
"203 346 OFFCURVE",
"258 399 OFFCURVE",
"323 399 CURVE SMOOTH",
"390 399 OFFCURVE",
"444 344 OFFCURVE",
"444 267 CURVE SMOOTH",
"444 191 OFFCURVE",
"390 132 OFFCURVE",
"323 132 CURVE SMOOTH",
"258 132 OFFCURVE",
"203 191 OFFCURVE",
"203 267 CURVE SMOOTH"
);
}
);
width = 670;
}
);
unicode = 0071;
},
{
glyphname = r;
layers = (
{
hints = (
{
horizontal = 1;
place = "{0, 21}";
target = up;
type = BottomGhost;
},
{
horizontal = 1;
place = "{362, 178}";
type = Stem;
},
{
place = "{56, 172}";
type = Stem;
}
);
layerId = "E376C904-BF5F-4CD7-8FD3-9BC68FA291DD";
paths = (
{
closed = 1;
nodes = (
"403 539 LINE",
"398 540 OFFCURVE",
"393 540 OFFCURVE",
"388 540 CURVE SMOOTH",
"308 540 OFFCURVE",
"260 499 OFFCURVE",
"229 431 CURVE",
"56 531 LINE",
"56 0 LINE",
"228 0 LINE",
"228 185 LINE SMOOTH",
"228 307 OFFCURVE",
"289 362 OFFCURVE",
"382 362 CURVE SMOOTH",
"390 362 OFFCURVE",
"398 361 OFFCURVE",
"403 360 CURVE"
);
}
);
width = 423;
}
);
unicode = 0072;
},
{
glyphname = s;
layers = (
{
hints = (
{
horizontal = 1;
place = "{-12, 123}";
type = Stem;
},
{
horizontal = 1;
place = "{420, 122}";
type = Stem;
},
{
place = "{34, 157}";
type = Stem;
},
{
place = "{306, 157}";
type = Stem;
}
);
layerId = "E376C904-BF5F-4CD7-8FD3-9BC68FA291DD";
paths = (
{
closed = 1;
nodes = (
"183 111 OFFCURVE",
"104 142 OFFCURVE",
"44 183 CURVE",
"44 39 LINE",
"113 10 OFFCURVE",
"176 -12 OFFCURVE",
"251 -12 CURVE SMOOTH",
"378 -12 OFFCURVE",
"463 53 OFFCURVE",
"463 159 CURVE SMOOTH",
"463 339 OFFCURVE",
"191 316 OFFCURVE",
"191 388 CURVE SMOOTH",
"191 407 OFFCURVE",
"207 420 OFFCURVE",
"239 420 CURVE SMOOTH",
"285 420 OFFCURVE",
"366 393 OFFCURVE",
"419 361 CURVE",
"419 503 LINE",
"360 527 OFFCURVE",
"313 542 OFFCURVE",
"241 542 CURVE SMOOTH",
"121 542 OFFCURVE",
"34 480 OFFCURVE",
"34 374 CURVE SMOOTH",
"34 188 OFFCURVE",
"306 217 OFFCURVE",
"306 149 CURVE SMOOTH",
"306 122 OFFCURVE",
"274 111 OFFCURVE",
"241 111 CURVE SMOOTH"
);
}
);
width = 494;
}
);
unicode = 0073;
},
{
glyphname = t;
layers = (
{
hints = (
{
place = "{120, 172}";
type = Stem;
},
{
horizontal = 1;
place = "{-11, 147}";
type = Stem;
},
{
horizontal = 1;
place = "{-11, 21}";
target = up;
type = BottomGhost;
},
{
horizontal = 1;
place = "{392, 139}";
type = Stem;
}
);
layerId = "E376C904-BF5F-4CD7-8FD3-9BC68FA291DD";
paths = (
{
closed = 1;
nodes = (
"120 160 LINE SMOOTH",
"120 39 OFFCURVE",
"188 -11 OFFCURVE",
"291 -11 CURVE SMOOTH",
"339 -11 OFFCURVE",
"378 0 OFFCURVE",
"409 17 CURVE",
"409 152 LINE",
"386 143 OFFCURVE",
"366 136 OFFCURVE",
"343 136 CURVE SMOOTH",
"308 136 OFFCURVE",
"292 153 OFFCURVE",
"292 190 CURVE SMOOTH",
"292 392 LINE",
"418 392 LINE",
"418 531 LINE",
"292 531 LINE",
"292 698 LINE",
"17 392 LINE",
"120 392 LINE"
);
}
);
width = 447;
}
);
unicode = 0074;
},
{
glyphname = u;
layers = (
{
hints = (
{
place = "{60, 172}";
type = Stem;
},
{
place = "{403, 172}";
type = Stem;
},
{
horizontal = 1;
place = "{-12, 153}";
type = Stem;
},
{
horizontal = 1;
place = "{0, 21}";
target = up;
type = BottomGhost;
}
);
layerId = "E376C904-BF5F-4CD7-8FD3-9BC68FA291DD";
paths = (
{
closed = 1;
nodes = (
"318 -12 OFFCURVE",
"368 27 OFFCURVE",
"403 72 CURVE",
"575 0 LINE",
"575 531 LINE",
"403 531 LINE",
"403 241 LINE SMOOTH",
"403 173 OFFCURVE",
"362 141 OFFCURVE",
"316 141 CURVE SMOOTH",
"267 141 OFFCURVE",
"232 174 OFFCURVE",
"232 241 CURVE SMOOTH",
"232 531 LINE",
"60 531 LINE",
"60 186 LINE SMOOTH",
"60 62 OFFCURVE",
"127 -12 OFFCURVE",
"242 -12 CURVE SMOOTH"
);
}
);
width = 633;
}
);
unicode = 0075;
},
{
glyphname = v;
layers = (
{
hints = (
{
horizontal = 1;
place = "{-3, 21}";
target = up;
type = BottomGhost;
},
{
place = "{9, 585}";
type = Stem;
}
);
layerId = "E376C904-BF5F-4CD7-8FD3-9BC68FA291DD";
paths = (
{
closed = 1;
nodes = (
"594 531 LINE",
"416 531 LINE",
"303 203 LINE",
"191 531 LINE",
"9 531 LINE",
"223 -3 LINE",
"380 -3 LINE"
);
}
);
width = 603;
}
);
unicode = 0076;
},
{
glyphname = w;
layers = (
{
hints = (
{
horizontal = 1;
place = "{-3, 21}";
target = up;
type = BottomGhost;
},
{
horizontal = 1;
place = "{533, -20}";
target = down;
type = TopGhost;
},
{
place = "{10, 819}";
type = Stem;
}
);
layerId = "E376C904-BF5F-4CD7-8FD3-9BC68FA291DD";
paths = (
{
closed = 1;
nodes = (
"10 531 LINE",
"175 -3 LINE",
"324 -3 LINE",
"419 297 LINE",
"513 -3 LINE",
"663 -3 LINE",
"829 531 LINE",
"663 531 LINE",
"582 239 LINE",
"492 533 LINE",
"348 533 LINE",
"259 241 LINE",
"179 531 LINE"
);
}
);
width = 840;
}
);
unicode = 0077;
},
{
glyphname = x;
layers = (
{
hints = (
{
horizontal = 1;
place = "{0, 21}";
target = up;
type = BottomGhost;
},
{
place = "{2, 557}";
type = Stem;
}
);
layerId = "E376C904-BF5F-4CD7-8FD3-9BC68FA291DD";
paths = (
{
closed = 1;
nodes = (
"2 0 LINE",
"184 0 LINE",
"279 148 LINE",
"374 0 LINE",
"559 0 LINE",
"376 270 LINE",
"554 531 LINE",
"371 531 LINE",
"282 391 LINE",
"193 531 LINE",
"7 531 LINE",
"186 269 LINE"
);
}
);
width = 562;
}
);
unicode = 0078;
},
{
glyphname = y;
layers = (
{
hints = (
{
horizontal = 1;
place = "{-165, 21}";
target = up;
type = BottomGhost;
},
{
place = "{-2, 585}";
type = Stem;
}
);
layerId = "E376C904-BF5F-4CD7-8FD3-9BC68FA291DD";
paths = (
{
closed = 1;
nodes = (
"225 -5 LINE",
"172 -165 LINE",
"319 -165 LINE",
"583 531 LINE",
"407 531 LINE",
"297 179 LINE",
"179 531 LINE",
"-2 531 LINE"
);
}
);
width = 593;
}
);
unicode = 0079;
},
{
glyphname = z;
layers = (
{
hints = (
{
horizontal = 1;
place = "{0, 138}";
type = Stem;
},
{
horizontal = 1;
place = "{394, 137}";
type = Stem;
},
{
place = "{24, 496}";
type = Stem;
}
);
layerId = "E376C904-BF5F-4CD7-8FD3-9BC68FA291DD";
paths = (
{
closed = 1;
nodes = (
"520 416 LINE",
"520 531 LINE",
"35 531 LINE",
"35 394 LINE",
"294 394 LINE",
"24 116 LINE",
"24 0 LINE",
"519 0 LINE",
"519 138 LINE",
"250 138 LINE"
);
}
);
width = 543;
}
);
unicode = 007A;
},
{
glyphname = braceleft;
layers = (
{
hints = (
{
place = "{159, 154}";
type = Stem;
},
{
place = "{161, 155}";
type = Stem;
},
{
horizontal = 1;
place = "{229, 117}";
type = Stem;
}
);
layerId = "E376C904-BF5F-4CD7-8FD3-9BC68FA291DD";
paths = (
{
closed = 1;
nodes = (
"32 229 LINE",
"117 229 OFFCURVE",
"161 198 OFFCURVE",
"161 127 CURVE SMOOTH",
"161 114 LINE",
"161 92 LINE SMOOTH",
"161 12 OFFCURVE",
"171 -44 OFFCURVE",
"210 -81 CURVE SMOOTH",
"249 -117 OFFCURVE",
"313 -132 OFFCURVE",
"412 -143 CURVE",
"414 -36 LINE",
"306 -17 OFFCURVE",
"313 43 OFFCURVE",
"316 131 CURVE",
"316 139 LINE SMOOTH",
"316 211 OFFCURVE",
"283 262 OFFCURVE",
"207 287 CURVE",
"304 319 OFFCURVE",
"315 369 OFFCURVE",
"315 423 CURVE SMOOTH",
"315 431 OFFCURVE",
"313 457 OFFCURVE",
"313 509 CURVE SMOOTH",
"313 580 OFFCURVE",
"351 600 OFFCURVE",
"414 611 CURVE",
"412 718 LINE",
"280 702 OFFCURVE",
"159 668 OFFCURVE",
"159 516 CURVE SMOOTH",
"159 461 OFFCURVE",
"160 441 OFFCURVE",
"160 437 CURVE SMOOTH",
"160 381 OFFCURVE",
"142 346 OFFCURVE",
"32 346 CURVE"
);
}
);
width = 450;
}
);
unicode = 007B;
},
{
glyphname = bar;
layers = (
{
hints = (
{
horizontal = 1;
place = "{-135, 928}";
type = Stem;
},
{
place = "{93, 133}";
type = Stem;
}
);
layerId = "E376C904-BF5F-4CD7-8FD3-9BC68FA291DD";
paths = (
{
closed = 1;
nodes = (
"93 793 LINE",
"93 -135 LINE",
"226 -135 LINE",
"226 793 LINE"
);
}
);
width = 319;
}
);
unicode = 007C;
},
{
glyphname = braceright;
layers = (
{
hints = (
{
horizontal = 1;
place = "{229, 117}";
type = Stem;
},
{
place = "{134, 157}";
type = Stem;
}
);
layerId = "E376C904-BF5F-4CD7-8FD3-9BC68FA291DD";
paths = (
{
closed = 1;
nodes = (
"418 346 LINE",
"300 346 OFFCURVE",
"288 392 OFFCURVE",
"288 441 CURVE SMOOTH",
"288 450 OFFCURVE",
"291 477 OFFCURVE",
"291 532 CURVE SMOOTH",
"291 678 OFFCURVE",
"157 705 OFFCURVE",
"37 718 CURVE",
"35 611 LINE",
"117 597 OFFCURVE",
"135 559 OFFCURVE",
"135 507 CURVE",
"135 506 OFFCURVE",
"134 487 OFFCURVE",
"134 443 CURVE SMOOTH",
"134 435 LINE SMOOTH",
"134 363 OFFCURVE",
"164 314 OFFCURVE",
"243 287 CURVE",
"165 263 OFFCURVE",
"134 209 OFFCURVE",
"134 140 CURVE SMOOTH",
"134 131 LINE",
"137 43 OFFCURVE",
"143 -18 OFFCURVE",
"35 -36 CURVE",
"37 -143 LINE",
"177 -130 OFFCURVE",
"291 -90 OFFCURVE",
"291 68 CURVE SMOOTH",
"291 121 OFFCURVE",
"290 138 OFFCURVE",
"290 141 CURVE SMOOTH",
"290 197 OFFCURVE",
"312 229 OFFCURVE",
"418 229 CURVE"
);
}
);
width = 450;
}
);
unicode = 007D;
},
{
glyphname = asciitilde;
layers = (
{
hints = (
{
place = "{43, 414}";
type = Stem;
},
{
horizontal = 1;
place = "{228, 119}";
type = Stem;
},
{
horizontal = 1;
place = "{270, 119}";
type = Stem;
}
);
layerId = "E376C904-BF5F-4CD7-8FD3-9BC68FA291DD";
paths = (
{
closed = 1;
nodes = (
"376 396 LINE",
"363 364 OFFCURVE",
"349 347 OFFCURVE",
"321 347 CURVE SMOOTH",
"278 347 OFFCURVE",
"228 389 OFFCURVE",
"164 389 CURVE SMOOTH",
"103 389 OFFCURVE",
"67 354 OFFCURVE",
"43 259 CURVE",
"124 222 LINE",
"139 254 OFFCURVE",
"151 270 OFFCURVE",
"179 270 CURVE SMOOTH",
"224 270 OFFCURVE",
"279 228 OFFCURVE",
"338 228 CURVE SMOOTH",
"393 228 OFFCURVE",
"436 262 OFFCURVE",
"457 355 CURVE"
);
}
);
width = 494;
}
);
unicode = 007E;
},
{
glyphname = Euro;
layers = (
{
hints = (
{
horizontal = 1;
place = "{-15, 151}";
type = Stem;
},
{
horizontal = 1;
place = "{298, 96}";
type = Stem;
},
{
horizontal = 1;
place = "{565, 151}";
type = Stem;
},
{
place = "{4, 171}";
type = Stem;
}
);
layerId = "E376C904-BF5F-4CD7-8FD3-9BC68FA291DD";
paths = (
{
closed = 1;
nodes = (
"175 394 LINE",
"183 517 OFFCURVE",
"253 565 OFFCURVE",
"321 565 CURVE SMOOTH",
"364 565 OFFCURVE",
"401 549 OFFCURVE",
"433 510 CURVE",
"465 537 OFFCURVE",
"522 579 OFFCURVE",
"554 605 CURVE",
"501 672 OFFCURVE",
"428 716 OFFCURVE",
"320 716 CURVE SMOOTH",
"106 716 OFFCURVE",
"4 535 OFFCURVE",
"4 348 CURVE SMOOTH",
"4 110 OFFCURVE",
"144 -15 OFFCURVE",
"317 -15 CURVE SMOOTH",
"425 -15 OFFCURVE",
"500 29 OFFCURVE",
"556 101 CURVE",
"438 193 LINE",
"403 153 OFFCURVE",
"366 136 OFFCURVE",
"327 136 CURVE SMOOTH",
"236 136 OFFCURVE",
"195 221 OFFCURVE",
"182 298 CURVE",
"364 298 LINE",
"364 394 LINE"
);
}
);
width = 588;
}
);
unicode = 20AC;
},
{
glyphname = quotesinglbase;
layers = (
{
hints = (
{
horizontal = 1;
place = "{-163, 343}";
type = Stem;
},
{
place = "{16, 225}";
type = Stem;
}
);
layerId = "E376C904-BF5F-4CD7-8FD3-9BC68FA291DD";
paths = (
{
closed = 1;
nodes = (
"241 180 LINE",
"62 180 LINE",
"16 -163 LINE",
"135 -163 LINE"
);
}
);
width = 273;
}
);
unicode = 201A;
},
{
glyphname = florin;
layers = (
{
hints = (
{
horizontal = 1;
place = "{336, 131}";
type = Stem;
},
{
horizontal = 1;
place = "{606, 132}";
type = Stem;
},
{
place = "{32, 449}";
type = Stem;
}
);
layerId = "E376C904-BF5F-4CD7-8FD3-9BC68FA291DD";
paths = (
{
closed = 1;
nodes = (
"32 -153 LINE",
"203 -153 LINE",
"297 336 LINE",
"406 336 LINE",
"433 467 LINE",
"321 467 LINE",
"335 530 LINE SMOOTH",
"348 585 OFFCURVE",
"371 606 OFFCURVE",
"419 606 CURVE SMOOTH",
"431 606 OFFCURVE",
"445 605 OFFCURVE",
"458 602 CURVE",
"481 726 LINE",
"454 733 OFFCURVE",
"418 738 OFFCURVE",
"382 738 CURVE SMOOTH",
"262 738 OFFCURVE",
"200 685 OFFCURVE",
"170 564 CURVE",
"148 467 LINE",
"87 467 LINE",
"60 336 LINE",
"125 336 LINE"
);
}
);
width = 532;
}
);
unicode = 0192;
},
{
glyphname = quotedblbase;
layers = (
{
hints = (
{
horizontal = 1;
place = "{-163, 343}";
type = Stem;
},
{
place = "{15, 474}";
type = Stem;
}
);
layerId = "E376C904-BF5F-4CD7-8FD3-9BC68FA291DD";
paths = (
{
closed = 1;
nodes = (
"240 180 LINE",
"61 180 LINE",
"15 -163 LINE",
"134 -163 LINE"
);
},
{
closed = 1;
nodes = (
"489 180 LINE",
"311 180 LINE",
"265 -163 LINE",
"383 -163 LINE"
);
}
);
width = 526;
}
);
unicode = 201E;
},
{
glyphname = ellipsis;
layers = (
{
hints = (
{
horizontal = 1;
place = "{-7, 189}";
type = Stem;
},
{
place = "{74, 200}";
type = Stem;
},
{
place = "{349, 200}";
type = Stem;
},
{
place = "{624, 199}";
type = Stem;
}
);
layerId = "E376C904-BF5F-4CD7-8FD3-9BC68FA291DD";
paths = (
{
closed = 1;
nodes = (
"74 25 OFFCURVE",
"117 -7 OFFCURVE",
"173 -7 CURVE SMOOTH",
"229 -7 OFFCURVE",
"274 25 OFFCURVE",
"274 88 CURVE SMOOTH",
"274 149 OFFCURVE",
"229 182 OFFCURVE",
"173 182 CURVE SMOOTH",
"117 182 OFFCURVE",
"74 149 OFFCURVE",
"74 88 CURVE SMOOTH"
);
},
{
closed = 1;
nodes = (
"349 25 OFFCURVE",
"393 -7 OFFCURVE",
"448 -7 CURVE SMOOTH",
"505 -7 OFFCURVE",
"549 25 OFFCURVE",
"549 88 CURVE SMOOTH",
"549 149 OFFCURVE",
"505 182 OFFCURVE",
"448 182 CURVE SMOOTH",
"393 182 OFFCURVE",
"349 149 OFFCURVE",
"349 88 CURVE SMOOTH"
);
},
{
closed = 1;
nodes = (
"624 25 OFFCURVE",
"667 -7 OFFCURVE",
"723 -7 CURVE SMOOTH",
"779 -7 OFFCURVE",
"823 25 OFFCURVE",
"823 88 CURVE SMOOTH",
"823 149 OFFCURVE",
"779 182 OFFCURVE",
"723 182 CURVE SMOOTH",
"667 182 OFFCURVE",
"624 149 OFFCURVE",
"624 88 CURVE SMOOTH"
);
}
);
width = 897;
}
);
unicode = 2026;
},
{
glyphname = dagger;
layers = (
{
hints = (
{
place = "{154, 91}";
type = Stem;
},
{
place = "{157, 85}";
type = Stem;
},
{
horizontal = 1;
place = "{473, 85}";
type = Stem;
},
{
horizontal = 1;
place = "{708, -20}";
target = down;
type = TopGhost;
}
);
layerId = "E376C904-BF5F-4CD7-8FD3-9BC68FA291DD";
paths = (
{
closed = 1;
nodes = (
"253 708 LINE",
"148 708 LINE",
"161 553 LINE",
"34 564 LINE",
"34 467 LINE",
"162 479 LINE",
"153 63 LINE",
"248 63 LINE",
"238 479 LINE",
"367 467 LINE",
"367 564 LINE",
"239 553 LINE"
);
}
);
width = 400;
}
);
unicode = 2020;
},
{
glyphname = daggerdbl;
layers = (
{
hints = (
{
place = "{153, 91}";
type = Stem;
},
{
place = "{162, 75}";
type = Stem;
},
{
horizontal = 1;
place = "{79, 86}";
type = Stem;
},
{
horizontal = 1;
place = "{476, 85}";
type = Stem;
},
{
horizontal = 1;
place = "{709, -20}";
target = down;
type = TopGhost;
}
);
layerId = "E376C904-BF5F-4CD7-8FD3-9BC68FA291DD";
paths = (
{
closed = 1;
nodes = (
"147 -60 LINE",
"252 -60 LINE",
"238 85 LINE",
"365 73 LINE",
"365 171 LINE",
"237 159 LINE",
"237 482 LINE",
"365 470 LINE",
"365 567 LINE",
"238 556 LINE",
"252 709 LINE",
"147 709 LINE",
"160 556 LINE",
"33 567 LINE",
"33 470 LINE",
"162 482 LINE",
"162 159 LINE",
"33 171 LINE",
"33 73 LINE",
"160 85 LINE"
);
}
);
width = 398;
}
);
unicode = 2021;
},
{
glyphname = circumflex;
layers = (
{
hints = (
{
horizontal = 1;
place = "{521, 178}";
type = Stem;
},
{
place = "{-6, 364}";
type = Stem;
}
);
layerId = "E376C904-BF5F-4CD7-8FD3-9BC68FA291DD";
paths = (
{
closed = 1;
nodes = (
"224 699 LINE",
"129 699 LINE",
"-6 521 LINE",
"115 521 LINE",
"176 585 LINE",
"239 521 LINE",
"358 521 LINE"
);
}
);
width = 351;
}
);
unicode = 02C6;
},
{
glyphname = perthousand;
layers = (
{
hints = (
{
place = "{28, 112}";
type = Stem;
},
{
place = "{270, 112}";
type = Stem;
},
{
place = "{481, 113}";
type = Stem;
},
{
place = "{723, 112}";
type = Stem;
},
{
place = "{873, 113}";
type = Stem;
},
{
place = "{1115, 112}";
type = Stem;
},
{
horizontal = 1;
place = "{-10, 101}";
type = Stem;
},
{
horizontal = 1;
place = "{0, 21}";
target = up;
type = BottomGhost;
},
{
horizontal = 1;
place = "{261, 101}";
type = Stem;
},
{
horizontal = 1;
place = "{337, 102}";
type = Stem;
},
{
horizontal = 1;
place = "{609, 101}";
type = Stem;
},
{
horizontal = 1;
place = "{700, -20}";
target = down;
type = TopGhost;
}
);
layerId = "E376C904-BF5F-4CD7-8FD3-9BC68FA291DD";
paths = (
{
closed = 1;
nodes = (
"382 626 OFFCURVE",
"313 710 OFFCURVE",
"206 710 CURVE SMOOTH",
"98 710 OFFCURVE",
"28 626 OFFCURVE",
"28 524 CURVE SMOOTH",
"28 423 OFFCURVE",
"97 337 OFFCURVE",
"205 337 CURVE SMOOTH",
"312 337 OFFCURVE",
"382 423 OFFCURVE",
"382 525 CURVE SMOOTH"
);
},
{
closed = 1;
nodes = (
"635 700 LINE",
"104 0 LINE",
"231 0 LINE",
"285 70 OFFCURVE",
"391 212 OFFCURVE",
"496 350 CURVE SMOOTH",
"601 488 OFFCURVE",
"708 628 OFFCURVE",
"762 700 CURVE"
);
},
{
closed = 1;
nodes = (
"270 476 OFFCURVE",
"243 439 OFFCURVE",
"206 439 CURVE SMOOTH",
"169 439 OFFCURVE",
"140 476 OFFCURVE",
"140 525 CURVE SMOOTH",
"140 573 OFFCURVE",
"165 609 OFFCURVE",
"204 609 CURVE SMOOTH",
"243 609 OFFCURVE",
"270 572 OFFCURVE",
"270 524 CURVE SMOOTH"
);
},
{
closed = 1;
nodes = (
"835 280 OFFCURVE",
"764 362 OFFCURVE",
"659 362 CURVE SMOOTH",
"552 362 OFFCURVE",
"481 280 OFFCURVE",
"481 176 CURVE SMOOTH",
"481 76 OFFCURVE",
"552 -10 OFFCURVE",
"658 -10 CURVE SMOOTH",
"765 -10 OFFCURVE",
"835 77 OFFCURVE",
"835 178 CURVE SMOOTH"
);
},
{
closed = 1;
nodes = (
"1227 280 OFFCURVE",
"1158 362 OFFCURVE",
"1051 362 CURVE SMOOTH",
"944 362 OFFCURVE",
"873 280 OFFCURVE",
"873 176 CURVE SMOOTH",
"873 76 OFFCURVE",
"945 -10 OFFCURVE",
"1050 -10 CURVE SMOOTH",
"1157 -10 OFFCURVE",
"1227 77 OFFCURVE",
"1227 178 CURVE SMOOTH"
);
},
{
closed = 1;
nodes = (
"723 128 OFFCURVE",
"698 91 OFFCURVE",
"659 91 CURVE SMOOTH",
"622 91 OFFCURVE",
"594 129 OFFCURVE",
"594 178 CURVE SMOOTH",
"594 226 OFFCURVE",
"618 261 OFFCURVE",
"658 261 CURVE SMOOTH",
"695 261 OFFCURVE",
"723 227 OFFCURVE",
"723 176 CURVE SMOOTH"
);
},
{
closed = 1;
nodes = (
"1115 128 OFFCURVE",
"1090 91 OFFCURVE",
"1051 91 CURVE SMOOTH",
"1014 91 OFFCURVE",
"986 129 OFFCURVE",
"986 178 CURVE SMOOTH",
"986 226 OFFCURVE",
"1010 261 OFFCURVE",
"1050 261 CURVE SMOOTH",
"1087 261 OFFCURVE",
"1115 227 OFFCURVE",
"1115 176 CURVE SMOOTH"
);
}
);
width = 1257;
}
);
unicode = 2030;
},
{
glyphname = guilsinglleft;
layers = (
{
hints = (
{
horizontal = 1;
place = "{37, 456}";
type = Stem;
},
{
place = "{28, 299}";
type = Stem;
}
);
layerId = "E376C904-BF5F-4CD7-8FD3-9BC68FA291DD";
paths = (
{
closed = 1;
nodes = (
"197 265 LINE",
"327 438 LINE",
"198 493 LINE",
"28 264 LINE",
"197 37 LINE",
"327 93 LINE"
);
}
);
width = 350;
}
);
unicode = 2039;
},
{
glyphname = quoteleft;
layers = (
{
hints = (
{
horizontal = 1;
place = "{705, -20}";
target = down;
type = TopGhost;
},
{
place = "{26, 225}";
type = Stem;
}
);
layerId = "E376C904-BF5F-4CD7-8FD3-9BC68FA291DD";
paths = (
{
closed = 1;
nodes = (
"26 363 LINE",
"205 363 LINE",
"251 705 LINE",
"132 705 LINE"
);
}
);
width = 273;
}
);
unicode = 2018;
},
{
glyphname = quoteright;
layers = (
{
hints = (
{
horizontal = 1;
place = "{701, -20}";
target = down;
type = TopGhost;
},
{
place = "{25, 225}";
type = Stem;
}
);
layerId = "E376C904-BF5F-4CD7-8FD3-9BC68FA291DD";
paths = (
{
closed = 1;
nodes = (
"250 701 LINE",
"71 701 LINE",
"25 358 LINE",
"144 358 LINE"
);
}
);
width = 273;
}
);
unicode = 2019;
},
{
glyphname = quotedblleft;
layers = (
{
hints = (
{
place = "{25, 474}";
type = Stem;
},
{
horizontal = 1;
place = "{363, 342}";
type = Stem;
},
{
horizontal = 1;
place = "{705, -20}";
target = down;
type = TopGhost;
}
);
layerId = "E376C904-BF5F-4CD7-8FD3-9BC68FA291DD";
paths = (
{
closed = 1;
nodes = (
"25 363 LINE",
"204 363 LINE",
"250 705 LINE",
"131 705 LINE"
);
},
{
closed = 1;
nodes = (
"275 363 LINE",
"454 363 LINE",
"499 705 LINE",
"381 705 LINE"
);
}
);
width = 520;
}
);
unicode = 201C;
},
{
glyphname = quotedblright;
layers = (
{
hints = (
{
place = "{24, 473}";
type = Stem;
},
{
horizontal = 1;
place = "{358, 343}";
type = Stem;
},
{
horizontal = 1;
place = "{701, -20}";
target = down;
type = TopGhost;
}
);
layerId = "E376C904-BF5F-4CD7-8FD3-9BC68FA291DD";
paths = (
{
closed = 1;
nodes = (
"248 701 LINE",
"69 701 LINE",
"24 358 LINE",
"142 358 LINE"
);
},
{
closed = 1;
nodes = (
"497 701 LINE",
"319 701 LINE",
"273 358 LINE",
"392 358 LINE"
);
}
);
width = 520;
}
);
unicode = 201D;
},
{
glyphname = bullet;
layers = (
{
hints = (
{
horizontal = 1;
place = "{187, 331}";
type = Stem;
},
{
place = "{40, 331}";
type = Stem;
}
);
layerId = "E376C904-BF5F-4CD7-8FD3-9BC68FA291DD";
paths = (
{
closed = 1;
nodes = (
"40 261 OFFCURVE",
"116 187 OFFCURVE",
"206 187 CURVE SMOOTH",
"297 187 OFFCURVE",
"371 261 OFFCURVE",
"371 352 CURVE SMOOTH",
"371 444 OFFCURVE",
"297 518 OFFCURVE",
"206 518 CURVE SMOOTH",
"116 518 OFFCURVE",
"40 442 OFFCURVE",
"40 351 CURVE SMOOTH"
);
}
);
width = 412;
}
);
unicode = 2022;
},
{
glyphname = endash;
layers = (
{
hints = (
{
horizontal = 1;
place = "{234, 148}";
type = Stem;
},
{
place = "{31, 446}";
type = Stem;
}
);
layerId = "E376C904-BF5F-4CD7-8FD3-9BC68FA291DD";
paths = (
{
closed = 1;
nodes = (
"477 382 LINE",
"31 382 LINE",
"31 234 LINE",
"477 234 LINE"
);
}
);
width = 509;
}
);
unicode = 2013;
},
{
glyphname = emdash;
layers = (
{
hints = (
{
horizontal = 1;
place = "{234, 148}";
type = Stem;
},
{
place = "{31, 796}";
type = Stem;
}
);
layerId = "E376C904-BF5F-4CD7-8FD3-9BC68FA291DD";
paths = (
{
closed = 1;
nodes = (
"827 382 LINE",
"31 382 LINE",
"31 234 LINE",
"827 234 LINE"
);
}
);
width = 858;
}
);
unicode = 2014;
},
{
glyphname = tilde;
layers = (
{
hints = (
{
place = "{1, 370}";
type = Stem;
},
{
horizontal = 1;
place = "{529, 110}";
type = Stem;
},
{
horizontal = 1;
place = "{534, -20}";
target = down;
type = TopGhost;
},
{
horizontal = 1;
place = "{564, 111}";
type = Stem;
}
);
layerId = "E376C904-BF5F-4CD7-8FD3-9BC68FA291DD";
paths = (
{
closed = 1;
nodes = (
"96 517 LINE",
"107 553 OFFCURVE",
"118 564 OFFCURVE",
"134 564 CURVE SMOOTH",
"163 564 OFFCURVE",
"204 529 OFFCURVE",
"250 529 CURVE SMOOTH",
"311 529 OFFCURVE",
"348 584 OFFCURVE",
"371 667 CURVE",
"277 684 LINE",
"269 652 OFFCURVE",
"259 639 OFFCURVE",
"244 639 CURVE SMOOTH",
"216 639 OFFCURVE",
"172 675 OFFCURVE",
"124 675 CURVE SMOOTH",
"63 675 OFFCURVE",
"24 617 OFFCURVE",
"1 534 CURVE"
);
}
);
width = 370;
}
);
unicode = 02DC;
},
{
glyphname = trademark;
layers = (
{
hints = (
{
horizontal = 1;
place = "{601, 105}";
type = Stem;
},
{
place = "{151, 113}";
type = Stem;
},
{
place = "{424, 113}";
type = Stem;
},
{
place = "{774, 113}";
type = Stem;
}
);
layerId = "E376C904-BF5F-4CD7-8FD3-9BC68FA291DD";
paths = (
{
closed = 1;
nodes = (
"387 706 LINE",
"27 706 LINE",
"27 601 LINE",
"151 601 LINE",
"151 292 LINE",
"264 292 LINE",
"264 601 LINE",
"387 601 LINE"
);
},
{
closed = 1;
nodes = (
"887 706 LINE",
"755 706 LINE",
"657 488 LINE",
"559 706 LINE",
"424 706 LINE",
"424 292 LINE",
"537 292 LINE",
"537 484 LINE",
"620 292 LINE",
"691 292 LINE",
"774 483 LINE",
"774 292 LINE",
"887 292 LINE"
);
}
);
width = 898;
}
);
unicode = 2122;
},
{
glyphname = guilsinglright;
layers = (
{
hints = (
{
horizontal = 1;
place = "{37, 456}";
type = Stem;
},
{
place = "{23, 300}";
type = Stem;
}
);
layerId = "E376C904-BF5F-4CD7-8FD3-9BC68FA291DD";
paths = (
{
closed = 1;
nodes = (
"24 93 LINE",
"153 37 LINE",
"323 264 LINE",
"152 493 LINE",
"23 438 LINE",
"153 265 LINE"
);
}
);
width = 350;
}
);
unicode = 203A;
},
{
glyphname = exclamdown;
layers = (
{
hints = (
{
place = "{46, 199}";
type = Stem;
},
{
place = "{47, 195}";
type = Stem;
},
{
horizontal = 1;
place = "{-15, 21}";
target = up;
type = BottomGhost;
},
{
horizontal = 1;
place = "{518, 180}";
type = Stem;
}
);
layerId = "E376C904-BF5F-4CD7-8FD3-9BC68FA291DD";
paths = (
{
closed = 1;
nodes = (
"245 667 OFFCURVE",
"201 698 OFFCURVE",
"146 698 CURVE SMOOTH",
"90 698 OFFCURVE",
"46 667 OFFCURVE",
"46 608 CURVE SMOOTH",
"46 549 OFFCURVE",
"90 518 OFFCURVE",
"146 518 CURVE SMOOTH",
"201 518 OFFCURVE",
"245 549 OFFCURVE",
"245 608 CURVE SMOOTH"
);
},
{
closed = 1;
nodes = (
"243 -15 LINE",
"242 77 LINE",
"191 462 LINE",
"99 462 LINE",
"48 77 LINE",
"47 -15 LINE"
);
}
);
width = 288;
}
);
unicode = 00A1;
},
{
glyphname = cent;
layers = (
{
hints = (
{
horizontal = 1;
place = "{-7, 21}";
target = up;
type = BottomGhost;
},
{
horizontal = 1;
place = "{75, 133}";
type = Stem;
},
{
place = "{81, 151}";
type = Stem;
},
{
place = "{430, 79}";
type = Stem;
}
);
layerId = "E376C904-BF5F-4CD7-8FD3-9BC68FA291DD";
paths = (
{
closed = 1;
nodes = (
"509 589 LINE",
"493 598 OFFCURVE",
"477 606 OFFCURVE",
"461 611 CURVE",
"475 698 LINE",
"368 698 LINE",
"357 626 LINE",
"194 623 OFFCURVE",
"81 505 OFFCURVE",
"81 349 CURVE SMOOTH",
"81 228 OFFCURVE",
"156 127 OFFCURVE",
"267 90 CURVE",
"251 -7 LINE",
"358 -7 LINE",
"371 75 LINE",
"427 76 OFFCURVE",
"473 91 OFFCURVE",
"512 116 CURVE",
"512 268 LINE",
"483 236 OFFCURVE",
"437 208 OFFCURVE",
"384 208 CURVE",
"430 488 LINE",
"458 483 OFFCURVE",
"486 465 OFFCURVE",
"509 438 CURVE"
);
},
{
closed = 1;
nodes = (
"297 224 LINE",
"256 248 OFFCURVE",
"232 291 OFFCURVE",
"232 350 CURVE SMOOTH",
"232 429 OFFCURVE",
"274 484 OFFCURVE",
"341 493 CURVE"
);
}
);
width = 594;
}
);
unicode = 00A2;
},
{
glyphname = sterling;
layers = (
{
hints = (
{
horizontal = 1;
place = "{0, 140}";
type = Stem;
},
{
horizontal = 1;
place = "{270, 125}";
type = Stem;
},
{
horizontal = 1;
place = "{556, 157}";
type = Stem;
},
{
place = "{126, 175}";
type = Stem;
}
);
layerId = "E376C904-BF5F-4CD7-8FD3-9BC68FA291DD";
paths = (
{
closed = 1;
nodes = (
"523 395 LINE",
"301 395 LINE",
"301 454 LINE SMOOTH",
"301 515 OFFCURVE",
"333 556 OFFCURVE",
"391 556 CURVE SMOOTH",
"428 556 OFFCURVE",
"459 541 OFFCURVE",
"491 506 CURVE",
"607 613 LINE",
"556 672 OFFCURVE",
"485 713 OFFCURVE",
"380 713 CURVE SMOOTH",
"218 713 OFFCURVE",
"126 611 OFFCURVE",
"126 454 CURVE SMOOTH",
"126 395 LINE",
"52 395 LINE",
"52 270 LINE",
"126 270 LINE",
"126 0 LINE",
"600 0 LINE",
"600 140 LINE",
"301 140 LINE",
"301 270 LINE",
"523 270 LINE"
);
}
);
width = 658;
}
);
unicode = 00A3;
},
{
glyphname = currency;
layers = (
{
hints = (
{
horizontal = 1;
place = "{70, 108}";
type = Stem;
},
{
horizontal = 1;
place = "{480, 108}";
type = Stem;
},
{
place = "{68, 117}";
type = Stem;
},
{
place = "{473, 118}";
type = Stem;
}
);
layerId = "E376C904-BF5F-4CD7-8FD3-9BC68FA291DD";
paths = (
{
closed = 1;
nodes = (
"564 637 LINE",
"472 547 LINE",
"432 574 OFFCURVE",
"384 588 OFFCURVE",
"329 588 CURVE SMOOTH",
"273 588 OFFCURVE",
"229 574 OFFCURVE",
"185 546 CURVE",
"91 637 LINE",
"18 562 LINE",
"109 471 LINE",
"78 427 OFFCURVE",
"68 380 OFFCURVE",
"68 329 CURVE SMOOTH",
"68 274 OFFCURVE",
"83 226 OFFCURVE",
"111 186 CURVE",
"18 91 LINE",
"91 17 LINE",
"188 111 LINE",
"232 84 OFFCURVE",
"278 70 OFFCURVE",
"329 70 CURVE SMOOTH",
"382 70 OFFCURVE",
"428 85 OFFCURVE",
"471 110 CURVE",
"565 17 LINE",
"639 91 LINE",
"547 183 LINE",
"576 226 OFFCURVE",
"591 273 OFFCURVE",
"591 329 CURVE SMOOTH",
"591 385 OFFCURVE",
"576 428 OFFCURVE",
"549 472 CURVE",
"639 562 LINE"
);
},
{
closed = 1;
nodes = (
"416 480 OFFCURVE",
"473 412 OFFCURVE",
"473 329 CURVE SMOOTH",
"473 246 OFFCURVE",
"416 178 OFFCURVE",
"329 178 CURVE SMOOTH",
"244 178 OFFCURVE",
"185 246 OFFCURVE",
"185 329 CURVE SMOOTH",
"185 412 OFFCURVE",
"244 480 OFFCURVE",
"329 480 CURVE SMOOTH"
);
}
);
width = 655;
}
);
unicode = 00A4;
},
{
glyphname = yen;
layers = (
{
hints = (
{
place = "{254, 173}";
type = Stem;
},
{
horizontal = 1;
place = "{0, 213}";
type = Stem;
},
{
horizontal = 1;
place = "{102, 111}";
type = Stem;
},
{
horizontal = 1;
place = "{270, 111}";
type = Stem;
},
{
horizontal = 1;
place = "{701, -20}";
target = down;
type = TopGhost;
}
);
layerId = "E376C904-BF5F-4CD7-8FD3-9BC68FA291DD";
paths = (
{
closed = 1;
nodes = (
"69 213 LINE",
"69 102 LINE",
"254 102 LINE",
"254 0 LINE",
"427 0 LINE",
"427 102 LINE",
"611 102 LINE",
"611 213 LINE",
"427 213 LINE",
"437 270 LINE",
"611 270 LINE",
"611 381 LINE",
"471 381 LINE",
"681 701 LINE",
"485 701 LINE",
"342 454 LINE",
"199 701 LINE",
"-1 701 LINE",
"209 381 LINE",
"69 381 LINE",
"69 270 LINE",
"244 270 LINE",
"254 213 LINE"
);
}
);
width = 680;
}
);
unicode = 00A5;
},
{
glyphname = brokenbar;
layers = (
{
hints = (
{
place = "{93, 151}";
type = Stem;
},
{
horizontal = 1;
place = "{-173, 346}";
type = Stem;
},
{
horizontal = 1;
place = "{-173, 842}";
type = Stem;
},
{
horizontal = 1;
place = "{322, 347}";
type = Stem;
}
);
layerId = "E376C904-BF5F-4CD7-8FD3-9BC68FA291DD";
paths = (
{
closed = 1;
nodes = (
"93 669 LINE",
"93 322 LINE",
"244 322 LINE",
"244 669 LINE"
);
},
{
closed = 1;
nodes = (
"93 173 LINE",
"93 -173 LINE",
"244 -173 LINE",
"244 173 LINE"
);
}
);
width = 338;
}
);
unicode = 00A6;
},
{
glyphname = section;
layers = (
{
hints = (
{
place = "{45, 134}";
type = Stem;
},
{
place = "{90, 158}";
type = Stem;
},
{
place = "{372, 158}";
type = Stem;
},
{
place = "{440, 135}";
type = Stem;
},
{
horizontal = 1;
place = "{-25, 119}";
type = Stem;
},
{
horizontal = 1;
place = "{596, 119}";
type = Stem;
}
);
layerId = "E376C904-BF5F-4CD7-8FD3-9BC68FA291DD";
paths = (
{
closed = 1;
nodes = (
"473 679 LINE",
"428 702 OFFCURVE",
"374 715 OFFCURVE",
"313 715 CURVE SMOOTH",
"167 715 OFFCURVE",
"90 645 OFFCURVE",
"90 557 CURVE SMOOTH",
"90 514 OFFCURVE",
"110 477 OFFCURVE",
"142 453 CURVE",
"83 434 OFFCURVE",
"45 396 OFFCURVE",
"45 343 CURVE SMOOTH",
"45 263 OFFCURVE",
"139 218 OFFCURVE",
"266 191 CURVE",
"339 174 OFFCURVE",
"372 155 OFFCURVE",
"372 132 CURVE SMOOTH",
"372 108 OFFCURVE",
"353 94 OFFCURVE",
"310 94 CURVE SMOOTH",
"254 94 OFFCURVE",
"195 116 OFFCURVE",
"146 155 CURVE",
"146 11 LINE",
"190 -12 OFFCURVE",
"247 -25 OFFCURVE",
"307 -25 CURVE SMOOTH",
"453 -25 OFFCURVE",
"530 46 OFFCURVE",
"530 135 CURVE SMOOTH",
"530 176 OFFCURVE",
"511 213 OFFCURVE",
"479 237 CURVE",
"536 257 OFFCURVE",
"575 294 OFFCURVE",
"575 347 CURVE SMOOTH",
"575 430 OFFCURVE",
"483 468 OFFCURVE",
"354 500 CURVE",
"275 521 OFFCURVE",
"248 537 OFFCURVE",
"248 559 CURVE SMOOTH",
"248 583 OFFCURVE",
"269 596 OFFCURVE",
"310 596 CURVE SMOOTH",
"367 596 OFFCURVE",
"422 572 OFFCURVE",
"473 536 CURVE"
);
},
{
closed = 1;
nodes = (
"440 301 OFFCURVE",
"417 284 OFFCURVE",
"381 284 CURVE",
"319 287 OFFCURVE",
"179 314 OFFCURVE",
"179 367 CURVE SMOOTH",
"179 392 OFFCURVE",
"203 406 OFFCURVE",
"238 407 CURVE",
"291 404 OFFCURVE",
"440 371 OFFCURVE",
"440 325 CURVE SMOOTH"
);
}
);
width = 617;
}
);
unicode = 00A7;
},
{
glyphname = dieresis;
layers = (
{
hints = (
{
horizontal = 1;
place = "{564, 162}";
type = Stem;
},
{
place = "{-34, 167}";
type = Stem;
},
{
place = "{187, 166}";
type = Stem;
}
);
layerId = "E376C904-BF5F-4CD7-8FD3-9BC68FA291DD";
paths = (
{
closed = 1;
nodes = (
"-34 593 OFFCURVE",
"2 564 OFFCURVE",
"49 564 CURVE SMOOTH",
"96 564 OFFCURVE",
"133 593 OFFCURVE",
"133 646 CURVE SMOOTH",
"133 698 OFFCURVE",
"96 726 OFFCURVE",
"49 726 CURVE SMOOTH",
"2 726 OFFCURVE",
"-34 698 OFFCURVE",
"-34 646 CURVE SMOOTH"
);
},
{
closed = 1;
nodes = (
"187 593 OFFCURVE",
"224 564 OFFCURVE",
"269 564 CURVE SMOOTH",
"317 564 OFFCURVE",
"353 593 OFFCURVE",
"353 646 CURVE SMOOTH",
"353 698 OFFCURVE",
"317 726 OFFCURVE",
"269 726 CURVE SMOOTH",
"224 726 OFFCURVE",
"187 698 OFFCURVE",
"187 646 CURVE SMOOTH"
);
}
);
width = 320;
}
);
unicode = 00A8;
},
{
glyphname = copyright;
layers = (
{
hints = (
{
place = "{33, 46}";
type = Stem;
},
{
place = "{201, 122}";
type = Stem;
},
{
place = "{721, 46}";
type = Stem;
},
{
horizontal = 1;
place = "{-22, 45}";
type = Stem;
},
{
horizontal = 1;
place = "{147, 106}";
type = Stem;
},
{
horizontal = 1;
place = "{450, 106}";
type = Stem;
},
{
horizontal = 1;
place = "{532, -20}";
target = down;
type = TopGhost;
},
{
horizontal = 1;
place = "{671, 45}";
type = Stem;
}
);
layerId = "E376C904-BF5F-4CD7-8FD3-9BC68FA291DD";
paths = (
{
closed = 1;
nodes = (
"605 -22 OFFCURVE",
"767 148 OFFCURVE",
"767 349 CURVE SMOOTH",
"767 550 OFFCURVE",
"605 716 OFFCURVE",
"401 716 CURVE SMOOTH",
"196 716 OFFCURVE",
"33 547 OFFCURVE",
"33 348 CURVE SMOOTH",
"33 147 OFFCURVE",
"194 -22 OFFCURVE",
"399 -22 CURVE SMOOTH"
);
},
{
closed = 1;
nodes = (
"218 23 OFFCURVE",
"79 170 OFFCURVE",
"79 348 CURVE SMOOTH",
"79 524 OFFCURVE",
"218 671 OFFCURVE",
"401 671 CURVE SMOOTH",
"582 671 OFFCURVE",
"721 527 OFFCURVE",
"721 349 CURVE SMOOTH",
"721 170 OFFCURVE",
"582 23 OFFCURVE",
"399 23 CURVE SMOOTH"
);
},
{
closed = 1;
nodes = (
"515 292 LINE",
"490 269 OFFCURVE",
"457 253 OFFCURVE",
"420 253 CURVE SMOOTH",
"367 253 OFFCURVE",
"323 297 OFFCURVE",
"323 352 CURVE SMOOTH",
"323 407 OFFCURVE",
"367 450 OFFCURVE",
"422 450 CURVE SMOOTH",
"458 450 OFFCURVE",
"490 432 OFFCURVE",
"513 411 CURVE",
"513 532 LINE",
"488 547 OFFCURVE",
"454 556 OFFCURVE",
"417 556 CURVE SMOOTH",
"294 556 OFFCURVE",
"201 464 OFFCURVE",
"201 352 CURVE SMOOTH",
"201 242 OFFCURVE",
"295 147 OFFCURVE",
"411 147 CURVE SMOOTH",
"455 147 OFFCURVE",
"490 160 OFFCURVE",
"515 175 CURVE"
);
}
);
width = 799;
}
);
unicode = 00A9;
},
{
glyphname = ordfeminine;
layers = (
{
hints = (
{
horizontal = 1;
place = "{274, 72}";
type = Stem;
},
{
horizontal = 1;
place = "{406, 56}";
type = Stem;
},
{
horizontal = 1;
place = "{538, 48}";
type = Stem;
},
{
horizontal = 1;
place = "{631, 75}";
type = Stem;
},
{
place = "{37, 93}";
type = Stem;
},
{
place = "{227, 95}";
type = Stem;
}
);
layerId = "E376C904-BF5F-4CD7-8FD3-9BC68FA291DD";
paths = (
{
closed = 1;
nodes = (
"177 400 OFFCURVE",
"207 415 OFFCURVE",
"227 439 CURVE",
"227 406 LINE",
"322 406 LINE",
"322 576 LINE SMOOTH",
"322 661 OFFCURVE",
"277 706 OFFCURVE",
"180 706 CURVE SMOOTH",
"133 706 OFFCURVE",
"97 697 OFFCURVE",
"62 682 CURVE",
"82 613 LINE",
"109 625 OFFCURVE",
"136 631 OFFCURVE",
"165 631 CURVE SMOOTH",
"208 631 OFFCURVE",
"228 612 OFFCURVE",
"228 579 CURVE SMOOTH",
"228 574 LINE",
"209 581 OFFCURVE",
"184 586 OFFCURVE",
"155 586 CURVE SMOOTH",
"84 586 OFFCURVE",
"37 555 OFFCURVE",
"37 492 CURVE SMOOTH",
"37 432 OFFCURVE",
"84 400 OFFCURVE",
"138 400 CURVE SMOOTH"
);
},
{
closed = 1;
nodes = (
"147 462 OFFCURVE",
"130 477 OFFCURVE",
"130 498 CURVE SMOOTH",
"130 522 OFFCURVE",
"150 538 OFFCURVE",
"182 538 CURVE SMOOTH",
"201 538 OFFCURVE",
"216 533 OFFCURVE",
"229 528 CURVE",
"229 514 LINE SMOOTH",
"229 482 OFFCURVE",
"200 462 OFFCURVE",
"171 462 CURVE SMOOTH"
);
},
{
closed = 1;
nodes = (
"34 274 LINE",
"327 274 LINE",
"327 346 LINE",
"34 346 LINE"
);
}
);
width = 365;
}
);
unicode = 00AA;
},
{
glyphname = guillemotleft;
layers = (
{
hints = (
{
horizontal = 1;
place = "{37, 456}";
type = Stem;
},
{
place = "{28, 563}";
type = Stem;
}
);
layerId = "E376C904-BF5F-4CD7-8FD3-9BC68FA291DD";
paths = (
{
closed = 1;
nodes = (
"197 265 LINE",
"327 438 LINE",
"198 493 LINE",
"28 264 LINE",
"197 37 LINE",
"327 93 LINE"
);
},
{
closed = 1;
nodes = (
"461 265 LINE",
"591 438 LINE",
"462 493 LINE",
"292 264 LINE",
"461 37 LINE",
"591 93 LINE"
);
}
);
width = 614;
}
);
unicode = 00AB;
},
{
glyphname = logicalnot;
layers = (
{
hints = (
{
horizontal = 1;
place = "{287, 127}";
type = Stem;
},
{
place = "{433, 134}";
type = Stem;
}
);
layerId = "E376C904-BF5F-4CD7-8FD3-9BC68FA291DD";
paths = (
{
closed = 1;
nodes = (
"567 414 LINE",
"42 414 LINE",
"42 287 LINE",
"433 287 LINE",
"433 125 LINE",
"567 125 LINE"
);
}
);
width = 609;
}
);
unicode = 00AC;
},
{
glyphname = registered;
layers = (
{
hints = (
{
horizontal = 1;
place = "{-10, 44}";
type = Stem;
},
{
horizontal = 1;
place = "{294, 80}";
type = Stem;
},
{
horizontal = 1;
place = "{471, 87}";
type = Stem;
},
{
horizontal = 1;
place = "{673, 43}";
type = Stem;
},
{
place = "{56, 46}";
type = Stem;
},
{
place = "{264, 101}";
type = Stem;
},
{
place = "{494, 100}";
type = Stem;
},
{
place = "{734, 46}";
type = Stem;
}
);
layerId = "E376C904-BF5F-4CD7-8FD3-9BC68FA291DD";
paths = (
{
closed = 1;
nodes = (
"56 155 OFFCURVE",
"216 -10 OFFCURVE",
"418 -10 CURVE SMOOTH",
"620 -10 OFFCURVE",
"780 157 OFFCURVE",
"780 354 CURVE SMOOTH",
"780 551 OFFCURVE",
"621 716 OFFCURVE",
"420 716 CURVE SMOOTH",
"217 716 OFFCURVE",
"56 551 OFFCURVE",
"56 354 CURVE SMOOTH"
);
},
{
closed = 1;
nodes = (
"102 528 OFFCURVE",
"240 673 OFFCURVE",
"420 673 CURVE SMOOTH",
"597 673 OFFCURVE",
"734 530 OFFCURVE",
"734 355 CURVE SMOOTH",
"734 180 OFFCURVE",
"598 34 OFFCURVE",
"418 34 CURVE SMOOTH",
"239 34 OFFCURVE",
"102 177 OFFCURVE",
"102 352 CURVE SMOOTH"
);
},
{
closed = 1;
nodes = (
"264 166 LINE",
"365 166 LINE",
"365 294 LINE",
"407 294 LINE",
"495 166 LINE",
"612 166 LINE",
"510 309 LINE",
"558 331 OFFCURVE",
"594 370 OFFCURVE",
"594 428 CURVE SMOOTH",
"594 505 OFFCURVE",
"539 558 OFFCURVE",
"437 558 CURVE SMOOTH",
"264 558 LINE"
);
},
{
closed = 1;
nodes = (
"365 374 LINE",
"365 471 LINE",
"432 471 LINE SMOOTH",
"471 471 OFFCURVE",
"494 450 OFFCURVE",
"494 423 CURVE SMOOTH",
"494 395 OFFCURVE",
"469 374 OFFCURVE",
"433 374 CURVE SMOOTH"
);
}
);
width = 836;
}
);
unicode = 00AE;
},
{
glyphname = degree;
layers = (
{
hints = (
{
horizontal = 1;
place = "{364, 85}";
type = Stem;
},
{
horizontal = 1;
place = "{622, 86}";
type = Stem;
},
{
place = "{27, 91}";
type = Stem;
},
{
place = "{288, 91}";
type = Stem;
}
);
layerId = "E376C904-BF5F-4CD7-8FD3-9BC68FA291DD";
paths = (
{
closed = 1;
nodes = (
"379 630 OFFCURVE",
"296 708 OFFCURVE",
"203 708 CURVE SMOOTH",
"110 708 OFFCURVE",
"27 630 OFFCURVE",
"27 536 CURVE SMOOTH",
"27 442 OFFCURVE",
"107 364 OFFCURVE",
"203 364 CURVE SMOOTH",
"299 364 OFFCURVE",
"379 442 OFFCURVE",
"379 536 CURVE SMOOTH"
);
},
{
closed = 1;
nodes = (
"288 488 OFFCURVE",
"251 449 OFFCURVE",
"203 449 CURVE SMOOTH",
"154 449 OFFCURVE",
"118 489 OFFCURVE",
"118 536 CURVE SMOOTH",
"118 585 OFFCURVE",
"155 622 OFFCURVE",
"203 622 CURVE SMOOTH",
"250 622 OFFCURVE",
"288 584 OFFCURVE",
"288 536 CURVE SMOOTH"
);
}
);
width = 407;
}
);
unicode = 00B0;
},
{
glyphname = plusminus;
layers = (
{
hints = (
{
horizontal = 1;
place = "{6, 119}";
type = Stem;
},
{
horizontal = 1;
place = "{326, 119}";
type = Stem;
},
{
place = "{221, 122}";
type = Stem;
}
);
layerId = "E376C904-BF5F-4CD7-8FD3-9BC68FA291DD";
paths = (
{
closed = 1;
nodes = (
"42 326 LINE",
"221 326 LINE",
"221 174 LINE",
"343 174 LINE",
"343 326 LINE",
"520 326 LINE",
"520 445 LINE",
"343 445 LINE",
"343 592 LINE",
"221 592 LINE",
"221 445 LINE",
"42 445 LINE"
);
},
{
closed = 1;
nodes = (
"42 6 LINE",
"520 6 LINE",
"520 125 LINE",
"42 125 LINE"
);
}
);
width = 561;
}
);
unicode = 00B1;
},
{
glyphname = acute;
layers = (
{
hints = (
{
horizontal = 1;
place = "{711, -20}";
target = down;
type = TopGhost;
},
{
place = "{74, 265}";
type = Stem;
}
);
layerId = "E376C904-BF5F-4CD7-8FD3-9BC68FA291DD";
paths = (
{
closed = 1;
nodes = (
"339 711 LINE",
"175 762 LINE",
"74 583 LINE",
"195 583 LINE"
);
}
);
width = 333;
}
);
unicode = 00B4;
},
{
glyphname = paragraph;
layers = (
{
hints = (
{
horizontal = 1;
place = "{608, 98}";
type = Stem;
},
{
place = "{216, 106}";
type = Stem;
},
{
place = "{390, 106}";
type = Stem;
}
);
layerId = "E376C904-BF5F-4CD7-8FD3-9BC68FA291DD";
paths = (
{
closed = 1;
nodes = (
"322 -112 LINE",
"322 608 LINE",
"390 608 LINE",
"390 -112 LINE",
"496 -112 LINE",
"496 608 LINE",
"548 608 LINE",
"555 706 LINE",
"256 706 LINE SMOOTH",
"112 706 OFFCURVE",
"31 630 OFFCURVE",
"31 507 CURVE SMOOTH",
"31 395 OFFCURVE",
"111 330 OFFCURVE",
"216 317 CURVE",
"216 -112 LINE"
);
}
);
width = 628;
}
);
unicode = 00B6;
},
{
glyphname = cedilla;
layers = (
{
hints = (
{
horizontal = 1;
place = "{-220, 63}";
type = Stem;
},
{
horizontal = 1;
place = "{-99, 52}";
type = Stem;
},
{
place = "{194, 82}";
type = Stem;
}
);
layerId = "E376C904-BF5F-4CD7-8FD3-9BC68FA291DD";
paths = (
{
closed = 1;
nodes = (
"221 22 LINE",
"152 22 LINE",
"83 -85 LINE",
"112 -109 LINE",
"127 -102 OFFCURVE",
"140 -99 OFFCURVE",
"155 -99 CURVE SMOOTH",
"179 -99 OFFCURVE",
"194 -109 OFFCURVE",
"194 -125 CURVE SMOOTH",
"194 -149 OFFCURVE",
"159 -157 OFFCURVE",
"139 -157 CURVE SMOOTH",
"120 -157 OFFCURVE",
"96 -153 OFFCURVE",
"71 -142 CURVE",
"47 -195 LINE",
"80 -212 OFFCURVE",
"116 -220 OFFCURVE",
"151 -220 CURVE SMOOTH",
"205 -220 OFFCURVE",
"276 -198 OFFCURVE",
"276 -126 CURVE SMOOTH",
"276 -71 OFFCURVE",
"229 -47 OFFCURVE",
"186 -47 CURVE SMOOTH",
"179 -47 LINE"
);
}
);
width = 326;
}
);
unicode = 00B8;
},
{
glyphname = ordmasculine;
layers = (
{
hints = (
{
place = "{26, 94}";
type = Stem;
},
{
place = "{41, 288}";
type = Stem;
},
{
place = "{251, 94}";
type = Stem;
},
{
horizontal = 1;
place = "{274, 72}";
type = Stem;
},
{
horizontal = 1;
place = "{398, 82}";
type = Stem;
},
{
horizontal = 1;
place = "{623, 83}";
type = Stem;
}
);
layerId = "E376C904-BF5F-4CD7-8FD3-9BC68FA291DD";
paths = (
{
closed = 1;
nodes = (
"277 398 OFFCURVE",
"345 467 OFFCURVE",
"345 553 CURVE SMOOTH",
"345 637 OFFCURVE",
"278 706 OFFCURVE",
"186 706 CURVE SMOOTH",
"94 706 OFFCURVE",
"26 635 OFFCURVE",
"26 552 CURVE SMOOTH",
"26 467 OFFCURVE",
"93 398 OFFCURVE",
"184 398 CURVE SMOOTH"
);
},
{
closed = 1;
nodes = (
"147 480 OFFCURVE",
"120 513 OFFCURVE",
"120 553 CURVE SMOOTH",
"120 592 OFFCURVE",
"145 623 OFFCURVE",
"184 623 CURVE SMOOTH",
"224 623 OFFCURVE",
"251 591 OFFCURVE",
"251 552 CURVE SMOOTH",
"251 512 OFFCURVE",
"226 480 OFFCURVE",
"186 480 CURVE SMOOTH"
);
},
{
closed = 1;
nodes = (
"41 274 LINE",
"329 274 LINE",
"329 346 LINE",
"41 346 LINE"
);
}
);
width = 372;
}
);
unicode = 00BA;
},
{
glyphname = guillemotright;
layers = (
{
hints = (
{
horizontal = 1;
place = "{37, 456}";
type = Stem;
},
{
place = "{24, 564}";
type = Stem;
}
);
layerId = "E376C904-BF5F-4CD7-8FD3-9BC68FA291DD";
paths = (
{
closed = 1;
nodes = (
"24 93 LINE",
"154 37 LINE",
"323 264 LINE",
"153 493 LINE",
"24 438 LINE",
"154 265 LINE"
);
},
{
closed = 1;
nodes = (
"289 93 LINE",
"419 37 LINE",
"588 264 LINE",
"418 493 LINE",
"289 438 LINE",
"419 265 LINE"
);
}
);
width = 617;
}
);
unicode = 00BB;
},
{
glyphname = onequarter;
layers = (
{
hints = (
{
horizontal = 1;
place = "{-2, 21}";
target = up;
type = BottomGhost;
},
{
horizontal = 1;
place = "{0, 21}";
target = up;
type = BottomGhost;
},
{
horizontal = 1;
place = "{77, 83}";
type = Stem;
},
{
horizontal = 1;
place = "{705, -20}";
target = down;
type = TopGhost;
},
{
horizontal = 1;
place = "{708, -20}";
target = down;
type = TopGhost;
},
{
place = "{100, 118}";
type = Stem;
},
{
place = "{698, 110}";
type = Stem;
}
);
layerId = "E376C904-BF5F-4CD7-8FD3-9BC68FA291DD";
paths = (
{
closed = 1;
nodes = (
"170 -2 LINE",
"248 -20 LINE",
"678 705 LINE",
"600 723 LINE"
);
},
{
closed = 1;
nodes = (
"100 284 LINE",
"218 284 LINE",
"218 708 LINE",
"134 706 LINE",
"96 701 OFFCURVE",
"53 696 OFFCURVE",
"36 690 CURVE",
"36 594 LINE",
"60 597 OFFCURVE",
"75 600 OFFCURVE",
"100 605 CURVE"
);
},
{
closed = 1;
nodes = (
"486 77 LINE",
"558 77 OFFCURVE",
"627 78 OFFCURVE",
"698 78 CURVE",
"696 0 LINE",
"808 0 LINE",
"806 78 LINE",
"823 78 OFFCURVE",
"839 77 OFFCURVE",
"856 77 CURVE",
"859 163 LINE",
"808 161 LINE",
"808 427 LINE",
"684 427 LINE",
"486 143 LINE"
);
},
{
closed = 1;
nodes = (
"606 160 LINE",
"638 207 OFFCURVE",
"675 258 OFFCURVE",
"699 301 CURVE",
"700 300 OFFCURVE",
"701 300 OFFCURVE",
"701 300 CURVE",
"701 294 LINE",
"695 261 OFFCURVE",
"698 194 OFFCURVE",
"698 161 CURVE",
"683 161 OFFCURVE",
"668 161 OFFCURVE",
"652 160 CURVE",
"636 160 OFFCURVE",
"619 160 OFFCURVE",
"606 159 CURVE"
);
}
);
width = 897;
}
);
unicode = 00BC;
},
{
glyphname = onehalf;
layers = (
{
hints = (
{
place = "{87, 118}";
type = Stem;
},
{
place = "{726, 118}";
type = Stem;
},
{
horizontal = 1;
place = "{0, 90}";
type = Stem;
},
{
horizontal = 1;
place = "{342, 91}";
type = Stem;
},
{
horizontal = 1;
place = "{605, 103}";
type = Stem;
},
{
horizontal = 1;
place = "{705, -20}";
target = down;
type = TopGhost;
},
{
horizontal = 1;
place = "{708, -20}";
target = down;
type = TopGhost;
}
);
layerId = "E376C904-BF5F-4CD7-8FD3-9BC68FA291DD";
paths = (
{
closed = 1;
nodes = (
"127 -2 LINE",
"205 -20 LINE",
"634 705 LINE",
"557 723 LINE"
);
},
{
closed = 1;
nodes = (
"87 284 LINE",
"205 284 LINE",
"205 708 LINE",
"111 706 LINE",
"80 701 OFFCURVE",
"44 695 OFFCURVE",
"23 690 CURVE",
"23 594 LINE",
"42 598 OFFCURVE",
"63 600 OFFCURVE",
"87 605 CURVE"
);
},
{
closed = 1;
nodes = (
"481 0 LINE",
"843 0 LINE",
"848 94 LINE",
"688 87 LINE",
"740 127 LINE SMOOTH",
"811 182 OFFCURVE",
"844 235 OFFCURVE",
"844 294 CURVE SMOOTH",
"844 378 OFFCURVE",
"764 433 OFFCURVE",
"678 433 CURVE SMOOTH",
"573 433 OFFCURVE",
"523 382 OFFCURVE",
"508 290 CURVE",
"622 282 LINE",
"626 311 OFFCURVE",
"640 342 OFFCURVE",
"675 342 CURVE SMOOTH",
"706 342 OFFCURVE",
"726 320 OFFCURVE",
"726 291 CURVE SMOOTH",
"726 246 OFFCURVE",
"665 186 OFFCURVE",
"630 149 CURVE"
);
}
);
width = 887;
}
);
unicode = 00BD;
},
{
glyphname = threequarters;
layers = (
{
hints = (
{
place = "{242, 114}";
type = Stem;
},
{
place = "{259, 115}";
type = Stem;
},
{
place = "{692, 110}";
type = Stem;
},
{
horizontal = 1;
place = "{-2, 21}";
target = up;
type = BottomGhost;
},
{
horizontal = 1;
place = "{0, 21}";
target = up;
type = BottomGhost;
},
{
horizontal = 1;
place = "{77, 84}";
type = Stem;
},
{
horizontal = 1;
place = "{278, 84}";
type = Stem;
},
{
horizontal = 1;
place = "{476, 71}";
type = Stem;
},
{
horizontal = 1;
place = "{637, 83}";
type = Stem;
},
{
horizontal = 1;
place = "{705, -20}";
target = down;
type = TopGhost;
}
);
layerId = "E376C904-BF5F-4CD7-8FD3-9BC68FA291DD";
paths = (
{
closed = 1;
nodes = (
"214 -2 LINE",
"293 -20 LINE",
"723 705 LINE",
"646 723 LINE"
);
},
{
closed = 1;
nodes = (
"27 401 LINE",
"38 315 OFFCURVE",
"117 278 OFFCURVE",
"198 278 CURVE SMOOTH",
"282 278 OFFCURVE",
"374 318 OFFCURVE",
"374 413 CURVE SMOOTH",
"374 461 OFFCURVE",
"349 497 OFFCURVE",
"305 516 CURVE",
"337 533 OFFCURVE",
"356 567 OFFCURVE",
"356 603 CURVE SMOOTH",
"356 686 OFFCURVE",
"271 720 OFFCURVE",
"201 720 CURVE SMOOTH",
"121 720 OFFCURVE",
"59 687 OFFCURVE",
"46 607 CURVE",
"150 597 LINE",
"154 618 OFFCURVE",
"173 637 OFFCURVE",
"197 637 CURVE SMOOTH",
"221 637 OFFCURVE",
"242 620 OFFCURVE",
"242 595 CURVE SMOOTH",
"242 555 OFFCURVE",
"208 547 OFFCURVE",
"176 547 CURVE",
"176 476 LINE",
"223 476 OFFCURVE",
"259 465 OFFCURVE",
"259 422 CURVE SMOOTH",
"259 387 OFFCURVE",
"235 362 OFFCURVE",
"199 362 CURVE SMOOTH",
"167 362 OFFCURVE",
"141 383 OFFCURVE",
"134 412 CURVE"
);
},
{
closed = 1;
nodes = (
"481 77 LINE",
"553 77 OFFCURVE",
"626 78 OFFCURVE",
"693 78 CURVE",
"691 0 LINE",
"802 0 LINE",
"801 78 LINE",
"817 78 OFFCURVE",
"834 77 OFFCURVE",
"851 77 CURVE",
"854 163 LINE",
"802 161 LINE",
"802 428 LINE",
"679 428 LINE",
"481 144 LINE"
);
},
{
closed = 1;
nodes = (
"601 160 LINE",
"633 208 OFFCURVE",
"666 253 OFFCURVE",
"694 301 CURVE",
"697 296 LINE",
"694 279 OFFCURVE",
"692 260 OFFCURVE",
"692 241 CURVE SMOOTH",
"692 234 OFFCURVE",
"693 206 OFFCURVE",
"693 161 CURVE",
"661 161 OFFCURVE",
"635 160 OFFCURVE",
"603 159 CURVE"
);
}
);
width = 881;
}
);
unicode = 00BE;
},
{
glyphname = questiondown;
layers = (
{
hints = (
{
place = "{41, 173}";
type = Stem;
},
{
place = "{172, 199}";
type = Stem;
},
{
place = "{200, 158}";
type = Stem;
},
{
horizontal = 1;
place = "{-47, 148}";
type = Stem;
},
{
horizontal = 1;
place = "{495, 181}";
type = Stem;
}
);
layerId = "E376C904-BF5F-4CD7-8FD3-9BC68FA291DD";
paths = (
{
closed = 1;
nodes = (
"371 645 OFFCURVE",
"328 676 OFFCURVE",
"272 676 CURVE SMOOTH",
"217 676 OFFCURVE",
"172 645 OFFCURVE",
"172 585 CURVE SMOOTH",
"172 526 OFFCURVE",
"217 495 OFFCURVE",
"272 495 CURVE SMOOTH",
"328 495 OFFCURVE",
"371 526 OFFCURVE",
"371 585 CURVE SMOOTH"
);
},
{
closed = 1;
nodes = (
"255 101 OFFCURVE",
"214 122 OFFCURVE",
"214 161 CURVE SMOOTH",
"214 193 OFFCURVE",
"242 223 OFFCURVE",
"270 244 CURVE",
"314 280 OFFCURVE",
"358 323 OFFCURVE",
"358 404 CURVE SMOOTH",
"358 450 LINE",
"200 450 LINE",
"200 419 LINE SMOOTH",
"200 376 OFFCURVE",
"187 360 OFFCURVE",
"151 330 CURVE",
"87 282 OFFCURVE",
"41 238 OFFCURVE",
"41 150 CURVE SMOOTH",
"41 24 OFFCURVE",
"148 -47 OFFCURVE",
"268 -47 CURVE SMOOTH",
"349 -47 OFFCURVE",
"424 -17 OFFCURVE",
"472 44 CURVE",
"472 192 LINE",
"431 149 OFFCURVE",
"367 101 OFFCURVE",
"298 101 CURVE SMOOTH"
);
}
);
width = 520;
}
);
unicode = 00BF;
},
{
glyphname = germandbls;
layers = (
{
hints = (
{
place = "{61, 171}";
type = Stem;
},
{
place = "{400, 167}";
type = Stem;
},
{
place = "{433, 171}";
type = Stem;
},
{
horizontal = 1;
place = "{-4, 125}";
type = Stem;
},
{
horizontal = 1;
place = "{0, 121}";
type = Stem;
},
{
horizontal = 1;
place = "{597, 144}";
type = Stem;
}
);
layerId = "E376C904-BF5F-4CD7-8FD3-9BC68FA291DD";
paths = (
{
closed = 1;
nodes = (
"232 489 LINE SMOOTH",
"232 555 OFFCURVE",
"268 597 OFFCURVE",
"322 597 CURVE SMOOTH",
"369 597 OFFCURVE",
"400 566 OFFCURVE",
"400 515 CURVE SMOOTH",
"400 459 OFFCURVE",
"358 426 OFFCURVE",
"308 402 CURVE",
"308 308 LINE",
"383 300 OFFCURVE",
"433 271 OFFCURVE",
"433 213 CURVE SMOOTH",
"433 156 OFFCURVE",
"381 124 OFFCURVE",
"306 121 CURVE",
"306 -3 LINE",
"316 -4 OFFCURVE",
"326 -4 OFFCURVE",
"337 -4 CURVE SMOOTH",
"384 -4 OFFCURVE",
"448 3 OFFCURVE",
"505 35 CURVE SMOOTH",
"562 67 OFFCURVE",
"604 120 OFFCURVE",
"604 197 CURVE SMOOTH",
"604 295 OFFCURVE",
"531 349 OFFCURVE",
"459 370 CURVE",
"519 399 OFFCURVE",
"567 454 OFFCURVE",
"567 537 CURVE SMOOTH",
"567 653 OFFCURVE",
"473 741 OFFCURVE",
"325 741 CURVE SMOOTH",
"152 741 OFFCURVE",
"61 637 OFFCURVE",
"61 486 CURVE SMOOTH",
"61 0 LINE",
"232 0 LINE"
);
}
);
width = 639;
}
);
unicode = 00DF;
},
{
glyphname = divide;
layers = (
{
hints = (
{
horizontal = 1;
place = "{82, 140}";
type = Stem;
},
{
horizontal = 1;
place = "{258, 94}";
type = Stem;
},
{
horizontal = 1;
place = "{389, 140}";
type = Stem;
},
{
place = "{231, 143}";
type = Stem;
}
);
layerId = "E376C904-BF5F-4CD7-8FD3-9BC68FA291DD";
paths = (
{
closed = 1;
nodes = (
"374 495 OFFCURVE",
"346 529 OFFCURVE",
"303 529 CURVE SMOOTH",
"260 529 OFFCURVE",
"231 495 OFFCURVE",
"231 458 CURVE SMOOTH",
"231 421 OFFCURVE",
"260 389 OFFCURVE",
"303 389 CURVE SMOOTH",
"346 389 OFFCURVE",
"374 421 OFFCURVE",
"374 458 CURVE SMOOTH"
);
},
{
closed = 1;
nodes = (
"563 352 LINE",
"42 352 LINE",
"42 258 LINE",
"563 258 LINE"
);
},
{
closed = 1;
nodes = (
"374 192 OFFCURVE",
"346 222 OFFCURVE",
"303 222 CURVE SMOOTH",
"260 222 OFFCURVE",
"231 192 OFFCURVE",
"231 153 CURVE SMOOTH",
"231 114 OFFCURVE",
"260 82 OFFCURVE",
"303 82 CURVE SMOOTH",
"346 82 OFFCURVE",
"374 114 OFFCURVE",
"374 153 CURVE SMOOTH"
);
}
);
width = 605;
}
);
unicode = 00F7;
},
{
glyphname = oslash;
layers = (
{
hints = (
{
place = "{48, 161}";
type = Stem;
},
{
place = "{469, 161}";
type = Stem;
},
{
horizontal = 1;
place = "{-13, 139}";
type = Stem;
},
{
horizontal = 1;
place = "{-4, 21}";
target = up;
type = BottomGhost;
},
{
horizontal = 1;
place = "{403, 138}";
type = Stem;
}
);
layerId = "E376C904-BF5F-4CD7-8FD3-9BC68FA291DD";
paths = (
{
closed = 1;
nodes = (
"33 -4 LINE",
"97 -64 LINE",
"185 27 LINE",
"229 2 OFFCURVE",
"279 -13 OFFCURVE",
"338 -13 CURVE SMOOTH",
"506 -13 OFFCURVE",
"630 112 OFFCURVE",
"630 264 CURVE SMOOTH",
"630 336 OFFCURVE",
"605 396 OFFCURVE",
"564 445 CURVE",
"641 530 LINE",
"565 588 LINE",
"491 502 LINE",
"448 527 OFFCURVE",
"396 541 OFFCURVE",
"339 541 CURVE SMOOTH",
"170 541 OFFCURVE",
"48 417 OFFCURVE",
"48 264 CURVE SMOOTH",
"48 195 OFFCURVE",
"73 134 OFFCURVE",
"114 85 CURVE"
);
},
{
closed = 1;
nodes = (
"222 203 LINE",
"213 222 OFFCURVE",
"209 241 OFFCURVE",
"209 264 CURVE SMOOTH",
"209 340 OFFCURVE",
"260 403 OFFCURVE",
"338 403 CURVE SMOOTH",
"359 403 OFFCURVE",
"377 399 OFFCURVE",
"393 390 CURVE"
);
},
{
closed = 1;
nodes = (
"456 326 LINE",
"464 307 OFFCURVE",
"469 287 OFFCURVE",
"469 264 CURVE SMOOTH",
"469 188 OFFCURVE",
"417 126 OFFCURVE",
"339 126 CURVE SMOOTH",
"319 126 OFFCURVE",
"301 130 OFFCURVE",
"285 138 CURVE"
);
}
);
width = 677;
}
);
unicode = 00F8;
},
{
glyphname = fraction;
layers = (
{
hints = (
{
horizontal = 1;
place = "{16, 909}";
type = Stem;
},
{
place = "{-42, 585}";
type = Stem;
}
);
layerId = "E376C904-BF5F-4CD7-8FD3-9BC68FA291DD";
paths = (
{
closed = 1;
nodes = (
"543 922 LINE",
"403 925 LINE",
"-42 19 LINE",
"98 16 LINE"
);
}
);
width = 500;
}
);
unicode = 2044;
},
{
glyphname = fi;
layers = (
{
hints = (
{
place = "{101, 170}";
type = Stem;
},
{
place = "{443, 200}";
type = Stem;
},
{
place = "{458, 172}";
type = Stem;
},
{
horizontal = 1;
place = "{0, 21}";
target = up;
type = BottomGhost;
},
{
horizontal = 1;
place = "{393, 133}";
type = Stem;
},
{
horizontal = 1;
place = "{586, 180}";
type = Stem;
},
{
horizontal = 1;
place = "{611, 126}";
type = Stem;
}
);
layerId = "E376C904-BF5F-4CD7-8FD3-9BC68FA291DD";
paths = (
{
closed = 1;
nodes = (
"443 617 OFFCURVE",
"487 586 OFFCURVE",
"543 586 CURVE SMOOTH",
"598 586 OFFCURVE",
"643 617 OFFCURVE",
"643 676 CURVE SMOOTH",
"643 736 OFFCURVE",
"598 766 OFFCURVE",
"543 766 CURVE SMOOTH",
"487 766 OFFCURVE",
"443 736 OFFCURVE",
"443 676 CURVE SMOOTH"
);
},
{
closed = 1;
nodes = (
"396 723 LINE",
"368 731 OFFCURVE",
"334 737 OFFCURVE",
"289 737 CURVE SMOOTH",
"172 737 OFFCURVE",
"101 682 OFFCURVE",
"101 551 CURVE SMOOTH",
"101 527 LINE",
"15 393 LINE",
"101 393 LINE",
"101 0 LINE",
"271 0 LINE",
"271 393 LINE",
"392 393 LINE",
"392 526 LINE",
"244 526 LINE",
"244 549 LINE SMOOTH",
"244 589 OFFCURVE",
"284 611 OFFCURVE",
"323 611 CURVE SMOOTH",
"344 611 OFFCURVE",
"373 607 OFFCURVE",
"396 600 CURVE"
);
},
{
closed = 1;
nodes = (
"630 531 LINE",
"458 531 LINE",
"458 0 LINE",
"630 0 LINE"
);
}
);
width = 703;
}
);
unicode = FB01;
},
{
glyphname = fl;
layers = (
{
hints = (
{
horizontal = 1;
place = "{0, 21}";
target = up;
type = BottomGhost;
},
{
horizontal = 1;
place = "{393, 133}";
type = Stem;
},
{
horizontal = 1;
place = "{611, 126}";
type = Stem;
},
{
place = "{101, 170}";
type = Stem;
},
{
place = "{454, 172}";
type = Stem;
}
);
layerId = "E376C904-BF5F-4CD7-8FD3-9BC68FA291DD";
paths = (
{
closed = 1;
nodes = (
"396 723 LINE",
"368 731 OFFCURVE",
"334 737 OFFCURVE",
"289 737 CURVE SMOOTH",
"172 737 OFFCURVE",
"101 682 OFFCURVE",
"101 551 CURVE SMOOTH",
"101 527 LINE",
"15 393 LINE",
"101 393 LINE",
"101 0 LINE",
"271 0 LINE",
"271 393 LINE",
"392 393 LINE",
"392 526 LINE",
"244 526 LINE",
"244 549 LINE SMOOTH",
"244 589 OFFCURVE",
"284 611 OFFCURVE",
"323 611 CURVE SMOOTH",
"344 611 OFFCURVE",
"373 607 OFFCURVE",
"396 600 CURVE"
);
},
{
closed = 1;
nodes = (
"626 730 LINE",
"454 730 LINE",
"454 0 LINE",
"626 0 LINE"
);
}
);
width = 686;
}
);
unicode = FB02;
},
{
glyphname = breve;
layers = (
{
hints = (
{
horizontal = 1;
place = "{542, 176}";
type = Stem;
},
{
place = "{9, 332}";
type = Stem;
}
);
layerId = "E376C904-BF5F-4CD7-8FD3-9BC68FA291DD";
paths = (
{
closed = 1;
nodes = (
"245 718 LINE",
"233 675 OFFCURVE",
"209 650 OFFCURVE",
"176 650 CURVE SMOOTH",
"144 650 OFFCURVE",
"116 675 OFFCURVE",
"104 718 CURVE",
"9 718 LINE",
"17 613 OFFCURVE",
"85 542 OFFCURVE",
"174 542 CURVE SMOOTH",
"266 542 OFFCURVE",
"333 613 OFFCURVE",
"341 718 CURVE"
);
}
);
width = 350;
}
);
unicode = 02D8;
},
{
glyphname = dotaccent;
layers = (
{
hints = (
{
horizontal = 1;
place = "{550, 144}";
type = Stem;
},
{
place = "{46, 146}";
type = Stem;
}
);
layerId = "E376C904-BF5F-4CD7-8FD3-9BC68FA291DD";
paths = (
{
closed = 1;
nodes = (
"192 664 OFFCURVE",
"155 694 OFFCURVE",
"118 694 CURVE SMOOTH",
"82 694 OFFCURVE",
"46 664 OFFCURVE",
"46 623 CURVE SMOOTH",
"46 579 OFFCURVE",
"82 550 OFFCURVE",
"118 550 CURVE SMOOTH",
"155 550 OFFCURVE",
"192 579 OFFCURVE",
"192 623 CURVE SMOOTH"
);
}
);
width = 306;
}
);
unicode = 02D9;
},
{
glyphname = ring;
layers = (
{
hints = (
{
horizontal = 1;
place = "{533, 87}";
type = Stem;
},
{
horizontal = 1;
place = "{679, 87}";
type = Stem;
},
{
place = "{77, 91}";
type = Stem;
},
{
place = "{226, 91}";
type = Stem;
}
);
layerId = "E376C904-BF5F-4CD7-8FD3-9BC68FA291DD";
paths = (
{
closed = 1;
nodes = (
"317 714 OFFCURVE",
"263 766 OFFCURVE",
"196 766 CURVE SMOOTH",
"135 766 OFFCURVE",
"77 715 OFFCURVE",
"77 649 CURVE SMOOTH",
"77 583 OFFCURVE",
"135 533 OFFCURVE",
"196 533 CURVE SMOOTH",
"263 533 OFFCURVE",
"317 582 OFFCURVE",
"317 650 CURVE SMOOTH"
);
},
{
closed = 1;
nodes = (
"226 632 OFFCURVE",
"214 620 OFFCURVE",
"197 620 CURVE SMOOTH",
"180 620 OFFCURVE",
"168 633 OFFCURVE",
"168 650 CURVE SMOOTH",
"168 666 OFFCURVE",
"180 679 OFFCURVE",
"197 679 CURVE SMOOTH",
"214 679 OFFCURVE",
"226 665 OFFCURVE",
"226 649 CURVE SMOOTH"
);
}
);
width = 396;
}
);
unicode = 02DA;
},
{
glyphname = hungarumlaut;
layers = (
{
hints = (
{
horizontal = 1;
place = "{700, -20}";
target = down;
type = TopGhost;
},
{
place = "{-12, 491}";
type = Stem;
}
);
layerId = "E376C904-BF5F-4CD7-8FD3-9BC68FA291DD";
paths = (
{
closed = 1;
nodes = (
"260 699 LINE",
"117 726 LINE",
"-12 538 LINE",
"107 538 LINE"
);
},
{
closed = 1;
nodes = (
"479 700 LINE",
"335 726 LINE",
"208 538 LINE",
"326 538 LINE"
);
}
);
width = 421;
}
);
unicode = 02DD;
},
{
glyphname = ogonek;
layers = (
{
hints = (
{
horizontal = 1;
place = "{-174, 96}";
type = Stem;
},
{
place = "{41, 114}";
type = Stem;
}
);
layerId = "E376C904-BF5F-4CD7-8FD3-9BC68FA291DD";
paths = (
{
closed = 1;
nodes = (
"244 -65 LINE",
"216 -76 OFFCURVE",
"201 -78 OFFCURVE",
"190 -78 CURVE SMOOTH",
"170 -78 OFFCURVE",
"155 -69 OFFCURVE",
"155 -49 CURVE SMOOTH",
"155 -32 OFFCURVE",
"166 -5 OFFCURVE",
"217 57 CURVE",
"102 57 LINE",
"73 24 OFFCURVE",
"41 -19 OFFCURVE",
"41 -67 CURVE SMOOTH",
"41 -134 OFFCURVE",
"95 -174 OFFCURVE",
"166 -174 CURVE SMOOTH",
"198 -174 OFFCURVE",
"232 -166 OFFCURVE",
"264 -149 CURVE"
);
}
);
width = 305;
}
);
unicode = 02DB;
},
{
glyphname = caron;
layers = (
{
hints = (
{
horizontal = 1;
place = "{538, 179}";
type = Stem;
},
{
place = "{-7, 376}";
type = Stem;
}
);
layerId = "E376C904-BF5F-4CD7-8FD3-9BC68FA291DD";
paths = (
{
closed = 1;
nodes = (
"243 717 LINE",
"183 651 LINE",
"122 717 LINE",
"-7 717 LINE",
"134 538 LINE",
"229 538 LINE",
"369 717 LINE"
);
}
);
width = 363;
}
);
unicode = 02C7;
},
{
glyphname = dotlessi;
layers = (
{
hints = (
{
horizontal = 1;
place = "{0, 21}";
target = up;
type = BottomGhost;
},
{
place = "{61, 172}";
type = Stem;
}
);
layerId = "E376C904-BF5F-4CD7-8FD3-9BC68FA291DD";
paths = (
{
closed = 1;
nodes = (
"233 531 LINE",
"61 531 LINE",
"61 0 LINE",
"233 0 LINE"
);
}
);
width = 295;
}
);
unicode = 0131;
},
{
glyphname = greaterequal;
layers = (
{
hints = (
{
horizontal = 1;
place = "{2, 110}";
type = Stem;
},
{
place = "{60, 518}";
type = Stem;
}
);
layerId = "E376C904-BF5F-4CD7-8FD3-9BC68FA291DD";
paths = (
{
closed = 1;
nodes = (
"578 341 LINE",
"578 439 LINE",
"60 633 LINE",
"60 515 LINE",
"393 390 LINE",
"60 267 LINE",
"60 147 LINE"
);
},
{
closed = 1;
nodes = (
"578 2 LINE",
"578 112 LINE",
"60 112 LINE",
"60 2 LINE"
);
}
);
width = 637;
}
);
unicode = 2265;
},
{
glyphname = radical;
layers = (
{
hints = (
{
horizontal = 1;
place = "{-210, 993}";
type = Stem;
},
{
place = "{20, 545}";
type = Stem;
}
);
layerId = "E376C904-BF5F-4CD7-8FD3-9BC68FA291DD";
paths = (
{
closed = 1;
nodes = (
"565 783 LINE",
"443 783 LINE",
"284 -12 LINE",
"166 236 LINE",
"20 171 LINE",
"67 72 LINE",
"109 92 LINE",
"253 -210 LINE",
"361 -210 LINE"
);
}
);
width = 539;
}
);
unicode = 221A;
},
{
glyphname = notequal;
layers = (
{
hints = (
{
horizontal = 1;
place = "{102, 110}";
type = Stem;
},
{
horizontal = 1;
place = "{292, 112}";
type = Stem;
},
{
horizontal = 1;
place = "{543, -20}";
target = down;
type = TopGhost;
},
{
place = "{42, 526}";
type = Stem;
}
);
layerId = "E376C904-BF5F-4CD7-8FD3-9BC68FA291DD";
paths = (
{
closed = 1;
nodes = (
"560 102 LINE",
"560 212 LINE",
"347 212 LINE",
"387 292 LINE",
"568 292 LINE",
"568 404 LINE",
"447 404 LINE",
"492 488 LINE",
"392 543 LINE",
"318 404 LINE",
"50 404 LINE",
"50 292 LINE",
"259 292 LINE",
"218 212 LINE",
"42 212 LINE",
"42 102 LINE",
"160 102 LINE",
"115 20 LINE",
"215 -34 LINE",
"285 102 LINE"
);
}
);
width = 610;
}
);
unicode = 2260;
},
{
glyphname = product;
layers = (
{
hints = (
{
horizontal = 1;
place = "{671, 112}";
type = Stem;
},
{
place = "{12, 120}";
type = Stem;
},
{
place = "{473, 120}";
type = Stem;
}
);
layerId = "E376C904-BF5F-4CD7-8FD3-9BC68FA291DD";
paths = (
{
closed = 1;
nodes = (
"593 -210 LINE",
"593 783 LINE",
"12 783 LINE",
"12 -210 LINE",
"132 -210 LINE",
"132 671 LINE",
"473 671 LINE",
"473 -210 LINE"
);
}
);
width = 606;
}
);
unicode = 220F;
},
{
glyphname = summation;
layers = (
{
hints = (
{
horizontal = 1;
place = "{-210, 112}";
type = Stem;
},
{
horizontal = 1;
place = "{671, 113}";
type = Stem;
},
{
place = "{17, 571}";
type = Stem;
}
);
layerId = "E376C904-BF5F-4CD7-8FD3-9BC68FA291DD";
paths = (
{
closed = 1;
nodes = (
"588 -210 LINE",
"588 -98 LINE",
"176 -98 LINE",
"457 293 LINE",
"192 671 LINE",
"577 671 LINE",
"577 784 LINE",
"29 784 LINE",
"29 696 LINE",
"313 295 LINE",
"17 -123 LINE",
"17 -210 LINE"
);
}
);
width = 596;
}
);
unicode = 2211;
},
{
glyphname = lessequal;
layers = (
{
hints = (
{
horizontal = 1;
place = "{1, 110}";
type = Stem;
},
{
place = "{60, 518}";
type = Stem;
}
);
layerId = "E376C904-BF5F-4CD7-8FD3-9BC68FA291DD";
paths = (
{
closed = 1;
nodes = (
"578 147 LINE",
"578 267 LINE",
"249 389 LINE",
"578 515 LINE",
"578 633 LINE",
"60 439 LINE",
"60 341 LINE"
);
},
{
closed = 1;
nodes = (
"578 1 LINE",
"578 111 LINE",
"60 111 LINE",
"60 1 LINE"
);
}
);
width = 637;
}
);
unicode = 2264;
},
{
glyphname = uni02C9;
layers = (
{
hints = (
{
horizontal = 1;
place = "{734, 106}";
type = Stem;
},
{
place = "{-29, 307}";
type = Stem;
}
);
layerId = "E376C904-BF5F-4CD7-8FD3-9BC68FA291DD";
paths = (
{
closed = 1;
nodes = (
"278 840 LINE",
"-29 840 LINE",
"-29 734 LINE",
"278 734 LINE"
);
}
);
width = 258;
}
);
unicode = 02C9;
},
{
glyphname = lozenge;
layers = (
{
hints = (
{
horizontal = 1;
place = "{-34, 779}";
type = Stem;
},
{
place = "{41, 434}";
type = Stem;
}
);
layerId = "E376C904-BF5F-4CD7-8FD3-9BC68FA291DD";
paths = (
{
closed = 1;
nodes = (
"475 355 LINE",
"306 745 LINE",
"208 745 LINE",
"41 355 LINE",
"208 -34 LINE",
"306 -34 LINE"
);
},
{
closed = 1;
nodes = (
"352 354 LINE",
"257 132 LINE",
"164 356 LINE",
"257 578 LINE"
);
}
);
width = 516;
}
);
unicode = 25CA;
},
{
glyphname = minus;
layers = (
{
hints = (
{
horizontal = 1;
place = "{251, 110}";
type = Stem;
},
{
place = "{42, 526}";
type = Stem;
}
);
layerId = "E376C904-BF5F-4CD7-8FD3-9BC68FA291DD";
paths = (
{
closed = 1;
nodes = (
"568 361 LINE",
"42 361 LINE",
"42 251 LINE",
"568 251 LINE"
);
}
);
width = 610;
}
);
unicode = 2212;
},
{
glyphname = uni2215;
layers = (
{
hints = (
{
horizontal = 1;
place = "{-29, 952}";
type = Stem;
},
{
place = "{-161, 558}";
type = Stem;
}
);
layerId = "E376C904-BF5F-4CD7-8FD3-9BC68FA291DD";
paths = (
{
closed = 1;
nodes = (
"397 867 LINE",
"283 923 LINE",
"-161 26 LINE",
"-46 -29 LINE"
);
}
);
width = 261;
}
);
unicode = 2215;
},
{
glyphname = approxequal;
layers = (
{
hints = (
{
place = "{19, 547}";
type = Stem;
},
{
horizontal = 1;
place = "{62, 111}";
type = Stem;
},
{
horizontal = 1;
place = "{130, 111}";
type = Stem;
},
{
horizontal = 1;
place = "{268, 111}";
type = Stem;
},
{
horizontal = 1;
place = "{336, 111}";
type = Stem;
}
);
layerId = "E376C904-BF5F-4CD7-8FD3-9BC68FA291DD";
paths = (
{
closed = 1;
nodes = (
"468 453 LINE",
"460 406 OFFCURVE",
"446 379 OFFCURVE",
"410 379 CURVE SMOOTH",
"343 379 OFFCURVE",
"256 447 OFFCURVE",
"171 447 CURVE SMOOTH",
"73 447 OFFCURVE",
"32 352 OFFCURVE",
"19 261 CURVE",
"119 261 LINE",
"126 300 OFFCURVE",
"140 336 OFFCURVE",
"181 336 CURVE SMOOTH",
"239 336 OFFCURVE",
"329 268 OFFCURVE",
"418 268 CURVE SMOOTH",
"525 268 OFFCURVE",
"555 364 OFFCURVE",
"566 453 CURVE"
);
},
{
closed = 1;
nodes = (
"468 247 LINE",
"460 202 OFFCURVE",
"446 173 OFFCURVE",
"410 173 CURVE SMOOTH",
"343 173 OFFCURVE",
"256 241 OFFCURVE",
"171 241 CURVE SMOOTH",
"72 241 OFFCURVE",
"32 148 OFFCURVE",
"19 56 CURVE",
"119 56 LINE",
"126 95 OFFCURVE",
"140 130 OFFCURVE",
"181 130 CURVE SMOOTH",
"239 130 OFFCURVE",
"329 62 OFFCURVE",
"418 62 CURVE SMOOTH",
"525 62 OFFCURVE",
"555 158 OFFCURVE",
"566 247 CURVE"
);
}
);
width = 583;
}
);
unicode = 2248;
},
{
glyphname = integral;
layers = (
{
hints = (
{
horizontal = 1;
place = "{-210, 128}";
type = Stem;
},
{
horizontal = 1;
place = "{649, 134}";
type = Stem;
},
{
place = "{116, 121}";
type = Stem;
}
);
layerId = "E376C904-BF5F-4CD7-8FD3-9BC68FA291DD";
paths = (
{
closed = 1;
nodes = (
"99 -90 OFFCURVE",
"87 -82 OFFCURVE",
"71 -82 CURVE SMOOTH",
"39 -82 OFFCURVE",
"12 -107 OFFCURVE",
"12 -140 CURVE SMOOTH",
"12 -190 OFFCURVE",
"70 -210 OFFCURVE",
"111 -210 CURVE SMOOTH",
"240 -210 OFFCURVE",
"237 -55 OFFCURVE",
"237 37 CURVE SMOOTH",
"237 602 LINE SMOOTH",
"237 622 OFFCURVE",
"237 651 OFFCURVE",
"242 667 CURVE",
"257 659 OFFCURVE",
"271 649 OFFCURVE",
"289 649 CURVE SMOOTH",
"324 649 OFFCURVE",
"351 674 OFFCURVE",
"351 709 CURVE SMOOTH",
"351 762 OFFCURVE",
"297 783 OFFCURVE",
"251 783 CURVE SMOOTH",
"141 783 OFFCURVE",
"116 664 OFFCURVE",
"116 577 CURVE SMOOTH",
"116 22 LINE SMOOTH",
"116 -15 OFFCURVE",
"119 -65 OFFCURVE",
"111 -99 CURVE"
);
}
);
width = 360;
}
);
unicode = 222B;
},
{
glyphname = uni2113;
layers = (
{
hints = (
{
horizontal = 1;
place = "{-12, 101}";
type = Stem;
},
{
horizontal = 1;
place = "{618, 97}";
type = Stem;
},
{
place = "{117, 118}";
type = Stem;
},
{
place = "{279, 108}";
type = Stem;
}
);
layerId = "E376C904-BF5F-4CD7-8FD3-9BC68FA291DD";
paths = (
{
closed = 1;
nodes = (
"361 138 LINE",
"320 103 OFFCURVE",
"295 89 OFFCURVE",
"274 89 CURVE SMOOTH",
"257 89 OFFCURVE",
"237 98 OFFCURVE",
"236 134 CURVE",
"235 135 OFFCURVE",
"235 137 OFFCURVE",
"235 140 CURVE SMOOTH",
"235 261 LINE",
"324 360 OFFCURVE",
"386 463 OFFCURVE",
"387 562 CURVE",
"388 565 OFFCURVE",
"388 568 OFFCURVE",
"388 571 CURVE SMOOTH",
"388 575 OFFCURVE",
"387 581 OFFCURVE",
"386 589 CURVE SMOOTH",
"377 665 OFFCURVE",
"328 715 OFFCURVE",
"261 715 CURVE SMOOTH",
"178 715 OFFCURVE",
"117 649 OFFCURVE",
"117 530 CURVE SMOOTH",
"117 294 LINE",
"32 211 LINE",
"89 135 LINE",
"117 164 LINE",
"117 135 LINE SMOOTH",
"117 124 OFFCURVE",
"118 114 OFFCURVE",
"119 105 CURVE",
"130 26 OFFCURVE",
"184 -12 OFFCURVE",
"259 -12 CURVE SMOOTH",
"307 -12 OFFCURVE",
"349 2 OFFCURVE",
"415 55 CURVE"
);
},
{
closed = 1;
nodes = (
"279 525 OFFCURVE",
"266 449 OFFCURVE",
"235 402 CURVE",
"235 541 LINE SMOOTH",
"235 594 OFFCURVE",
"246 618 OFFCURVE",
"261 618 CURVE SMOOTH",
"272 618 OFFCURVE",
"279 598 OFFCURVE",
"279 567 CURVE SMOOTH"
);
}
);
width = 457;
}
);
unicode = 2113;
},
{
glyphname = partialdiff;
layers = (
{
hints = (
{
horizontal = 1;
place = "{-11, 105}";
type = Stem;
},
{
horizontal = 1;
place = "{339, 107}";
type = Stem;
},
{
horizontal = 1;
place = "{610, 107}";
type = Stem;
},
{
place = "{23, 117}";
type = Stem;
},
{
place = "{354, 117}";
type = Stem;
}
);
layerId = "E376C904-BF5F-4CD7-8FD3-9BC68FA291DD";
paths = (
{
closed = 1;
nodes = (
"471 516 OFFCURVE",
"414 717 OFFCURVE",
"220 717 CURVE SMOOTH",
"155 717 OFFCURVE",
"96 693 OFFCURVE",
"43 637 CURVE",
"112 558 LINE",
"145 594 OFFCURVE",
"181 610 OFFCURVE",
"218 610 CURVE SMOOTH",
"318 610 OFFCURVE",
"349 494 OFFCURVE",
"354 405 CURVE",
"319 430 OFFCURVE",
"277 446 OFFCURVE",
"230 446 CURVE SMOOTH",
"99 446 OFFCURVE",
"23 346 OFFCURVE",
"23 221 CURVE SMOOTH",
"23 102 OFFCURVE",
"101 -11 OFFCURVE",
"235 -11 CURVE SMOOTH",
"437 -11 OFFCURVE",
"471 214 OFFCURVE",
"471 361 CURVE SMOOTH"
);
},
{
closed = 1;
nodes = (
"341 201 OFFCURVE",
"315 94 OFFCURVE",
"236 94 CURVE SMOOTH",
"172 94 OFFCURVE",
"140 161 OFFCURVE",
"140 220 CURVE SMOOTH",
"140 283 OFFCURVE",
"173 339 OFFCURVE",
"236 339 CURVE SMOOTH",
"281 339 OFFCURVE",
"320 308 OFFCURVE",
"349 275 CURVE"
);
}
);
width = 503;
}
);
unicode = 2202;
},
{
glyphname = uni2206;
layers = (
{
hints = (
{
horizontal = 1;
place = "{0, 149}";
type = Stem;
},
{
horizontal = 1;
place = "{710, -20}";
target = down;
type = TopGhost;
},
{
place = "{16, 752}";
type = Stem;
}
);
layerId = "E376C904-BF5F-4CD7-8FD3-9BC68FA291DD";
paths = (
{
closed = 1;
nodes = (
"768 0 LINE",
"476 710 LINE",
"307 710 LINE",
"16 0 LINE"
);
},
{
closed = 1;
nodes = (
"523 149 LINE",
"257 149 LINE",
"285 225 LINE SMOOTH",
"319 316 OFFCURVE",
"370 450 OFFCURVE",
"390 504 CURVE"
);
}
);
width = 787;
}
);
unicode = 2206;
},
{
glyphname = infinity;
layers = (
{
hints = (
{
horizontal = 1;
place = "{95, 109}";
type = Stem;
},
{
horizontal = 1;
place = "{312, 109}";
type = Stem;
},
{
place = "{26, 112}";
type = Stem;
},
{
place = "{579, 112}";
type = Stem;
}
);
layerId = "E376C904-BF5F-4CD7-8FD3-9BC68FA291DD";
paths = (
{
closed = 1;
nodes = (
"691 350 OFFCURVE",
"627 421 OFFCURVE",
"532 421 CURVE SMOOTH",
"459 421 OFFCURVE",
"404 379 OFFCURVE",
"359 328 CURVE",
"317 373 OFFCURVE",
"255 420 OFFCURVE",
"182 420 CURVE SMOOTH",
"88 420 OFFCURVE",
"26 346 OFFCURVE",
"26 255 CURVE SMOOTH",
"26 166 OFFCURVE",
"91 95 OFFCURVE",
"184 95 CURVE SMOOTH",
"257 95 OFFCURVE",
"306 136 OFFCURVE",
"357 182 CURVE",
"404 140 OFFCURVE",
"465 95 OFFCURVE",
"536 95 CURVE SMOOTH",
"629 95 OFFCURVE",
"691 168 OFFCURVE",
"691 258 CURVE SMOOTH"
);
},
{
closed = 1;
nodes = (
"579 226 OFFCURVE",
"562 204 OFFCURVE",
"533 204 CURVE SMOOTH",
"497 204 OFFCURVE",
"465 230 OFFCURVE",
"436 255 CURVE",
"460 277 OFFCURVE",
"497 312 OFFCURVE",
"532 312 CURVE SMOOTH",
"563 312 OFFCURVE",
"579 287 OFFCURVE",
"579 255 CURVE SMOOTH"
);
},
{
closed = 1;
nodes = (
"255 228 OFFCURVE",
"217 204 OFFCURVE",
"185 204 CURVE SMOOTH",
"156 204 OFFCURVE",
"138 225 OFFCURVE",
"138 256 CURVE SMOOTH",
"138 285 OFFCURVE",
"152 311 OFFCURVE",
"183 311 CURVE SMOOTH",
"218 311 OFFCURVE",
"256 279 OFFCURVE",
"282 255 CURVE"
);
}
);
width = 719;
}
);
unicode = 221E;
},
{
glyphname = uni2126;
layers = (
{
hints = (
{
horizontal = 1;
place = "{0, 148}";
type = Stem;
},
{
horizontal = 1;
place = "{561, 157}";
type = Stem;
},
{
place = "{38, 179}";
type = Stem;
},
{
place = "{595, 179}";
type = Stem;
}
);
layerId = "E376C904-BF5F-4CD7-8FD3-9BC68FA291DD";
paths = (
{
closed = 1;
nodes = (
"775 0 LINE",
"775 148 LINE",
"650 148 LINE",
"642 158 LINE",
"722 204 OFFCURVE",
"774 293 OFFCURVE",
"774 397 CURVE SMOOTH",
"774 592 OFFCURVE",
"625 718 OFFCURVE",
"407 718 CURVE SMOOTH",
"188 718 OFFCURVE",
"38 592 OFFCURVE",
"38 397 CURVE SMOOTH",
"38 294 OFFCURVE",
"87 203 OFFCURVE",
"170 158 CURVE",
"164 148 LINE",
"36 148 LINE",
"36 0 LINE",
"367 0 LINE",
"367 172 LINE",
"265 196 OFFCURVE",
"217 287 OFFCURVE",
"217 374 CURVE SMOOTH",
"217 473 OFFCURVE",
"287 561 OFFCURVE",
"407 561 CURVE SMOOTH",
"526 561 OFFCURVE",
"595 473 OFFCURVE",
"595 374 CURVE SMOOTH",
"595 287 OFFCURVE",
"548 196 OFFCURVE",
"445 172 CURVE",
"445 0 LINE"
);
}
);
width = 810;
}
);
unicode = 2126;
},
{
glyphname = uni2219;
layers = (
{
hints = (
{
horizontal = 1;
place = "{239, 155}";
type = Stem;
},
{
place = "{42, 156}";
type = Stem;
}
);
layerId = "E376C904-BF5F-4CD7-8FD3-9BC68FA291DD";
paths = (
{
closed = 1;
nodes = (
"198 357 OFFCURVE",
"168 394 OFFCURVE",
"120 394 CURVE SMOOTH",
"73 394 OFFCURVE",
"42 357 OFFCURVE",
"42 316 CURVE SMOOTH",
"42 276 OFFCURVE",
"73 239 OFFCURVE",
"120 239 CURVE SMOOTH",
"168 239 OFFCURVE",
"198 276 OFFCURVE",
"198 316 CURVE SMOOTH"
);
}
);
width = 250;
}
);
unicode = 2219;
},
{
glyphname = estimated;
layers = (
{
hints = (
{
horizontal = 1;
place = "{-15, 89}";
type = Stem;
},
{
horizontal = 1;
place = "{238, 89}";
type = Stem;
},
{
horizontal = 1;
place = "{457, 89}";
type = Stem;
},
{
place = "{37, 163}";
type = Stem;
},
{
place = "{408, 163}";
type = Stem;
}
);
layerId = "E376C904-BF5F-4CD7-8FD3-9BC68FA291DD";
paths = (
{
closed = 1;
nodes = (
"571 238 LINE",
"571 419 OFFCURVE",
"462 546 OFFCURVE",
"304 546 CURVE SMOOTH",
"142 546 OFFCURVE",
"37 422 OFFCURVE",
"37 266 CURVE SMOOTH",
"37 108 OFFCURVE",
"142 -15 OFFCURVE",
"304 -15 CURVE SMOOTH",
"412 -15 OFFCURVE",
"480 33 OFFCURVE",
"555 147 CURVE",
"470 196 LINE",
"418 108 OFFCURVE",
"367 74 OFFCURVE",
"304 74 CURVE SMOOTH",
"261 74 OFFCURVE",
"229 88 OFFCURVE",
"200 112 CURVE",
"200 238 LINE"
);
},
{
closed = 1;
nodes = (
"200 327 LINE",
"200 420 LINE",
"231 445 OFFCURVE",
"264 457 OFFCURVE",
"303 457 CURVE SMOOTH",
"342 457 OFFCURVE",
"377 444 OFFCURVE",
"408 419 CURVE",
"408 327 LINE"
);
}
);
width = 608;
}
);
unicode = 212E;
},
{
glyphname = exclam;
layers = (
{
hints = (
{
horizontal = 1;
place = "{-13, 181}";
type = Stem;
},
{
horizontal = 1;
place = "{701, -20}";
target = down;
type = TopGhost;
},
{
place = "{46, 195}";
type = Stem;
}
);
layerId = "E376C904-BF5F-4CD7-8FD3-9BC68FA291DD";
paths = (
{
closed = 1;
nodes = (
"46 701 LINE",
"46 616 LINE",
"98 224 LINE",
"190 224 LINE",
"241 616 LINE",
"242 701 LINE"
);
},
{
closed = 1;
nodes = (
"44 19 OFFCURVE",
"88 -13 OFFCURVE",
"143 -13 CURVE SMOOTH",
"199 -13 OFFCURVE",
"243 19 OFFCURVE",
"243 78 CURVE SMOOTH",
"243 137 OFFCURVE",
"199 168 OFFCURVE",
"143 168 CURVE SMOOTH",
"88 168 OFFCURVE",
"44 137 OFFCURVE",
"44 78 CURVE SMOOTH"
);
}
);
width = 288;
}
);
unicode = 0021;
},
{
glyphname = Alpha;
layers = (
{
hints = (
{
horizontal = 1;
place = "{0, 21}";
target = up;
type = BottomGhost;
},
{
horizontal = 1;
place = "{137, 138}";
type = Stem;
},
{
horizontal = 1;
place = "{705, -20}";
target = down;
type = TopGhost;
},
{
place = "{17, 767}";
type = Stem;
}
);
layerId = "E376C904-BF5F-4CD7-8FD3-9BC68FA291DD";
paths = (
{
closed = 1;
nodes = (
"539 137 LINE",
"595 0 LINE",
"784 0 LINE",
"484 705 LINE",
"317 705 LINE",
"17 0 LINE",
"202 0 LINE",
"258 137 LINE"
);
},
{
closed = 1;
nodes = (
"399 497 LINE",
"487 275 LINE",
"311 275 LINE"
);
}
);
width = 809;
}
);
unicode = 0391;
},
{
glyphname = Epsilon;
layers = (
{
hints = (
{
horizontal = 1;
place = "{0, 150}";
type = Stem;
},
{
horizontal = 1;
place = "{284, 140}";
type = Stem;
},
{
horizontal = 1;
place = "{551, 150}";
type = Stem;
},
{
place = "{68, 174}";
type = Stem;
}
);
layerId = "E376C904-BF5F-4CD7-8FD3-9BC68FA291DD";
paths = (
{
closed = 1;
nodes = (
"242 284 LINE",
"579 284 LINE",
"579 424 LINE",
"242 424 LINE",
"242 551 LINE",
"613 551 LINE",
"613 701 LINE",
"68 701 LINE",
"68 0 LINE",
"619 0 LINE",
"619 150 LINE",
"242 150 LINE"
);
}
);
width = 659;
}
);
unicode = 0395;
},
{
glyphname = Eta;
layers = (
{
hints = (
{
horizontal = 1;
place = "{0, 21}";
target = up;
type = BottomGhost;
},
{
horizontal = 1;
place = "{275, 156}";
type = Stem;
},
{
horizontal = 1;
place = "{701, -20}";
target = down;
type = TopGhost;
},
{
place = "{68, 175}";
type = Stem;
},
{
place = "{514, 176}";
type = Stem;
}
);
layerId = "E376C904-BF5F-4CD7-8FD3-9BC68FA291DD";
paths = (
{
closed = 1;
nodes = (
"68 0 LINE",
"243 0 LINE",
"243 275 LINE",
"514 275 LINE",
"514 0 LINE",
"690 0 LINE",
"690 701 LINE",
"514 701 LINE",
"514 431 LINE",
"243 431 LINE",
"243 701 LINE",
"68 701 LINE"
);
}
);
width = 757;
}
);
unicode = 0397;
},
{
glyphname = Iota;
layers = (
{
hints = (
{
horizontal = 1;
place = "{0, 21}";
target = up;
type = BottomGhost;
},
{
horizontal = 1;
place = "{701, -20}";
target = down;
type = TopGhost;
},
{
place = "{68, 176}";
type = Stem;
}
);
layerId = "E376C904-BF5F-4CD7-8FD3-9BC68FA291DD";
paths = (
{
closed = 1;
nodes = (
"244 701 LINE",
"68 701 LINE",
"68 0 LINE",
"244 0 LINE"
);
}
);
width = 311;
}
);
unicode = 0399;
},
{
glyphname = Kappa;
layers = (
{
hints = (
{
horizontal = 1;
place = "{0, 21}";
target = up;
type = BottomGhost;
},
{
horizontal = 1;
place = "{701, -20}";
target = down;
type = TopGhost;
},
{
place = "{68, 175}";
type = Stem;
}
);
layerId = "E376C904-BF5F-4CD7-8FD3-9BC68FA291DD";
paths = (
{
closed = 1;
nodes = (
"243 701 LINE",
"68 701 LINE",
"68 0 LINE",
"243 0 LINE",
"243 362 LINE",
"498 0 LINE",
"710 0 LINE",
"427 395 LINE",
"698 701 LINE",
"489 701 LINE",
"243 415 LINE"
);
}
);
width = 709;
}
);
unicode = 039A;
},
{
glyphname = Mu;
layers = (
{
hints = (
{
horizontal = 1;
place = "{0, 21}";
target = up;
type = BottomGhost;
},
{
horizontal = 1;
place = "{700, -20}";
target = down;
type = TopGhost;
},
{
place = "{52, 172}";
type = Stem;
},
{
place = "{616, 175}";
type = Stem;
}
);
layerId = "E376C904-BF5F-4CD7-8FD3-9BC68FA291DD";
paths = (
{
closed = 1;
nodes = (
"420 132 LINE",
"616 429 LINE",
"616 0 LINE",
"791 0 LINE",
"791 700 LINE",
"606 700 LINE",
"421 404 LINE",
"236 700 LINE",
"52 700 LINE",
"52 0 LINE",
"224 0 LINE",
"224 428 LINE"
);
}
);
width = 844;
}
);
unicode = 039C;
},
{
glyphname = Nu;
layers = (
{
hints = (
{
horizontal = 1;
place = "{0, 21}";
target = up;
type = BottomGhost;
},
{
horizontal = 1;
place = "{700, -20}";
target = down;
type = TopGhost;
},
{
horizontal = 1;
place = "{701, -20}";
target = down;
type = TopGhost;
},
{
place = "{68, 173}";
type = Stem;
},
{
place = "{542, 174}";
type = Stem;
}
);
layerId = "E376C904-BF5F-4CD7-8FD3-9BC68FA291DD";
paths = (
{
closed = 1;
nodes = (
"233 700 LINE",
"68 700 LINE",
"68 0 LINE",
"241 0 LINE",
"241 416 LINE",
"560 0 LINE",
"716 0 LINE",
"716 701 LINE",
"542 701 LINE",
"542 296 LINE"
);
}
);
width = 784;
}
);
unicode = 039D;
},
{
glyphname = Omicron;
layers = (
{
hints = (
{
horizontal = 1;
place = "{-14, 159}";
type = Stem;
},
{
horizontal = 1;
place = "{556, 159}";
type = Stem;
},
{
place = "{36, 181}";
type = Stem;
},
{
place = "{606, 181}";
type = Stem;
}
);
layerId = "E376C904-BF5F-4CD7-8FD3-9BC68FA291DD";
paths = (
{
closed = 1;
nodes = (
"787 552 OFFCURVE",
"627 715 OFFCURVE",
"412 715 CURVE SMOOTH",
"197 715 OFFCURVE",
"36 553 OFFCURVE",
"36 350 CURVE SMOOTH",
"36 149 OFFCURVE",
"196 -14 OFFCURVE",
"411 -14 CURVE SMOOTH",
"625 -14 OFFCURVE",
"787 151 OFFCURVE",
"787 352 CURVE SMOOTH"
);
},
{
closed = 1;
nodes = (
"606 239 OFFCURVE",
"528 145 OFFCURVE",
"412 145 CURVE SMOOTH",
"296 145 OFFCURVE",
"217 241 OFFCURVE",
"217 352 CURVE SMOOTH",
"217 464 OFFCURVE",
"295 556 OFFCURVE",
"411 556 CURVE SMOOTH",
"527 556 OFFCURVE",
"606 461 OFFCURVE",
"606 350 CURVE SMOOTH"
);
}
);
width = 823;
}
);
unicode = 039F;
},
{
glyphname = Chi;
layers = (
{
hints = (
{
horizontal = 1;
place = "{0, 21}";
target = up;
type = BottomGhost;
},
{
horizontal = 1;
place = "{701, -20}";
target = down;
type = TopGhost;
},
{
place = "{16, 693}";
type = Stem;
}
);
layerId = "E376C904-BF5F-4CD7-8FD3-9BC68FA291DD";
paths = (
{
closed = 1;
nodes = (
"26 701 LINE",
"259 357 LINE",
"16 0 LINE",
"214 0 LINE",
"361 225 LINE",
"507 0 LINE",
"709 0 LINE",
"467 359 LINE",
"698 701 LINE",
"501 701 LINE",
"365 490 LINE",
"229 701 LINE"
);
}
);
width = 724;
}
);
unicode = 03A7;
},
{
glyphname = Tau;
layers = (
{
hints = (
{
horizontal = 1;
place = "{0, 21}";
target = up;
type = BottomGhost;
},
{
horizontal = 1;
place = "{547, 154}";
type = Stem;
},
{
place = "{228, 176}";
type = Stem;
}
);
layerId = "E376C904-BF5F-4CD7-8FD3-9BC68FA291DD";
paths = (
{
closed = 1;
nodes = (
"404 547 LINE",
"614 547 LINE",
"614 701 LINE",
"18 701 LINE",
"18 547 LINE",
"228 547 LINE",
"228 0 LINE",
"404 0 LINE"
);
}
);
width = 632;
}
);
unicode = 03A4;
},
{
glyphname = Rho;
layers = (
{
hints = (
{
horizontal = 1;
place = "{0, 21}";
target = up;
type = BottomGhost;
},
{
horizontal = 1;
place = "{213, 140}";
type = Stem;
},
{
horizontal = 1;
place = "{552, 149}";
type = Stem;
},
{
place = "{68, 176}";
type = Stem;
},
{
place = "{464, 176}";
type = Stem;
}
);
layerId = "E376C904-BF5F-4CD7-8FD3-9BC68FA291DD";
paths = (
{
closed = 1;
nodes = (
"68 0 LINE",
"244 0 LINE",
"244 213 LINE",
"346 213 LINE SMOOTH",
"515 213 OFFCURVE",
"640 301 OFFCURVE",
"640 461 CURVE SMOOTH",
"640 613 OFFCURVE",
"528 701 OFFCURVE",
"355 701 CURVE SMOOTH",
"68 701 LINE"
);
},
{
closed = 1;
nodes = (
"244 552 LINE",
"342 552 LINE SMOOTH",
"419 552 OFFCURVE",
"464 518 OFFCURVE",
"464 453 CURVE SMOOTH",
"464 392 OFFCURVE",
"418 353 OFFCURVE",
"342 353 CURVE SMOOTH",
"244 353 LINE"
);
}
);
width = 671;
}
);
unicode = 03A1;
},
{
glyphname = Upsilon;
layers = (
{
hints = (
{
horizontal = 1;
place = "{0, 21}";
target = up;
type = BottomGhost;
},
{
horizontal = 1;
place = "{701, -20}";
target = down;
type = TopGhost;
},
{
place = "{275, 177}";
type = Stem;
}
);
layerId = "E376C904-BF5F-4CD7-8FD3-9BC68FA291DD";
paths = (
{
closed = 1;
nodes = (
"452 268 LINE",
"718 701 LINE",
"522 701 LINE",
"365 431 LINE",
"209 701 LINE",
"8 701 LINE",
"275 265 LINE",
"275 0 LINE",
"452 0 LINE"
);
}
);
width = 726;
}
);
unicode = 03A5;
},
{
glyphname = uni0394;
layers = (
{
hints = (
{
horizontal = 1;
place = "{0, 138}";
type = Stem;
},
{
horizontal = 1;
place = "{705, -20}";
target = down;
type = TopGhost;
},
{
place = "{9, 786}";
type = Stem;
}
);
layerId = "E376C904-BF5F-4CD7-8FD3-9BC68FA291DD";
paths = (
{
closed = 1;
nodes = (
"795 0 LINE",
"486 705 LINE",
"318 705 LINE",
"9 0 LINE"
);
},
{
closed = 1;
nodes = (
"249 138 LINE",
"401 505 LINE",
"552 138 LINE"
);
}
);
width = 805;
}
);
unicode = 0394;
},
{
glyphname = uni03A9;
layers = (
{
hints = (
{
horizontal = 1;
place = "{2, 150}";
type = Stem;
},
{
horizontal = 1;
place = "{556, 159}";
type = Stem;
},
{
place = "{59, 181}";
type = Stem;
},
{
place = "{581, 180}";
type = Stem;
}
);
layerId = "E376C904-BF5F-4CD7-8FD3-9BC68FA291DD";
paths = (
{
closed = 1;
nodes = (
"447 2 LINE",
"789 2 LINE",
"789 152 LINE",
"623 152 LINE",
"712 195 OFFCURVE",
"761 305 OFFCURVE",
"761 400 CURVE SMOOTH",
"761 604 OFFCURVE",
"604 715 OFFCURVE",
"411 715 CURVE SMOOTH",
"218 715 OFFCURVE",
"59 605 OFFCURVE",
"59 400 CURVE SMOOTH",
"59 307 OFFCURVE",
"110 194 OFFCURVE",
"197 152 CURVE",
"32 152 LINE",
"32 2 LINE",
"374 2 LINE",
"374 160 LINE",
"288 198 OFFCURVE",
"240 275 OFFCURVE",
"240 368 CURVE SMOOTH",
"240 474 OFFCURVE",
"296 556 OFFCURVE",
"409 556 CURVE SMOOTH",
"522 556 OFFCURVE",
"581 477 OFFCURVE",
"581 368 CURVE SMOOTH",
"581 273 OFFCURVE",
"533 200 OFFCURVE",
"447 160 CURVE"
);
}
);
width = 831;
}
);
unicode = 03A9;
},
{
glyphname = Lambda;
layers = (
{
hints = (
{
horizontal = 1;
place = "{0, 21}";
target = up;
type = BottomGhost;
},
{
horizontal = 1;
place = "{705, -20}";
target = down;
type = TopGhost;
},
{
place = "{17, 755}";
type = Stem;
}
);
layerId = "E376C904-BF5F-4CD7-8FD3-9BC68FA291DD";
paths = (
{
closed = 1;
nodes = (
"583 0 LINE",
"772 0 LINE",
"478 705 LINE",
"311 705 LINE",
"17 0 LINE",
"202 0 LINE",
"393 497 LINE"
);
}
);
width = 786;
}
);
unicode = 039B;
},
{
glyphname = Beta;
layers = (
{
hints = (
{
place = "{68, 171}";
type = Stem;
},
{
place = "{462, 176}";
type = Stem;
},
{
place = "{499, 175}";
type = Stem;
},
{
horizontal = 1;
place = "{0, 142}";
type = Stem;
},
{
horizontal = 1;
place = "{291, 126}";
type = Stem;
},
{
horizontal = 1;
place = "{559, 142}";
type = Stem;
}
);
layerId = "E376C904-BF5F-4CD7-8FD3-9BC68FA291DD";
paths = (
{
closed = 1;
nodes = (
"68 0 LINE",
"405 0 LINE SMOOTH",
"579 0 OFFCURVE",
"674 78 OFFCURVE",
"674 195 CURVE SMOOTH",
"674 287 OFFCURVE",
"622 342 OFFCURVE",
"531 366 CURVE",
"595 393 OFFCURVE",
"638 444 OFFCURVE",
"638 525 CURVE SMOOTH",
"638 639 OFFCURVE",
"540 701 OFFCURVE",
"399 701 CURVE SMOOTH",
"68 701 LINE"
);
},
{
closed = 1;
nodes = (
"239 559 LINE",
"364 559 LINE SMOOTH",
"428 559 OFFCURVE",
"462 534 OFFCURVE",
"462 489 CURVE SMOOTH",
"462 444 OFFCURVE",
"428 417 OFFCURVE",
"361 417 CURVE SMOOTH",
"239 417 LINE"
);
},
{
closed = 1;
nodes = (
"239 291 LINE",
"383 291 LINE SMOOTH",
"462 291 OFFCURVE",
"499 263 OFFCURVE",
"499 218 CURVE SMOOTH",
"499 170 OFFCURVE",
"459 142 OFFCURVE",
"390 142 CURVE SMOOTH",
"239 142 LINE"
);
}
);
width = 714;
}
);
unicode = 0392;
},
{
glyphname = Zeta;
layers = (
{
hints = (
{
horizontal = 1;
place = "{0, 149}";
type = Stem;
},
{
horizontal = 1;
place = "{552, 149}";
type = Stem;
},
{
place = "{24, 616}";
type = Stem;
}
);
layerId = "E376C904-BF5F-4CD7-8FD3-9BC68FA291DD";
paths = (
{
closed = 1;
nodes = (
"640 571 LINE",
"640 701 LINE",
"38 701 LINE",
"38 552 LINE",
"399 552 LINE",
"24 130 LINE",
"24 0 LINE",
"636 0 LINE",
"636 149 LINE",
"265 149 LINE"
);
}
);
width = 672;
}
);
unicode = 0396;
},
{
glyphname = Pi;
layers = (
{
hints = (
{
horizontal = 1;
place = "{0, 21}";
target = up;
type = BottomGhost;
},
{
horizontal = 1;
place = "{545, 156}";
type = Stem;
},
{
place = "{68, 175}";
type = Stem;
},
{
place = "{503, 175}";
type = Stem;
}
);
layerId = "E376C904-BF5F-4CD7-8FD3-9BC68FA291DD";
paths = (
{
closed = 1;
nodes = (
"68 0 LINE",
"243 0 LINE",
"243 545 LINE",
"503 545 LINE",
"503 0 LINE",
"678 0 LINE",
"678 701 LINE",
"68 701 LINE"
);
}
);
width = 746;
}
);
unicode = 03A0;
},
{
glyphname = Xi;
layers = (
{
hints = (
{
horizontal = 1;
place = "{0, 160}";
type = Stem;
},
{
horizontal = 1;
place = "{279, 150}";
type = Stem;
},
{
horizontal = 1;
place = "{541, 160}";
type = Stem;
},
{
place = "{44, 552}";
type = Stem;
}
);
layerId = "E376C904-BF5F-4CD7-8FD3-9BC68FA291DD";
paths = (
{
closed = 1;
nodes = (
"590 541 LINE",
"590 701 LINE",
"50 701 LINE",
"50 541 LINE"
);
},
{
closed = 1;
nodes = (
"556 279 LINE",
"556 429 LINE",
"84 429 LINE",
"84 279 LINE"
);
},
{
closed = 1;
nodes = (
"596 0 LINE",
"596 160 LINE",
"44 160 LINE",
"44 0 LINE"
);
}
);
width = 635;
}
);
unicode = 039E;
},
{
glyphname = Sigma;
layers = (
{
hints = (
{
horizontal = 1;
place = "{0, 149}";
type = Stem;
},
{
horizontal = 1;
place = "{552, 149}";
type = Stem;
},
{
place = "{33, 579}";
type = Stem;
}
);
layerId = "E376C904-BF5F-4CD7-8FD3-9BC68FA291DD";
paths = (
{
closed = 1;
nodes = (
"233 352 LINE",
"33 130 LINE",
"33 0 LINE",
"612 0 LINE",
"612 149 LINE",
"275 149 LINE",
"456 352 LINE",
"284 552 LINE",
"602 552 LINE",
"602 701 LINE",
"43 701 LINE",
"43 571 LINE"
);
}
);
width = 649;
}
);
unicode = 03A3;
},
{
glyphname = Psi;
layers = (
{
hints = (
{
horizontal = 1;
place = "{0, 21}";
target = up;
type = BottomGhost;
},
{
horizontal = 1;
place = "{128, 159}";
type = Stem;
},
{
horizontal = 1;
place = "{701, -20}";
target = down;
type = TopGhost;
},
{
place = "{43, 177}";
type = Stem;
},
{
place = "{362, 176}";
type = Stem;
},
{
place = "{680, 177}";
type = Stem;
}
);
layerId = "E376C904-BF5F-4CD7-8FD3-9BC68FA291DD";
paths = (
{
closed = 1;
nodes = (
"680 449 LINE SMOOTH",
"680 343 OFFCURVE",
"628 287 OFFCURVE",
"538 287 CURVE",
"538 701 LINE",
"362 701 LINE",
"362 287 LINE",
"272 287 OFFCURVE",
"220 343 OFFCURVE",
"220 449 CURVE SMOOTH",
"220 701 LINE",
"43 701 LINE",
"43 446 LINE SMOOTH",
"43 243 OFFCURVE",
"165 128 OFFCURVE",
"360 128 CURVE",
"360 0 LINE",
"537 0 LINE",
"537 128 LINE",
"740 128 OFFCURVE",
"857 241 OFFCURVE",
"857 451 CURVE SMOOTH",
"857 701 LINE",
"680 701 LINE"
);
}
);
width = 897;
}
);
unicode = 03A8;
},
{
glyphname = omicron;
layers = (
{
hints = (
{
horizontal = 1;
place = "{-13, 146}";
type = Stem;
},
{
horizontal = 1;
place = "{398, 145}";
type = Stem;
},
{
place = "{33, 168}";
type = Stem;
},
{
place = "{450, 168}";
type = Stem;
}
);
layerId = "E376C904-BF5F-4CD7-8FD3-9BC68FA291DD";
paths = (
{
closed = 1;
nodes = (
"618 420 OFFCURVE",
"495 543 OFFCURVE",
"326 543 CURVE SMOOTH",
"157 543 OFFCURVE",
"33 418 OFFCURVE",
"33 265 CURVE SMOOTH",
"33 113 OFFCURVE",
"156 -13 OFFCURVE",
"324 -13 CURVE SMOOTH",
"495 -13 OFFCURVE",
"618 116 OFFCURVE",
"618 267 CURVE SMOOTH"
);
},
{
closed = 1;
nodes = (
"450 196 OFFCURVE",
"401 133 OFFCURVE",
"326 133 CURVE SMOOTH",
"255 133 OFFCURVE",
"201 195 OFFCURVE",
"201 267 CURVE SMOOTH",
"201 337 OFFCURVE",
"250 398 OFFCURVE",
"324 398 CURVE SMOOTH",
"398 398 OFFCURVE",
"450 336 OFFCURVE",
"450 265 CURVE SMOOTH"
);
}
);
width = 652;
}
);
unicode = 03BF;
},
{
glyphname = kappa;
layers = (
{
hints = (
{
horizontal = 1;
place = "{0, 21}";
target = up;
type = BottomGhost;
},
{
place = "{47, 172}";
type = Stem;
}
);
layerId = "E376C904-BF5F-4CD7-8FD3-9BC68FA291DD";
paths = (
{
closed = 1;
nodes = (
"219 531 LINE",
"47 531 LINE",
"47 0 LINE",
"219 0 LINE",
"219 272 LINE",
"383 0 LINE",
"574 0 LINE",
"375 312 LINE",
"569 531 LINE",
"372 531 LINE",
"219 347 LINE"
);
}
);
width = 579;
}
);
unicode = 03BA;
},
{
glyphname = nu;
layers = (
{
hints = (
{
horizontal = 1;
place = "{-3, 21}";
target = up;
type = BottomGhost;
},
{
place = "{-2, 585}";
type = Stem;
}
);
layerId = "E376C904-BF5F-4CD7-8FD3-9BC68FA291DD";
paths = (
{
closed = 1;
nodes = (
"583 531 LINE",
"405 531 LINE",
"292 203 LINE",
"180 531 LINE",
"-2 531 LINE",
"212 -3 LINE",
"370 -3 LINE"
);
}
);
width = 603;
}
);
unicode = 03BD;
},
{
glyphname = tonos;
layers = (
{
hints = (
{
horizontal = 1;
place = "{583, 179}";
type = Stem;
},
{
place = "{88, 319}";
type = Stem;
}
);
layerId = "E376C904-BF5F-4CD7-8FD3-9BC68FA291DD";
paths = (
{
closed = 1;
nodes = (
"88 583 LINE",
"210 583 LINE",
"407 762 LINE",
"190 762 LINE"
);
}
);
width = 441;
}
);
unicode = 0384;
},
{
glyphname = Alphatonos;
layers = (
{
hints = (
{
horizontal = 1;
place = "{0, 21}";
target = up;
type = BottomGhost;
},
{
horizontal = 1;
place = "{137, 138}";
type = Stem;
},
{
horizontal = 1;
place = "{526, 179}";
type = Stem;
},
{
place = "{7, 826}";
type = Stem;
}
);
layerId = "E376C904-BF5F-4CD7-8FD3-9BC68FA291DD";
paths = (
{
closed = 1;
nodes = (
"588 137 LINE",
"644 0 LINE",
"833 0 LINE",
"533 705 LINE",
"366 705 LINE",
"66 0 LINE",
"251 0 LINE",
"307 137 LINE"
);
},
{
closed = 1;
nodes = (
"7 526 LINE",
"129 526 LINE",
"326 705 LINE",
"109 705 LINE"
);
},
{
closed = 1;
nodes = (
"448 497 LINE",
"536 275 LINE",
"360 275 LINE"
);
}
);
width = 858;
}
);
unicode = 0386;
},
{
glyphname = Epsilontonos;
layers = (
{
hints = (
{
place = "{371, 174}";
type = Stem;
},
{
horizontal = 1;
place = "{0, 150}";
type = Stem;
},
{
horizontal = 1;
place = "{284, 140}";
type = Stem;
},
{
horizontal = 1;
place = "{522, 179}";
type = Stem;
},
{
horizontal = 1;
place = "{551, 150}";
type = Stem;
}
);
layerId = "E376C904-BF5F-4CD7-8FD3-9BC68FA291DD";
paths = (
{
closed = 1;
nodes = (
"0 522 LINE",
"122 522 LINE",
"319 701 LINE",
"102 701 LINE"
);
},
{
closed = 1;
nodes = (
"545 284 LINE",
"882 284 LINE",
"882 424 LINE",
"545 424 LINE",
"545 551 LINE",
"916 551 LINE",
"916 701 LINE",
"371 701 LINE",
"371 0 LINE",
"922 0 LINE",
"922 150 LINE",
"545 150 LINE"
);
}
);
width = 962;
}
);
unicode = 0388;
},
{
glyphname = Etatonos;
layers = (
{
hints = (
{
horizontal = 1;
place = "{0, 21}";
target = up;
type = BottomGhost;
},
{
horizontal = 1;
place = "{275, 156}";
type = Stem;
},
{
horizontal = 1;
place = "{522, 179}";
type = Stem;
},
{
place = "{371, 175}";
type = Stem;
},
{
place = "{817, 176}";
type = Stem;
}
);
layerId = "E376C904-BF5F-4CD7-8FD3-9BC68FA291DD";
paths = (
{
closed = 1;
nodes = (
"371 0 LINE",
"546 0 LINE",
"546 275 LINE",
"817 275 LINE",
"817 0 LINE",
"993 0 LINE",
"993 701 LINE",
"817 701 LINE",
"817 431 LINE",
"546 431 LINE",
"546 701 LINE",
"371 701 LINE"
);
},
{
closed = 1;
nodes = (
"0 522 LINE",
"122 522 LINE",
"319 701 LINE",
"102 701 LINE"
);
}
);
width = 1061;
}
);
unicode = 0389;
},
{
glyphname = Iotatonos;
layers = (
{
hints = (
{
horizontal = 1;
place = "{0, 21}";
target = up;
type = BottomGhost;
},
{
horizontal = 1;
place = "{522, 179}";
type = Stem;
},
{
place = "{375, 176}";
type = Stem;
}
);
layerId = "E376C904-BF5F-4CD7-8FD3-9BC68FA291DD";
paths = (
{
closed = 1;
nodes = (
"0 522 LINE",
"122 522 LINE",
"319 701 LINE",
"102 701 LINE"
);
},
{
closed = 1;
nodes = (
"551 701 LINE",
"375 701 LINE",
"375 0 LINE",
"551 0 LINE"
);
}
);
width = 619;
}
);
unicode = 038A;
},
{
glyphname = Omicrontonos;
layers = (
{
hints = (
{
place = "{245, 181}";
type = Stem;
},
{
place = "{815, 181}";
type = Stem;
},
{
horizontal = 1;
place = "{-14, 159}";
type = Stem;
},
{
horizontal = 1;
place = "{522, 179}";
type = Stem;
},
{
horizontal = 1;
place = "{556, 159}";
type = Stem;
}
);
layerId = "E376C904-BF5F-4CD7-8FD3-9BC68FA291DD";
paths = (
{
closed = 1;
nodes = (
"996 552 OFFCURVE",
"836 715 OFFCURVE",
"621 715 CURVE SMOOTH",
"406 715 OFFCURVE",
"245 553 OFFCURVE",
"245 350 CURVE SMOOTH",
"245 149 OFFCURVE",
"405 -14 OFFCURVE",
"620 -14 CURVE SMOOTH",
"834 -14 OFFCURVE",
"996 151 OFFCURVE",
"996 352 CURVE SMOOTH"
);
},
{
closed = 1;
nodes = (
"1 522 LINE",
"123 522 LINE",
"320 701 LINE",
"103 701 LINE"
);
},
{
closed = 1;
nodes = (
"815 239 OFFCURVE",
"737 145 OFFCURVE",
"621 145 CURVE SMOOTH",
"505 145 OFFCURVE",
"426 241 OFFCURVE",
"426 352 CURVE SMOOTH",
"426 464 OFFCURVE",
"504 556 OFFCURVE",
"620 556 CURVE SMOOTH",
"736 556 OFFCURVE",
"815 461 OFFCURVE",
"815 350 CURVE SMOOTH"
);
}
);
width = 1032;
}
);
unicode = 038C;
},
{
glyphname = Upsilontonos;
layers = (
{
hints = (
{
horizontal = 1;
place = "{0, 21}";
target = up;
type = BottomGhost;
},
{
horizontal = 1;
place = "{522, 179}";
type = Stem;
},
{
place = "{642, 177}";
type = Stem;
}
);
layerId = "E376C904-BF5F-4CD7-8FD3-9BC68FA291DD";
paths = (
{
closed = 1;
nodes = (
"0 522 LINE",
"122 522 LINE",
"319 701 LINE",
"102 701 LINE"
);
},
{
closed = 1;
nodes = (
"819 268 LINE",
"1085 701 LINE",
"889 701 LINE",
"732 431 LINE",
"576 701 LINE",
"375 701 LINE",
"642 265 LINE",
"642 0 LINE",
"819 0 LINE"
);
}
);
width = 1096;
}
);
unicode = 038E;
},
{
glyphname = Gamma;
layers = (
{
hints = (
{
horizontal = 1;
place = "{0, 21}";
target = up;
type = BottomGhost;
},
{
horizontal = 1;
place = "{547, 154}";
type = Stem;
},
{
place = "{68, 175}";
type = Stem;
}
);
layerId = "E376C904-BF5F-4CD7-8FD3-9BC68FA291DD";
paths = (
{
closed = 1;
nodes = (
"243 547 LINE",
"610 547 LINE",
"610 701 LINE",
"68 701 LINE",
"68 0 LINE",
"243 0 LINE"
);
}
);
width = 615;
}
);
unicode = 0393;
},
{
glyphname = Theta;
layers = (
{
hints = (
{
horizontal = 1;
place = "{-14, 159}";
type = Stem;
},
{
horizontal = 1;
place = "{282, 150}";
type = Stem;
},
{
horizontal = 1;
place = "{556, 159}";
type = Stem;
},
{
place = "{36, 181}";
type = Stem;
},
{
place = "{292, 240}";
type = Stem;
},
{
place = "{606, 181}";
type = Stem;
}
);
layerId = "E376C904-BF5F-4CD7-8FD3-9BC68FA291DD";
paths = (
{
closed = 1;
nodes = (
"787 552 OFFCURVE",
"626 715 OFFCURVE",
"413 715 CURVE SMOOTH",
"197 715 OFFCURVE",
"36 553 OFFCURVE",
"36 350 CURVE SMOOTH",
"36 149 OFFCURVE",
"196 -14 OFFCURVE",
"411 -14 CURVE SMOOTH",
"625 -14 OFFCURVE",
"787 151 OFFCURVE",
"787 352 CURVE SMOOTH"
);
},
{
closed = 1;
nodes = (
"606 239 OFFCURVE",
"528 145 OFFCURVE",
"413 145 CURVE SMOOTH",
"296 145 OFFCURVE",
"217 241 OFFCURVE",
"217 352 CURVE SMOOTH",
"217 464 OFFCURVE",
"295 556 OFFCURVE",
"411 556 CURVE SMOOTH",
"527 556 OFFCURVE",
"606 461 OFFCURVE",
"606 350 CURVE SMOOTH"
);
},
{
closed = 1;
nodes = (
"532 282 LINE",
"532 432 LINE",
"292 432 LINE",
"292 282 LINE"
);
}
);
width = 824;
}
);
unicode = 0398;
},
{
glyphname = Iotadieresis;
layers = (
{
hints = (
{
place = "{-31, 167}";
type = Stem;
},
{
place = "{75, 176}";
type = Stem;
},
{
place = "{190, 166}";
type = Stem;
},
{
horizontal = 1;
place = "{0, 21}";
target = up;
type = BottomGhost;
},
{
horizontal = 1;
place = "{701, -20}";
target = down;
type = TopGhost;
},
{
horizontal = 1;
place = "{728, 162}";
type = Stem;
}
);
layerId = "E376C904-BF5F-4CD7-8FD3-9BC68FA291DD";
paths = (
{
closed = 1;
nodes = (
"-31 757 OFFCURVE",
"5 728 OFFCURVE",
"52 728 CURVE SMOOTH",
"99 728 OFFCURVE",
"136 757 OFFCURVE",
"136 810 CURVE SMOOTH",
"136 862 OFFCURVE",
"99 890 OFFCURVE",
"52 890 CURVE SMOOTH",
"5 890 OFFCURVE",
"-31 862 OFFCURVE",
"-31 810 CURVE SMOOTH"
);
},
{
closed = 1;
nodes = (
"190 757 OFFCURVE",
"227 728 OFFCURVE",
"272 728 CURVE SMOOTH",
"320 728 OFFCURVE",
"356 757 OFFCURVE",
"356 810 CURVE SMOOTH",
"356 862 OFFCURVE",
"320 890 OFFCURVE",
"272 890 CURVE SMOOTH",
"227 890 OFFCURVE",
"190 862 OFFCURVE",
"190 810 CURVE SMOOTH"
);
},
{
closed = 1;
nodes = (
"251 701 LINE",
"75 701 LINE",
"75 0 LINE",
"251 0 LINE"
);
}
);
width = 326;
}
);
unicode = 03AA;
},
{
glyphname = Upsilondieresis;
layers = (
{
hints = (
{
place = "{171, 167}";
type = Stem;
},
{
place = "{275, 177}";
type = Stem;
},
{
place = "{392, 166}";
type = Stem;
},
{
horizontal = 1;
place = "{0, 21}";
target = up;
type = BottomGhost;
},
{
horizontal = 1;
place = "{701, -20}";
target = down;
type = TopGhost;
},
{
horizontal = 1;
place = "{728, 162}";
type = Stem;
}
);
layerId = "E376C904-BF5F-4CD7-8FD3-9BC68FA291DD";
paths = (
{
closed = 1;
nodes = (
"171 757 OFFCURVE",
"207 728 OFFCURVE",
"254 728 CURVE SMOOTH",
"301 728 OFFCURVE",
"338 757 OFFCURVE",
"338 810 CURVE SMOOTH",
"338 862 OFFCURVE",
"301 890 OFFCURVE",
"254 890 CURVE SMOOTH",
"207 890 OFFCURVE",
"171 862 OFFCURVE",
"171 810 CURVE SMOOTH"
);
},
{
closed = 1;
nodes = (
"392 757 OFFCURVE",
"429 728 OFFCURVE",
"474 728 CURVE SMOOTH",
"522 728 OFFCURVE",
"558 757 OFFCURVE",
"558 810 CURVE SMOOTH",
"558 862 OFFCURVE",
"522 890 OFFCURVE",
"474 890 CURVE SMOOTH",
"429 890 OFFCURVE",
"392 862 OFFCURVE",
"392 810 CURVE SMOOTH"
);
},
{
closed = 1;
nodes = (
"452 268 LINE",
"718 701 LINE",
"522 701 LINE",
"365 431 LINE",
"209 701 LINE",
"8 701 LINE",
"275 265 LINE",
"275 0 LINE",
"452 0 LINE"
);
}
);
width = 726;
}
);
unicode = 03AB;
},
{
glyphname = dieresistonos;
layers = (
{
hints = (
{
place = "{6, 149}";
type = Stem;
},
{
place = "{381, 146}";
type = Stem;
},
{
horizontal = 1;
place = "{537, 145}";
type = Stem;
},
{
horizontal = 1;
place = "{537, 149}";
type = Stem;
},
{
horizontal = 1;
place = "{537, 179}";
type = Stem;
}
);
layerId = "E376C904-BF5F-4CD7-8FD3-9BC68FA291DD";
paths = (
{
closed = 1;
nodes = (
"159 537 LINE",
"269 537 LINE",
"416 716 LINE",
"224 716 LINE"
);
},
{
closed = 1;
nodes = (
"498 537 OFFCURVE",
"527 574 OFFCURVE",
"527 611 CURVE SMOOTH",
"527 650 OFFCURVE",
"498 686 OFFCURVE",
"453 686 CURVE SMOOTH",
"412 686 OFFCURVE",
"381 650 OFFCURVE",
"381 611 CURVE SMOOTH",
"381 574 OFFCURVE",
"412 537 OFFCURVE",
"453 537 CURVE SMOOTH"
);
},
{
closed = 1;
nodes = (
"6 565 OFFCURVE",
"41 536 OFFCURVE",
"80 536 CURVE SMOOTH",
"117 536 OFFCURVE",
"155 565 OFFCURVE",
"155 610 CURVE SMOOTH",
"155 651 OFFCURVE",
"117 682 OFFCURVE",
"80 682 CURVE SMOOTH",
"41 682 OFFCURVE",
"6 651 OFFCURVE",
"6 610 CURVE SMOOTH"
);
}
);
width = 540;
}
);
unicode = 0385;
},
{
glyphname = alpha;
layers = (
{
hints = (
{
place = "{32, 170}";
type = Stem;
},
{
place = "{439, 172}";
type = Stem;
},
{
horizontal = 1;
place = "{-12, 144}";
type = Stem;
},
{
horizontal = 1;
place = "{0, 21}";
target = up;
type = BottomGhost;
},
{
horizontal = 1;
place = "{399, 132}";
type = Stem;
},
{
horizontal = 1;
place = "{399, 144}";
type = Stem;
}
);
layerId = "E376C904-BF5F-4CD7-8FD3-9BC68FA291DD";
paths = (
{
closed = 1;
nodes = (
"611 0 LINE",
"611 531 LINE",
"439 531 LINE",
"439 457 LINE",
"396 513 OFFCURVE",
"343 543 OFFCURVE",
"272 543 CURVE SMOOTH",
"119 543 OFFCURVE",
"32 409 OFFCURVE",
"32 265 CURVE SMOOTH",
"32 125 OFFCURVE",
"119 -12 OFFCURVE",
"272 -12 CURVE SMOOTH",
"348 -12 OFFCURVE",
"391 19 OFFCURVE",
"439 75 CURVE"
);
},
{
closed = 1;
nodes = (
"396 399 OFFCURVE",
"442 336 OFFCURVE",
"442 267 CURVE SMOOTH",
"442 198 OFFCURVE",
"396 132 OFFCURVE",
"322 132 CURVE SMOOTH",
"251 132 OFFCURVE",
"202 198 OFFCURVE",
"202 264 CURVE SMOOTH",
"202 335 OFFCURVE",
"246 399 OFFCURVE",
"322 399 CURVE SMOOTH"
);
}
);
width = 629;
}
);
unicode = 03B1;
},
{
glyphname = rho;
layers = (
{
hints = (
{
horizontal = 1;
place = "{-165, 21}";
target = up;
type = BottomGhost;
},
{
horizontal = 1;
place = "{-12, 144}";
type = Stem;
},
{
horizontal = 1;
place = "{399, 144}";
type = Stem;
},
{
place = "{56, 172}";
type = Stem;
},
{
place = "{466, 169}";
type = Stem;
}
);
layerId = "E376C904-BF5F-4CD7-8FD3-9BC68FA291DD";
paths = (
{
closed = 1;
nodes = (
"56 -165 LINE",
"228 -165 LINE",
"228 69 LINE",
"275 13 OFFCURVE",
"328 -12 OFFCURVE",
"395 -12 CURVE SMOOTH",
"551 -12 OFFCURVE",
"635 125 OFFCURVE",
"635 266 CURVE SMOOTH",
"635 436 OFFCURVE",
"510 543 OFFCURVE",
"346 543 CURVE SMOOTH",
"181 543 OFFCURVE",
"56 438 OFFCURVE",
"56 266 CURVE SMOOTH"
);
},
{
closed = 1;
nodes = (
"466 197 OFFCURVE",
"421 132 OFFCURVE",
"345 132 CURVE SMOOTH",
"274 132 OFFCURVE",
"225 192 OFFCURVE",
"225 264 CURVE SMOOTH",
"225 343 OFFCURVE",
"277 399 OFFCURVE",
"345 399 CURVE SMOOTH",
"417 399 OFFCURVE",
"466 338 OFFCURVE",
"466 267 CURVE SMOOTH"
);
}
);
width = 669;
}
);
unicode = 03C1;
},
{
glyphname = iota;
layers = (
{
hints = (
{
horizontal = 1;
place = "{0, 21}";
target = up;
type = BottomGhost;
},
{
place = "{61, 172}";
type = Stem;
}
);
layerId = "E376C904-BF5F-4CD7-8FD3-9BC68FA291DD";
paths = (
{
closed = 1;
nodes = (
"233 531 LINE",
"61 531 LINE",
"61 0 LINE",
"233 0 LINE"
);
}
);
width = 254;
}
);
unicode = 03B9;
},
{
glyphname = eta;
layers = (
{
hints = (
{
horizontal = 1;
place = "{0, 21}";
target = up;
type = BottomGhost;
},
{
horizontal = 1;
place = "{390, 153}";
type = Stem;
},
{
place = "{45, 172}";
type = Stem;
},
{
place = "{388, 172}";
type = Stem;
}
);
layerId = "E376C904-BF5F-4CD7-8FD3-9BC68FA291DD";
paths = (
{
closed = 1;
nodes = (
"302 543 OFFCURVE",
"252 502 OFFCURVE",
"217 458 CURVE",
"45 531 LINE",
"45 0 LINE",
"217 0 LINE",
"217 291 LINE SMOOTH",
"217 359 OFFCURVE",
"261 390 OFFCURVE",
"305 390 CURVE SMOOTH",
"351 390 OFFCURVE",
"388 358 OFFCURVE",
"388 291 CURVE SMOOTH",
"388 0 LINE",
"560 0 LINE",
"560 346 LINE SMOOTH",
"560 469 OFFCURVE",
"483 543 OFFCURVE",
"378 543 CURVE SMOOTH"
);
}
);
width = 610;
}
);
unicode = 03B7;
},
{
glyphname = gamma;
layers = (
{
hints = (
{
horizontal = 1;
place = "{-165, 21}";
target = up;
type = BottomGhost;
},
{
place = "{192, 172}";
type = Stem;
}
);
layerId = "E376C904-BF5F-4CD7-8FD3-9BC68FA291DD";
paths = (
{
closed = 1;
nodes = (
"364 16 LINE",
"570 531 LINE",
"391 531 LINE",
"279 203 LINE",
"167 531 LINE",
"-15 531 LINE",
"192 13 LINE",
"192 -165 LINE",
"364 -165 LINE"
);
}
);
width = 588;
}
);
unicode = 03B3;
},
{
glyphname = upsilon;
layers = (
{
hints = (
{
horizontal = 1;
place = "{-12, 147}";
type = Stem;
},
{
place = "{38, 172}";
type = Stem;
},
{
place = "{381, 172}";
type = Stem;
}
);
layerId = "E376C904-BF5F-4CD7-8FD3-9BC68FA291DD";
paths = (
{
closed = 1;
nodes = (
"553 531 LINE",
"381 531 LINE",
"381 236 LINE SMOOTH",
"381 182 OFFCURVE",
"354 135 OFFCURVE",
"295 135 CURVE SMOOTH",
"234 135 OFFCURVE",
"210 181 OFFCURVE",
"210 237 CURVE SMOOTH",
"210 531 LINE",
"38 531 LINE",
"38 234 LINE SMOOTH",
"38 69 OFFCURVE",
"134 -12 OFFCURVE",
"295 -12 CURVE SMOOTH",
"453 -12 OFFCURVE",
"553 67 OFFCURVE",
"553 238 CURVE SMOOTH"
);
}
);
width = 595;
}
);
unicode = 03C5;
},
{
glyphname = beta;
layers = (
{
hints = (
{
place = "{57, 172}";
type = Stem;
},
{
place = "{416, 169}";
type = Stem;
},
{
place = "{452, 169}";
type = Stem;
},
{
horizontal = 1;
place = "{-165, 21}";
target = up;
type = BottomGhost;
},
{
horizontal = 1;
place = "{-12, 145}";
type = Stem;
},
{
horizontal = 1;
place = "{321, 95}";
type = Stem;
},
{
horizontal = 1;
place = "{591, 146}";
type = Stem;
}
);
layerId = "E376C904-BF5F-4CD7-8FD3-9BC68FA291DD";
paths = (
{
closed = 1;
nodes = (
"524 -12 OFFCURVE",
"621 77 OFFCURVE",
"621 200 CURVE SMOOTH",
"621 301 OFFCURVE",
"565 363 OFFCURVE",
"477 384 CURVE",
"538 408 OFFCURVE",
"585 458 OFFCURVE",
"585 534 CURVE SMOOTH",
"585 649 OFFCURVE",
"490 737 OFFCURVE",
"330 737 CURVE SMOOTH",
"159 737 OFFCURVE",
"57 633 OFFCURVE",
"57 481 CURVE SMOOTH",
"57 -165 LINE",
"229 -165 LINE",
"229 72 LINE",
"266 28 OFFCURVE",
"320 -12 OFFCURVE",
"403 -12 CURVE SMOOTH"
);
},
{
closed = 1;
nodes = (
"288 133 OFFCURVE",
"229 188 OFFCURVE",
"229 265 CURVE SMOOTH",
"229 483 LINE SMOOTH",
"229 549 OFFCURVE",
"271 591 OFFCURVE",
"328 591 CURVE SMOOTH",
"372 591 OFFCURVE",
"416 566 OFFCURVE",
"416 507 CURVE SMOOTH",
"416 469 OFFCURVE",
"398 419 OFFCURVE",
"323 416 CURVE",
"323 321 LINE",
"414 321 OFFCURVE",
"452 278 OFFCURVE",
"452 225 CURVE SMOOTH",
"452 173 OFFCURVE",
"412 133 OFFCURVE",
"356 133 CURVE SMOOTH"
);
}
);
width = 655;
}
);
unicode = 03B2;
},
{
glyphname = pi;
layers = (
{
hints = (
{
horizontal = 1;
place = "{0, 21}";
target = up;
type = BottomGhost;
},
{
horizontal = 1;
place = "{394, 137}";
type = Stem;
},
{
place = "{45, 172}";
type = Stem;
},
{
place = "{378, 172}";
type = Stem;
}
);
layerId = "E376C904-BF5F-4CD7-8FD3-9BC68FA291DD";
paths = (
{
closed = 1;
nodes = (
"45 531 LINE",
"45 0 LINE",
"217 0 LINE",
"217 394 LINE",
"378 394 LINE",
"378 0 LINE",
"550 0 LINE",
"550 531 LINE"
);
}
);
width = 600;
}
);
unicode = 03C0;
},
{
glyphname = uni03BC;
layers = (
{
hints = (
{
place = "{61, 172}";
type = Stem;
},
{
place = "{405, 172}";
type = Stem;
},
{
horizontal = 1;
place = "{-165, 21}";
target = up;
type = BottomGhost;
},
{
horizontal = 1;
place = "{-12, 153}";
type = Stem;
},
{
horizontal = 1;
place = "{0, 21}";
target = up;
type = BottomGhost;
}
);
layerId = "E376C904-BF5F-4CD7-8FD3-9BC68FA291DD";
paths = (
{
closed = 1;
nodes = (
"233 41 LINE",
"249 5 OFFCURVE",
"279 -12 OFFCURVE",
"311 -12 CURVE SMOOTH",
"358 -12 OFFCURVE",
"392 34 OFFCURVE",
"405 72 CURVE",
"577 0 LINE",
"577 531 LINE",
"405 531 LINE",
"405 241 LINE SMOOTH",
"405 184 OFFCURVE",
"373 141 OFFCURVE",
"317 141 CURVE SMOOTH",
"269 141 OFFCURVE",
"233 175 OFFCURVE",
"233 241 CURVE SMOOTH",
"233 531 LINE",
"61 531 LINE",
"61 -165 LINE",
"233 -165 LINE"
);
}
);
width = 596;
}
);
unicode = 03BC;
},
{
glyphname = tau;
layers = (
{
hints = (
{
place = "{115, 172}";
type = Stem;
},
{
horizontal = 1;
place = "{-11, 147}";
type = Stem;
},
{
horizontal = 1;
place = "{-11, 21}";
target = up;
type = BottomGhost;
},
{
horizontal = 1;
place = "{392, 139}";
type = Stem;
}
);
layerId = "E376C904-BF5F-4CD7-8FD3-9BC68FA291DD";
paths = (
{
closed = 1;
nodes = (
"-11 531 LINE",
"-11 392 LINE",
"115 392 LINE",
"115 160 LINE SMOOTH",
"115 39 OFFCURVE",
"181 -11 OFFCURVE",
"286 -11 CURVE SMOOTH",
"334 -11 OFFCURVE",
"373 0 OFFCURVE",
"404 17 CURVE",
"404 152 LINE",
"384 143 OFFCURVE",
"359 136 OFFCURVE",
"338 136 CURVE SMOOTH",
"303 136 OFFCURVE",
"287 154 OFFCURVE",
"287 191 CURVE SMOOTH",
"287 392 LINE",
"414 392 LINE",
"414 531 LINE"
);
}
);
width = 423;
}
);
unicode = 03C4;
},
{
glyphname = Phi;
layers = (
{
hints = (
{
place = "{36, 178}";
type = Stem;
},
{
place = "{392, 167}";
type = Stem;
},
{
place = "{734, 179}";
type = Stem;
},
{
horizontal = 1;
place = "{-5, 206}";
type = Stem;
},
{
horizontal = 1;
place = "{52, 149}";
type = Stem;
},
{
horizontal = 1;
place = "{506, 151}";
type = Stem;
},
{
horizontal = 1;
place = "{506, 200}";
type = Stem;
}
);
layerId = "E376C904-BF5F-4CD7-8FD3-9BC68FA291DD";
paths = (
{
closed = 1;
nodes = (
"559 706 LINE",
"392 706 LINE",
"392 658 LINE",
"385 658 OFFCURVE",
"381 657 OFFCURVE",
"374 657 CURVE",
"159 652 OFFCURVE",
"36 522 OFFCURVE",
"36 354 CURVE SMOOTH",
"36 186 OFFCURVE",
"159 57 OFFCURVE",
"374 52 CURVE",
"381 52 OFFCURVE",
"385 51 OFFCURVE",
"392 51 CURVE",
"392 -5 LINE",
"559 -5 LINE",
"559 51 LINE",
"569 52 LINE",
"578 52 LINE",
"790 57 OFFCURVE",
"913 186 OFFCURVE",
"913 356 CURVE SMOOTH",
"913 523 OFFCURVE",
"790 652 OFFCURVE",
"578 657 CURVE",
"571 657 OFFCURVE",
"566 658 OFFCURVE",
"559 658 CURVE"
);
},
{
closed = 1;
nodes = (
"559 506 LINE",
"659 503 OFFCURVE",
"734 442 OFFCURVE",
"734 352 CURVE SMOOTH",
"734 263 OFFCURVE",
"657 204 OFFCURVE",
"559 201 CURVE"
);
},
{
closed = 1;
nodes = (
"392 201 LINE",
"293 204 OFFCURVE",
"214 257 OFFCURVE",
"214 355 CURVE SMOOTH",
"214 449 OFFCURVE",
"293 503 OFFCURVE",
"392 506 CURVE"
);
}
);
width = 949;
}
);
unicode = 03A6;
},
{
glyphname = chi;
layers = (
{
hints = (
{
horizontal = 1;
place = "{-165, 21}";
target = up;
type = BottomGhost;
},
{
place = "{-2, 557}";
type = Stem;
}
);
layerId = "E376C904-BF5F-4CD7-8FD3-9BC68FA291DD";
paths = (
{
closed = 1;
nodes = (
"278 349 LINE",
"189 531 LINE",
"3 531 LINE",
"185 194 LINE",
"-2 -165 LINE",
"180 -165 LINE",
"275 32 LINE",
"369 -165 LINE",
"555 -165 LINE",
"367 197 LINE",
"549 531 LINE",
"367 531 LINE"
);
}
);
width = 554;
}
);
unicode = 03C7;
},
{
glyphname = sigma;
layers = (
{
hints = (
{
horizontal = 1;
place = "{-13, 146}";
type = Stem;
},
{
horizontal = 1;
place = "{386, 145}";
type = Stem;
},
{
place = "{33, 168}";
type = Stem;
},
{
place = "{450, 168}";
type = Stem;
}
);
layerId = "E376C904-BF5F-4CD7-8FD3-9BC68FA291DD";
paths = (
{
closed = 1;
nodes = (
"682 392 LINE",
"682 531 LINE",
"330 531 LINE SMOOTH",
"153 531 OFFCURVE",
"33 411 OFFCURVE",
"33 259 CURVE SMOOTH",
"33 110 OFFCURVE",
"153 -13 OFFCURVE",
"324 -13 CURVE SMOOTH",
"473 -13 OFFCURVE",
"618 89 OFFCURVE",
"618 246 CURVE SMOOTH",
"618 313 OFFCURVE",
"585 363 OFFCURVE",
"536 392 CURVE"
);
},
{
closed = 1;
nodes = (
"450 190 OFFCURVE",
"401 133 OFFCURVE",
"326 133 CURVE SMOOTH",
"251 133 OFFCURVE",
"201 196 OFFCURVE",
"201 261 CURVE SMOOTH",
"201 334 OFFCURVE",
"250 386 OFFCURVE",
"325 386 CURVE SMOOTH",
"401 386 OFFCURVE",
"450 334 OFFCURVE",
"450 259 CURVE SMOOTH"
);
}
);
width = 691;
}
);
unicode = 03C3;
},
{
glyphname = theta;
layers = (
{
hints = (
{
horizontal = 1;
place = "{-13, 146}";
type = Stem;
},
{
horizontal = 1;
place = "{299, 137}";
type = Stem;
},
{
horizontal = 1;
place = "{591, 146}";
type = Stem;
},
{
place = "{33, 173}";
type = Stem;
},
{
place = "{422, 172}";
type = Stem;
}
);
layerId = "E376C904-BF5F-4CD7-8FD3-9BC68FA291DD";
paths = (
{
closed = 1;
nodes = (
"132 737 OFFCURVE",
"33 578 OFFCURVE",
"33 360 CURVE SMOOTH",
"33 336 OFFCURVE",
"34 314 OFFCURVE",
"37 291 CURVE SMOOTH",
"58 104 OFFCURVE",
"159 -13 OFFCURVE",
"314 -13 CURVE SMOOTH",
"475 -13 OFFCURVE",
"576 112 OFFCURVE",
"592 308 CURVE",
"595 328 OFFCURVE",
"594 348 OFFCURVE",
"594 367 CURVE SMOOTH",
"594 551 OFFCURVE",
"512 737 OFFCURVE",
"316 737 CURVE SMOOTH"
);
},
{
closed = 1;
nodes = (
"206 436 LINE",
"211 481 OFFCURVE",
"221 516 OFFCURVE",
"236 540 CURVE",
"257 576 OFFCURVE",
"286 591 OFFCURVE",
"314 591 CURVE SMOOTH",
"347 591 OFFCURVE",
"372 572 OFFCURVE",
"389 543 CURVE",
"405 519 OFFCURVE",
"415 484 OFFCURVE",
"422 436 CURVE"
);
},
{
closed = 1;
nodes = (
"423 299 LINE",
"419 258 OFFCURVE",
"411 226 OFFCURVE",
"399 201 CURVE",
"396 196 OFFCURVE",
"395 192 OFFCURVE",
"392 189 CURVE",
"376 158 OFFCURVE",
"349 133 OFFCURVE",
"312 133 CURVE SMOOTH",
"288 133 OFFCURVE",
"263 145 OFFCURVE",
"243 174 CURVE",
"226 201 OFFCURVE",
"212 242 OFFCURVE",
"205 299 CURVE"
);
}
);
width = 628;
}
);
unicode = 03B8;
},
{
glyphname = lambda;
layers = (
{
hints = (
{
horizontal = 1;
place = "{0, 21}";
target = up;
type = BottomGhost;
},
{
horizontal = 1;
place = "{601, 136}";
type = Stem;
},
{
place = "{3, 585}";
type = Stem;
}
);
layerId = "E376C904-BF5F-4CD7-8FD3-9BC68FA291DD";
paths = (
{
closed = 1;
nodes = (
"212 527 LINE",
"3 0 LINE",
"184 0 LINE",
"298 340 LINE",
"411 0 LINE",
"588 0 LINE",
"380 541 LINE SMOOTH",
"342 638 OFFCURVE",
"304 737 OFFCURVE",
"180 737 CURVE SMOOTH",
"128 737 OFFCURVE",
"76 720 OFFCURVE",
"29 696 CURVE",
"65 565 LINE",
"92 582 OFFCURVE",
"121 601 OFFCURVE",
"154 601 CURVE SMOOTH",
"186 601 OFFCURVE",
"209 556 OFFCURVE",
"212 528 CURVE"
);
}
);
width = 592;
}
);
unicode = 03BB;
},
{
glyphname = psi;
layers = (
{
hints = (
{
horizontal = 1;
place = "{-165, 21}";
target = up;
type = BottomGhost;
},
{
horizontal = 1;
place = "{-12, 147}";
type = Stem;
},
{
place = "{49, 172}";
type = Stem;
},
{
place = "{345, 172}";
type = Stem;
},
{
place = "{644, 172}";
type = Stem;
}
);
layerId = "E376C904-BF5F-4CD7-8FD3-9BC68FA291DD";
paths = (
{
closed = 1;
nodes = (
"345 -165 LINE",
"517 -165 LINE",
"517 -12 LINE",
"676 -12 OFFCURVE",
"816 64 OFFCURVE",
"816 240 CURVE SMOOTH",
"816 531 LINE",
"644 531 LINE",
"644 240 LINE SMOOTH",
"644 169 OFFCURVE",
"593 135 OFFCURVE",
"517 135 CURVE",
"517 730 LINE",
"345 730 LINE",
"345 135 LINE",
"269 135 OFFCURVE",
"221 167 OFFCURVE",
"221 240 CURVE SMOOTH",
"221 531 LINE",
"49 531 LINE",
"49 236 LINE SMOOTH",
"49 65 OFFCURVE",
"188 -12 OFFCURVE",
"345 -12 CURVE"
);
}
);
width = 855;
}
);
unicode = 03C8;
},
{
glyphname = epsilon;
layers = (
{
hints = (
{
place = "{34, 168}";
type = Stem;
},
{
place = "{55, 168}";
type = Stem;
},
{
horizontal = 1;
place = "{-13, 146}";
type = Stem;
},
{
horizontal = 1;
place = "{206, 126}";
type = Stem;
},
{
horizontal = 1;
place = "{398, 145}";
type = Stem;
}
);
layerId = "E376C904-BF5F-4CD7-8FD3-9BC68FA291DD";
paths = (
{
closed = 1;
nodes = (
"241 133 OFFCURVE",
"202 144 OFFCURVE",
"202 169 CURVE SMOOTH",
"202 190 OFFCURVE",
"224 206 OFFCURVE",
"287 206 CURVE SMOOTH",
"363 206 LINE",
"363 332 LINE",
"307 332 LINE SMOOTH",
"262 332 OFFCURVE",
"223 339 OFFCURVE",
"223 366 CURVE SMOOTH",
"223 386 OFFCURVE",
"254 398 OFFCURVE",
"291 398 CURVE SMOOTH",
"323 398 OFFCURVE",
"369 391 OFFCURVE",
"430 355 CURVE",
"472 489 LINE",
"408 528 OFFCURVE",
"340 543 OFFCURVE",
"276 543 CURVE SMOOTH",
"158 543 OFFCURVE",
"55 495 OFFCURVE",
"55 394 CURVE SMOOTH",
"55 339 OFFCURVE",
"87 298 OFFCURVE",
"146 275 CURVE",
"73 255 OFFCURVE",
"34 209 OFFCURVE",
"34 149 CURVE SMOOTH",
"34 47 OFFCURVE",
"149 -13 OFFCURVE",
"274 -13 CURVE SMOOTH",
"339 -13 OFFCURVE",
"413 3 OFFCURVE",
"481 35 CURVE",
"450 175 LINE",
"378 142 OFFCURVE",
"333 133 OFFCURVE",
"288 133 CURVE SMOOTH"
);
}
);
width = 503;
}
);
unicode = 03B5;
},
{
glyphname = delta;
layers = (
{
hints = (
{
horizontal = 1;
place = "{-13, 146}";
type = Stem;
},
{
horizontal = 1;
place = "{370, 117}";
type = Stem;
},
{
horizontal = 1;
place = "{598, 137}";
type = Stem;
},
{
place = "{33, 168}";
type = Stem;
},
{
place = "{445, 168}";
type = Stem;
}
);
layerId = "E376C904-BF5F-4CD7-8FD3-9BC68FA291DD";
paths = (
{
closed = 1;
nodes = (
"342 598 LINE",
"529 598 LINE",
"529 735 LINE",
"89 735 LINE",
"89 598 LINE",
"282 486 LINE",
"274 487 OFFCURVE",
"266 487 OFFCURVE",
"259 487 CURVE SMOOTH",
"212 487 OFFCURVE",
"157 471 OFFCURVE",
"111 431 CURVE SMOOTH",
"65 390 OFFCURVE",
"33 328 OFFCURVE",
"33 252 CURVE SMOOTH",
"33 109 OFFCURVE",
"152 -13 OFFCURVE",
"322 -13 CURVE SMOOTH",
"493 -13 OFFCURVE",
"613 103 OFFCURVE",
"613 254 CURVE SMOOTH",
"613 370 OFFCURVE",
"554 450 OFFCURVE",
"456 516 CURVE"
);
},
{
closed = 1;
nodes = (
"445 191 OFFCURVE",
"398 133 OFFCURVE",
"324 133 CURVE SMOOTH",
"250 133 OFFCURVE",
"201 189 OFFCURVE",
"201 253 CURVE SMOOTH",
"201 314 OFFCURVE",
"247 370 OFFCURVE",
"323 370 CURVE SMOOTH",
"400 370 OFFCURVE",
"445 314 OFFCURVE",
"445 252 CURVE SMOOTH"
);
}
);
width = 648;
}
);
unicode = 03B4;
},
{
glyphname = alphatonos;
layers = (
{
hints = (
{
place = "{32, 170}";
type = Stem;
},
{
place = "{439, 172}";
type = Stem;
},
{
horizontal = 1;
place = "{-12, 144}";
type = Stem;
},
{
horizontal = 1;
place = "{0, 21}";
target = up;
type = BottomGhost;
},
{
horizontal = 1;
place = "{399, 132}";
type = Stem;
},
{
horizontal = 1;
place = "{399, 144}";
type = Stem;
},
{
horizontal = 1;
place = "{583, 179}";
type = Stem;
}
);
layerId = "E376C904-BF5F-4CD7-8FD3-9BC68FA291DD";
paths = (
{
closed = 1;
nodes = (
"235 583 LINE",
"357 583 LINE",
"554 762 LINE",
"337 762 LINE"
);
},
{
closed = 1;
nodes = (
"611 0 LINE",
"611 531 LINE",
"439 531 LINE",
"439 457 LINE",
"396 513 OFFCURVE",
"343 543 OFFCURVE",
"272 543 CURVE SMOOTH",
"119 543 OFFCURVE",
"32 409 OFFCURVE",
"32 265 CURVE SMOOTH",
"32 125 OFFCURVE",
"119 -12 OFFCURVE",
"272 -12 CURVE SMOOTH",
"348 -12 OFFCURVE",
"391 19 OFFCURVE",
"439 75 CURVE"
);
},
{
closed = 1;
nodes = (
"396 399 OFFCURVE",
"442 336 OFFCURVE",
"442 267 CURVE SMOOTH",
"442 198 OFFCURVE",
"396 132 OFFCURVE",
"322 132 CURVE SMOOTH",
"251 132 OFFCURVE",
"202 198 OFFCURVE",
"202 264 CURVE SMOOTH",
"202 335 OFFCURVE",
"246 399 OFFCURVE",
"322 399 CURVE SMOOTH"
);
}
);
width = 630;
}
);
unicode = 03AC;
},
{
glyphname = etatonos;
layers = (
{
hints = (
{
horizontal = 1;
place = "{0, 21}";
target = up;
type = BottomGhost;
},
{
horizontal = 1;
place = "{390, 153}";
type = Stem;
},
{
horizontal = 1;
place = "{583, 179}";
type = Stem;
},
{
place = "{45, 172}";
type = Stem;
},
{
place = "{388, 172}";
type = Stem;
}
);
layerId = "E376C904-BF5F-4CD7-8FD3-9BC68FA291DD";
paths = (
{
closed = 1;
nodes = (
"212 583 LINE",
"334 583 LINE",
"531 762 LINE",
"314 762 LINE"
);
},
{
closed = 1;
nodes = (
"302 543 OFFCURVE",
"252 502 OFFCURVE",
"217 458 CURVE",
"45 531 LINE",
"45 0 LINE",
"217 0 LINE",
"217 291 LINE SMOOTH",
"217 359 OFFCURVE",
"261 390 OFFCURVE",
"305 390 CURVE SMOOTH",
"351 390 OFFCURVE",
"388 358 OFFCURVE",
"388 291 CURVE SMOOTH",
"388 0 LINE",
"560 0 LINE",
"560 346 LINE SMOOTH",
"560 469 OFFCURVE",
"483 543 OFFCURVE",
"378 543 CURVE SMOOTH"
);
}
);
width = 610;
}
);
unicode = 03AE;
},
{
glyphname = iotatonos;
layers = (
{
hints = (
{
horizontal = 1;
place = "{0, 21}";
target = up;
type = BottomGhost;
},
{
horizontal = 1;
place = "{583, 179}";
type = Stem;
},
{
place = "{61, 172}";
type = Stem;
}
);
layerId = "E376C904-BF5F-4CD7-8FD3-9BC68FA291DD";
paths = (
{
closed = 1;
nodes = (
"81 583 LINE",
"203 583 LINE",
"400 762 LINE",
"183 762 LINE"
);
},
{
closed = 1;
nodes = (
"233 531 LINE",
"61 531 LINE",
"61 0 LINE",
"233 0 LINE"
);
}
);
width = 273;
}
);
unicode = 03AF;
},
{
glyphname = omicrontonos;
layers = (
{
hints = (
{
horizontal = 1;
place = "{-13, 146}";
type = Stem;
},
{
horizontal = 1;
place = "{398, 145}";
type = Stem;
},
{
horizontal = 1;
place = "{583, 179}";
type = Stem;
},
{
place = "{33, 168}";
type = Stem;
},
{
place = "{450, 168}";
type = Stem;
}
);
layerId = "E376C904-BF5F-4CD7-8FD3-9BC68FA291DD";
paths = (
{
closed = 1;
nodes = (
"256 583 LINE",
"378 583 LINE",
"575 762 LINE",
"358 762 LINE"
);
},
{
closed = 1;
nodes = (
"618 420 OFFCURVE",
"495 543 OFFCURVE",
"326 543 CURVE SMOOTH",
"157 543 OFFCURVE",
"33 418 OFFCURVE",
"33 265 CURVE SMOOTH",
"33 113 OFFCURVE",
"156 -13 OFFCURVE",
"324 -13 CURVE SMOOTH",
"495 -13 OFFCURVE",
"618 116 OFFCURVE",
"618 267 CURVE SMOOTH"
);
},
{
closed = 1;
nodes = (
"450 196 OFFCURVE",
"401 133 OFFCURVE",
"326 133 CURVE SMOOTH",
"255 133 OFFCURVE",
"201 195 OFFCURVE",
"201 267 CURVE SMOOTH",
"201 337 OFFCURVE",
"250 398 OFFCURVE",
"324 398 CURVE SMOOTH",
"398 398 OFFCURVE",
"450 336 OFFCURVE",
"450 265 CURVE SMOOTH"
);
}
);
width = 652;
}
);
unicode = 03CC;
},
{
glyphname = upsilontonos;
layers = (
{
hints = (
{
horizontal = 1;
place = "{-12, 147}";
type = Stem;
},
{
horizontal = 1;
place = "{583, 179}";
type = Stem;
},
{
place = "{38, 172}";
type = Stem;
},
{
place = "{381, 172}";
type = Stem;
}
);
layerId = "E376C904-BF5F-4CD7-8FD3-9BC68FA291DD";
paths = (
{
closed = 1;
nodes = (
"228 583 LINE",
"350 583 LINE",
"547 762 LINE",
"330 762 LINE"
);
},
{
closed = 1;
nodes = (
"553 531 LINE",
"381 531 LINE",
"381 236 LINE SMOOTH",
"381 182 OFFCURVE",
"354 135 OFFCURVE",
"295 135 CURVE SMOOTH",
"234 135 OFFCURVE",
"210 181 OFFCURVE",
"210 237 CURVE SMOOTH",
"210 531 LINE",
"38 531 LINE",
"38 234 LINE SMOOTH",
"38 69 OFFCURVE",
"134 -12 OFFCURVE",
"295 -12 CURVE SMOOTH",
"453 -12 OFFCURVE",
"553 67 OFFCURVE",
"553 238 CURVE SMOOTH"
);
}
);
width = 595;
}
);
unicode = 03CD;
},
{
glyphname = iotadieresistonos;
layers = (
{
hints = (
{
place = "{-69, 149}";
type = Stem;
},
{
place = "{105, 172}";
type = Stem;
},
{
place = "{306, 146}";
type = Stem;
},
{
horizontal = 1;
place = "{0, 21}";
target = up;
type = BottomGhost;
},
{
horizontal = 1;
place = "{608, 146}";
type = Stem;
},
{
horizontal = 1;
place = "{609, 149}";
type = Stem;
},
{
horizontal = 1;
place = "{609, 179}";
type = Stem;
}
);
layerId = "E376C904-BF5F-4CD7-8FD3-9BC68FA291DD";
paths = (
{
closed = 1;
nodes = (
"84 609 LINE",
"194 609 LINE",
"341 788 LINE",
"149 788 LINE"
);
},
{
closed = 1;
nodes = (
"423 609 OFFCURVE",
"452 646 OFFCURVE",
"452 683 CURVE SMOOTH",
"452 722 OFFCURVE",
"423 758 OFFCURVE",
"378 758 CURVE SMOOTH",
"337 758 OFFCURVE",
"306 722 OFFCURVE",
"306 683 CURVE SMOOTH",
"306 646 OFFCURVE",
"337 609 OFFCURVE",
"378 609 CURVE SMOOTH"
);
},
{
closed = 1;
nodes = (
"-69 637 OFFCURVE",
"-34 608 OFFCURVE",
"5 608 CURVE SMOOTH",
"42 608 OFFCURVE",
"80 637 OFFCURVE",
"80 682 CURVE SMOOTH",
"80 723 OFFCURVE",
"42 754 OFFCURVE",
"5 754 CURVE SMOOTH",
"-34 754 OFFCURVE",
"-69 723 OFFCURVE",
"-69 682 CURVE SMOOTH"
);
},
{
closed = 1;
nodes = (
"277 531 LINE",
"105 531 LINE",
"105 0 LINE",
"277 0 LINE"
);
}
);
width = 373;
}
);
unicode = 0390;
},
{
glyphname = iotadieresis;
layers = (
{
hints = (
{
place = "{-34, 167}";
type = Stem;
},
{
place = "{74, 172}";
type = Stem;
},
{
place = "{187, 166}";
type = Stem;
},
{
horizontal = 1;
place = "{0, 21}";
target = up;
type = BottomGhost;
},
{
horizontal = 1;
place = "{566, 162}";
type = Stem;
}
);
layerId = "E376C904-BF5F-4CD7-8FD3-9BC68FA291DD";
paths = (
{
closed = 1;
nodes = (
"-34 595 OFFCURVE",
"2 566 OFFCURVE",
"49 566 CURVE SMOOTH",
"96 566 OFFCURVE",
"133 595 OFFCURVE",
"133 648 CURVE SMOOTH",
"133 700 OFFCURVE",
"96 728 OFFCURVE",
"49 728 CURVE SMOOTH",
"2 728 OFFCURVE",
"-34 700 OFFCURVE",
"-34 648 CURVE SMOOTH"
);
},
{
closed = 1;
nodes = (
"187 595 OFFCURVE",
"224 566 OFFCURVE",
"269 566 CURVE SMOOTH",
"317 566 OFFCURVE",
"353 595 OFFCURVE",
"353 648 CURVE SMOOTH",
"353 700 OFFCURVE",
"317 728 OFFCURVE",
"269 728 CURVE SMOOTH",
"224 728 OFFCURVE",
"187 700 OFFCURVE",
"187 648 CURVE SMOOTH"
);
},
{
closed = 1;
nodes = (
"246 531 LINE",
"74 531 LINE",
"74 0 LINE",
"246 0 LINE"
);
}
);
width = 318;
}
);
unicode = 03CA;
},
{
glyphname = upsilondieresis;
layers = (
{
hints = (
{
place = "{38, 172}";
type = Stem;
},
{
place = "{104, 167}";
type = Stem;
},
{
place = "{325, 166}";
type = Stem;
},
{
place = "{381, 172}";
type = Stem;
},
{
horizontal = 1;
place = "{-12, 147}";
type = Stem;
},
{
horizontal = 1;
place = "{566, 162}";
type = Stem;
}
);
layerId = "E376C904-BF5F-4CD7-8FD3-9BC68FA291DD";
paths = (
{
closed = 1;
nodes = (
"104 595 OFFCURVE",
"140 566 OFFCURVE",
"187 566 CURVE SMOOTH",
"234 566 OFFCURVE",
"271 595 OFFCURVE",
"271 648 CURVE SMOOTH",
"271 700 OFFCURVE",
"234 728 OFFCURVE",
"187 728 CURVE SMOOTH",
"140 728 OFFCURVE",
"104 700 OFFCURVE",
"104 648 CURVE SMOOTH"
);
},
{
closed = 1;
nodes = (
"325 595 OFFCURVE",
"362 566 OFFCURVE",
"407 566 CURVE SMOOTH",
"455 566 OFFCURVE",
"491 595 OFFCURVE",
"491 648 CURVE SMOOTH",
"491 700 OFFCURVE",
"455 728 OFFCURVE",
"407 728 CURVE SMOOTH",
"362 728 OFFCURVE",
"325 700 OFFCURVE",
"325 648 CURVE SMOOTH"
);
},
{
closed = 1;
nodes = (
"553 531 LINE",
"381 531 LINE",
"381 236 LINE SMOOTH",
"381 182 OFFCURVE",
"354 135 OFFCURVE",
"295 135 CURVE SMOOTH",
"234 135 OFFCURVE",
"210 181 OFFCURVE",
"210 237 CURVE SMOOTH",
"210 531 LINE",
"38 531 LINE",
"38 234 LINE SMOOTH",
"38 69 OFFCURVE",
"134 -12 OFFCURVE",
"295 -12 CURVE SMOOTH",
"453 -12 OFFCURVE",
"553 67 OFFCURVE",
"553 238 CURVE SMOOTH"
);
}
);
width = 595;
}
);
unicode = 03CB;
},
{
glyphname = upsilondieresistonos;
layers = (
{
hints = (
{
place = "{42, 149}";
type = Stem;
},
{
place = "{49, 172}";
type = Stem;
},
{
place = "{392, 172}";
type = Stem;
},
{
place = "{417, 146}";
type = Stem;
},
{
horizontal = 1;
place = "{-12, 147}";
type = Stem;
},
{
horizontal = 1;
place = "{609, 146}";
type = Stem;
},
{
horizontal = 1;
place = "{610, 149}";
type = Stem;
},
{
horizontal = 1;
place = "{610, 179}";
type = Stem;
}
);
layerId = "E376C904-BF5F-4CD7-8FD3-9BC68FA291DD";
paths = (
{
closed = 1;
nodes = (
"195 610 LINE",
"305 610 LINE",
"452 789 LINE",
"260 789 LINE"
);
},
{
closed = 1;
nodes = (
"534 610 OFFCURVE",
"563 647 OFFCURVE",
"563 684 CURVE SMOOTH",
"563 723 OFFCURVE",
"534 759 OFFCURVE",
"489 759 CURVE SMOOTH",
"448 759 OFFCURVE",
"417 723 OFFCURVE",
"417 684 CURVE SMOOTH",
"417 647 OFFCURVE",
"448 610 OFFCURVE",
"489 610 CURVE SMOOTH"
);
},
{
closed = 1;
nodes = (
"42 638 OFFCURVE",
"77 609 OFFCURVE",
"116 609 CURVE SMOOTH",
"153 609 OFFCURVE",
"191 638 OFFCURVE",
"191 683 CURVE SMOOTH",
"191 724 OFFCURVE",
"153 755 OFFCURVE",
"116 755 CURVE SMOOTH",
"77 755 OFFCURVE",
"42 724 OFFCURVE",
"42 683 CURVE SMOOTH"
);
},
{
closed = 1;
nodes = (
"564 531 LINE",
"392 531 LINE",
"392 236 LINE SMOOTH",
"392 182 OFFCURVE",
"365 135 OFFCURVE",
"306 135 CURVE SMOOTH",
"245 135 OFFCURVE",
"221 181 OFFCURVE",
"221 237 CURVE SMOOTH",
"221 531 LINE",
"49 531 LINE",
"49 234 LINE SMOOTH",
"49 69 OFFCURVE",
"145 -12 OFFCURVE",
"306 -12 CURVE SMOOTH",
"464 -12 OFFCURVE",
"564 67 OFFCURVE",
"564 238 CURVE SMOOTH"
);
}
);
width = 606;
}
);
unicode = 03B0;
},
{
glyphname = Omegatonos;
layers = (
{
hints = (
{
place = "{249, 181}";
type = Stem;
},
{
place = "{771, 180}";
type = Stem;
},
{
horizontal = 1;
place = "{2, 150}";
type = Stem;
},
{
horizontal = 1;
place = "{522, 179}";
type = Stem;
},
{
horizontal = 1;
place = "{556, 159}";
type = Stem;
}
);
layerId = "E376C904-BF5F-4CD7-8FD3-9BC68FA291DD";
paths = (
{
closed = 1;
nodes = (
"637 2 LINE",
"979 2 LINE",
"979 152 LINE",
"813 152 LINE",
"902 195 OFFCURVE",
"951 305 OFFCURVE",
"951 400 CURVE SMOOTH",
"951 604 OFFCURVE",
"794 715 OFFCURVE",
"601 715 CURVE SMOOTH",
"408 715 OFFCURVE",
"249 605 OFFCURVE",
"249 400 CURVE SMOOTH",
"249 307 OFFCURVE",
"300 194 OFFCURVE",
"387 152 CURVE",
"222 152 LINE",
"222 2 LINE",
"564 2 LINE",
"564 160 LINE",
"478 198 OFFCURVE",
"430 275 OFFCURVE",
"430 368 CURVE SMOOTH",
"430 474 OFFCURVE",
"486 556 OFFCURVE",
"599 556 CURVE SMOOTH",
"712 556 OFFCURVE",
"771 477 OFFCURVE",
"771 368 CURVE SMOOTH",
"771 273 OFFCURVE",
"723 200 OFFCURVE",
"637 160 CURVE"
);
},
{
closed = 1;
nodes = (
"0 522 LINE",
"122 522 LINE",
"319 701 LINE",
"102 701 LINE"
);
}
);
width = 1017;
}
);
unicode = 038F;
},
{
glyphname = omega;
layers = (
{
hints = (
{
horizontal = 1;
place = "{-13, 145}";
type = Stem;
},
{
place = "{33, 168}";
type = Stem;
},
{
place = "{361, 172}";
type = Stem;
},
{
place = "{697, 168}";
type = Stem;
}
);
layerId = "E376C904-BF5F-4CD7-8FD3-9BC68FA291DD";
paths = (
{
closed = 1;
nodes = (
"533 424 LINE",
"361 424 LINE",
"361 254 LINE SMOOTH",
"361 186 OFFCURVE",
"338 132 OFFCURVE",
"287 132 CURVE SMOOTH",
"235 132 OFFCURVE",
"201 189 OFFCURVE",
"201 279 CURVE SMOOTH",
"201 359 OFFCURVE",
"227 429 OFFCURVE",
"320 546 CURVE",
"147 546 LINE",
"62 453 OFFCURVE",
"33 359 OFFCURVE",
"33 271 CURVE SMOOTH",
"33 115 OFFCURVE",
"121 -13 OFFCURVE",
"281 -13 CURVE SMOOTH",
"368 -13 OFFCURVE",
"413 22 OFFCURVE",
"449 69 CURVE",
"485 22 OFFCURVE",
"530 -13 OFFCURVE",
"617 -13 CURVE SMOOTH",
"774 -13 OFFCURVE",
"865 104 OFFCURVE",
"865 271 CURVE SMOOTH",
"865 367 OFFCURVE",
"835 454 OFFCURVE",
"752 546 CURVE",
"578 546 LINE",
"671 429 OFFCURVE",
"697 358 OFFCURVE",
"697 279 CURVE SMOOTH",
"697 189 OFFCURVE",
"663 132 OFFCURVE",
"611 132 CURVE SMOOTH",
"567 132 OFFCURVE",
"533 171 OFFCURVE",
"533 254 CURVE SMOOTH"
);
}
);
width = 899;
}
);
unicode = 03C9;
},
{
glyphname = omegatonos;
layers = (
{
hints = (
{
horizontal = 1;
place = "{-13, 145}";
type = Stem;
},
{
horizontal = 1;
place = "{583, 179}";
type = Stem;
},
{
place = "{33, 168}";
type = Stem;
},
{
place = "{361, 172}";
type = Stem;
},
{
place = "{697, 168}";
type = Stem;
}
);
layerId = "E376C904-BF5F-4CD7-8FD3-9BC68FA291DD";
paths = (
{
closed = 1;
nodes = (
"384 583 LINE",
"506 583 LINE",
"703 762 LINE",
"486 762 LINE"
);
},
{
closed = 1;
nodes = (
"533 424 LINE",
"361 424 LINE",
"361 254 LINE SMOOTH",
"361 186 OFFCURVE",
"338 132 OFFCURVE",
"287 132 CURVE SMOOTH",
"235 132 OFFCURVE",
"201 189 OFFCURVE",
"201 279 CURVE SMOOTH",
"201 359 OFFCURVE",
"227 429 OFFCURVE",
"320 546 CURVE",
"147 546 LINE",
"62 453 OFFCURVE",
"33 359 OFFCURVE",
"33 271 CURVE SMOOTH",
"33 115 OFFCURVE",
"121 -13 OFFCURVE",
"281 -13 CURVE SMOOTH",
"368 -13 OFFCURVE",
"413 22 OFFCURVE",
"449 69 CURVE",
"485 22 OFFCURVE",
"530 -13 OFFCURVE",
"617 -13 CURVE SMOOTH",
"774 -13 OFFCURVE",
"865 104 OFFCURVE",
"865 271 CURVE SMOOTH",
"865 367 OFFCURVE",
"835 454 OFFCURVE",
"752 546 CURVE",
"578 546 LINE",
"671 429 OFFCURVE",
"697 358 OFFCURVE",
"697 279 CURVE SMOOTH",
"697 189 OFFCURVE",
"663 132 OFFCURVE",
"611 132 CURVE SMOOTH",
"567 132 OFFCURVE",
"533 171 OFFCURVE",
"533 254 CURVE SMOOTH"
);
}
);
width = 898;
}
);
unicode = 03CE;
},
{
glyphname = epsilontonos;
layers = (
{
hints = (
{
place = "{34, 168}";
type = Stem;
},
{
place = "{55, 168}";
type = Stem;
},
{
horizontal = 1;
place = "{-13, 146}";
type = Stem;
},
{
horizontal = 1;
place = "{206, 126}";
type = Stem;
},
{
horizontal = 1;
place = "{398, 145}";
type = Stem;
},
{
horizontal = 1;
place = "{583, 179}";
type = Stem;
}
);
layerId = "E376C904-BF5F-4CD7-8FD3-9BC68FA291DD";
paths = (
{
closed = 1;
nodes = (
"191 583 LINE",
"313 583 LINE",
"510 762 LINE",
"293 762 LINE"
);
},
{
closed = 1;
nodes = (
"241 133 OFFCURVE",
"202 144 OFFCURVE",
"202 169 CURVE SMOOTH",
"202 190 OFFCURVE",
"224 206 OFFCURVE",
"287 206 CURVE SMOOTH",
"363 206 LINE",
"363 332 LINE",
"307 332 LINE SMOOTH",
"262 332 OFFCURVE",
"223 339 OFFCURVE",
"223 366 CURVE SMOOTH",
"223 386 OFFCURVE",
"254 398 OFFCURVE",
"291 398 CURVE SMOOTH",
"323 398 OFFCURVE",
"369 391 OFFCURVE",
"430 355 CURVE",
"472 489 LINE",
"408 528 OFFCURVE",
"340 543 OFFCURVE",
"276 543 CURVE SMOOTH",
"158 543 OFFCURVE",
"55 495 OFFCURVE",
"55 394 CURVE SMOOTH",
"55 339 OFFCURVE",
"87 298 OFFCURVE",
"146 275 CURVE",
"73 255 OFFCURVE",
"34 209 OFFCURVE",
"34 149 CURVE SMOOTH",
"34 47 OFFCURVE",
"149 -13 OFFCURVE",
"274 -13 CURVE SMOOTH",
"339 -13 OFFCURVE",
"413 3 OFFCURVE",
"481 35 CURVE",
"450 175 LINE",
"378 142 OFFCURVE",
"333 133 OFFCURVE",
"288 133 CURVE SMOOTH"
);
}
);
width = 533;
}
);
unicode = 03AD;
},
{
glyphname = xi;
layers = (
{
hints = (
{
place = "{33, 167}";
type = Stem;
},
{
place = "{64, 184}";
type = Stem;
},
{
place = "{298, 155}";
type = Stem;
},
{
horizontal = 1;
place = "{-167, 21}";
target = up;
type = BottomGhost;
},
{
horizontal = 1;
place = "{305, 138}";
type = Stem;
},
{
horizontal = 1;
place = "{597, 138}";
type = Stem;
}
);
layerId = "E376C904-BF5F-4CD7-8FD3-9BC68FA291DD";
paths = (
{
closed = 1;
nodes = (
"294 -24 OFFCURVE",
"298 -57 OFFCURVE",
"298 -74 CURVE SMOOTH",
"298 -101 OFFCURVE",
"283 -130 OFFCURVE",
"270 -155 CURVE",
"415 -167 LINE",
"436 -123 OFFCURVE",
"453 -82 OFFCURVE",
"453 -33 CURVE SMOOTH",
"453 21 OFFCURVE",
"430 97 OFFCURVE",
"314 118 CURVE",
"241 134 OFFCURVE",
"200 166 OFFCURVE",
"200 214 CURVE SMOOTH",
"200 288 OFFCURVE",
"282 305 OFFCURVE",
"400 305 CURVE",
"400 443 LINE",
"289 443 OFFCURVE",
"248 477 OFFCURVE",
"248 516 CURVE SMOOTH",
"248 582 OFFCURVE",
"341 591 OFFCURVE",
"456 591 CURVE",
"456 735 LINE",
"64 735 LINE",
"64 597 LINE",
"160 597 LINE",
"116 577 OFFCURVE",
"82 544 OFFCURVE",
"82 496 CURVE SMOOTH",
"82 437 OFFCURVE",
"132 401 OFFCURVE",
"199 377 CURVE",
"95 353 OFFCURVE",
"33 279 OFFCURVE",
"33 191 CURVE SMOOTH",
"33 84 OFFCURVE",
"113 11 OFFCURVE",
"223 -10 CURVE SMOOTH"
);
}
);
width = 464;
}
);
unicode = 03BE;
},
{
glyphname = zeta;
layers = (
{
hints = (
{
place = "{36, 166}";
type = Stem;
},
{
place = "{83, 389}";
type = Stem;
},
{
place = "{316, 155}";
type = Stem;
},
{
horizontal = 1;
place = "{-167, 21}";
target = up;
type = BottomGhost;
},
{
horizontal = 1;
place = "{599, 136}";
type = Stem;
}
);
layerId = "E376C904-BF5F-4CD7-8FD3-9BC68FA291DD";
paths = (
{
closed = 1;
nodes = (
"472 735 LINE",
"83 735 LINE",
"83 599 LINE",
"266 599 LINE",
"117 491 OFFCURVE",
"36 363 OFFCURVE",
"36 235 CURVE SMOOTH",
"36 93 OFFCURVE",
"125 22 OFFCURVE",
"248 -7 CURVE SMOOTH",
"303 -20 OFFCURVE",
"316 -44 OFFCURVE",
"316 -70 CURVE SMOOTH",
"316 -98 OFFCURVE",
"302 -130 OFFCURVE",
"287 -155 CURVE",
"433 -167 LINE",
"454 -123 OFFCURVE",
"471 -79 OFFCURVE",
"471 -31 CURVE SMOOTH",
"471 42 OFFCURVE",
"432 94 OFFCURVE",
"327 119 CURVE",
"238 142 OFFCURVE",
"202 180 OFFCURVE",
"202 247 CURVE SMOOTH",
"202 367 OFFCURVE",
"306 504 OFFCURVE",
"472 605 CURVE"
);
}
);
width = 475;
}
);
unicode = 03B6;
},
{
glyphname = uni03C2;
layers = (
{
hints = (
{
horizontal = 1;
place = "{-167, 21}";
target = up;
type = BottomGhost;
},
{
horizontal = 1;
place = "{397, 145}";
type = Stem;
},
{
place = "{34, 166}";
type = Stem;
},
{
place = "{297, 156}";
type = Stem;
}
);
layerId = "E376C904-BF5F-4CD7-8FD3-9BC68FA291DD";
paths = (
{
closed = 1;
nodes = (
"407 -167 LINE",
"427 -124 OFFCURVE",
"453 -84 OFFCURVE",
"453 -33 CURVE SMOOTH",
"453 31 OFFCURVE",
"405 82 OFFCURVE",
"324 118 CURVE SMOOTH",
"276 139 OFFCURVE",
"200 185 OFFCURVE",
"200 276 CURVE SMOOTH",
"200 340 OFFCURVE",
"242 397 OFFCURVE",
"309 397 CURVE SMOOTH",
"350 397 OFFCURVE",
"390 378 OFFCURVE",
"415 346 CURVE",
"496 462 LINE",
"445 515 OFFCURVE",
"371 542 OFFCURVE",
"298 542 CURVE SMOOTH",
"137 542 OFFCURVE",
"34 416 OFFCURVE",
"34 261 CURVE SMOOTH",
"34 114 OFFCURVE",
"113 38 OFFCURVE",
"212 -5 CURVE",
"254 -21 OFFCURVE",
"297 -42 OFFCURVE",
"297 -81 CURVE SMOOTH",
"297 -110 OFFCURVE",
"278 -136 OFFCURVE",
"258 -155 CURVE"
);
}
);
width = 543;
}
);
unicode = 03C2;
},
{
glyphname = phi;
layers = (
{
hints = (
{
horizontal = 1;
place = "{-164, 21}";
target = up;
type = BottomGhost;
},
{
horizontal = 1;
place = "{-4, 134}";
type = Stem;
},
{
horizontal = 1;
place = "{401, 145}";
type = Stem;
},
{
place = "{33, 162}";
type = Stem;
},
{
place = "{341, 166}";
type = Stem;
},
{
place = "{662, 162}";
type = Stem;
}
);
layerId = "E376C904-BF5F-4CD7-8FD3-9BC68FA291DD";
paths = (
{
closed = 1;
nodes = (
"341 -164 LINE",
"507 -164 LINE",
"507 -4 LINE",
"695 4 OFFCURVE",
"824 146 OFFCURVE",
"824 298 CURVE SMOOTH",
"824 436 OFFCURVE",
"737 546 OFFCURVE",
"572 546 CURVE SMOOTH",
"390 546 OFFCURVE",
"341 417 OFFCURVE",
"341 261 CURVE SMOOTH",
"341 130 LINE",
"227 133 OFFCURVE",
"195 214 OFFCURVE",
"195 318 CURVE SMOOTH",
"195 382 OFFCURVE",
"224 450 OFFCURVE",
"303 546 CURVE",
"139 546 LINE",
"64 463 OFFCURVE",
"33 378 OFFCURVE",
"33 299 CURVE SMOOTH",
"33 111 OFFCURVE",
"169 9 OFFCURVE",
"341 -4 CURVE"
);
},
{
closed = 1;
nodes = (
"507 289 LINE",
"512 361 OFFCURVE",
"533 401 OFFCURVE",
"584 401 CURVE SMOOTH",
"654 401 OFFCURVE",
"662 326 OFFCURVE",
"662 299 CURVE SMOOTH",
"662 292 OFFCURVE",
"662 286 OFFCURVE",
"661 279 CURVE",
"653 180 OFFCURVE",
"604 133 OFFCURVE",
"507 130 CURVE"
);
}
);
width = 858;
}
);
unicode = 03C6;
},
{
glyphname = Agrave;
layers = (
{
hints = (
{
horizontal = 1;
place = "{0, 21}";
target = up;
type = BottomGhost;
},
{
horizontal = 1;
place = "{137, 138}";
type = Stem;
},
{
horizontal = 1;
place = "{705, -20}";
target = down;
type = TopGhost;
},
{
place = "{17, 767}";
type = Stem;
}
);
layerId = "E376C904-BF5F-4CD7-8FD3-9BC68FA291DD";
paths = (
{
closed = 1;
nodes = (
"371 747 LINE",
"493 747 LINE",
"391 926 LINE",
"228 875 LINE"
);
},
{
closed = 1;
nodes = (
"539 137 LINE",
"595 0 LINE",
"784 0 LINE",
"484 705 LINE",
"317 705 LINE",
"17 0 LINE",
"202 0 LINE",
"258 137 LINE"
);
},
{
closed = 1;
nodes = (
"399 497 LINE",
"487 275 LINE",
"311 275 LINE"
);
}
);
width = 809;
}
);
unicode = 00C0;
},
{
glyphname = Aacute;
layers = (
{
hints = (
{
horizontal = 1;
place = "{0, 21}";
target = up;
type = BottomGhost;
},
{
horizontal = 1;
place = "{137, 138}";
type = Stem;
},
{
horizontal = 1;
place = "{705, -20}";
target = down;
type = TopGhost;
},
{
place = "{17, 767}";
type = Stem;
}
);
layerId = "E376C904-BF5F-4CD7-8FD3-9BC68FA291DD";
paths = (
{
closed = 1;
nodes = (
"605 875 LINE",
"441 926 LINE",
"340 747 LINE",
"461 747 LINE"
);
},
{
closed = 1;
nodes = (
"539 137 LINE",
"595 0 LINE",
"784 0 LINE",
"484 705 LINE",
"317 705 LINE",
"17 0 LINE",
"202 0 LINE",
"258 137 LINE"
);
},
{
closed = 1;
nodes = (
"399 497 LINE",
"487 275 LINE",
"311 275 LINE"
);
}
);
width = 809;
}
);
unicode = 00C1;
},
{
glyphname = Acircumflex;
layers = (
{
hints = (
{
horizontal = 1;
place = "{0, 21}";
target = up;
type = BottomGhost;
},
{
horizontal = 1;
place = "{137, 138}";
type = Stem;
},
{
horizontal = 1;
place = "{705, -20}";
target = down;
type = TopGhost;
},
{
horizontal = 1;
place = "{756, 178}";
type = Stem;
},
{
place = "{17, 767}";
type = Stem;
}
);
layerId = "E376C904-BF5F-4CD7-8FD3-9BC68FA291DD";
paths = (
{
closed = 1;
nodes = (
"449 934 LINE",
"354 934 LINE",
"219 756 LINE",
"340 756 LINE",
"401 820 LINE",
"464 756 LINE",
"583 756 LINE"
);
},
{
closed = 1;
nodes = (
"539 137 LINE",
"595 0 LINE",
"784 0 LINE",
"484 705 LINE",
"317 705 LINE",
"17 0 LINE",
"202 0 LINE",
"258 137 LINE"
);
},
{
closed = 1;
nodes = (
"399 497 LINE",
"487 275 LINE",
"311 275 LINE"
);
}
);
width = 809;
}
);
unicode = 00C2;
},
{
glyphname = Atilde;
layers = (
{
hints = (
{
place = "{17, 767}";
type = Stem;
},
{
horizontal = 1;
place = "{0, 21}";
target = up;
type = BottomGhost;
},
{
horizontal = 1;
place = "{137, 138}";
type = Stem;
},
{
horizontal = 1;
place = "{705, -20}";
target = down;
type = TopGhost;
},
{
horizontal = 1;
place = "{767, 110}";
type = Stem;
},
{
horizontal = 1;
place = "{802, 111}";
type = Stem;
}
);
layerId = "E376C904-BF5F-4CD7-8FD3-9BC68FA291DD";
paths = (
{
closed = 1;
nodes = (
"310 755 LINE",
"321 791 OFFCURVE",
"332 802 OFFCURVE",
"348 802 CURVE SMOOTH",
"377 802 OFFCURVE",
"418 767 OFFCURVE",
"464 767 CURVE SMOOTH",
"525 767 OFFCURVE",
"562 822 OFFCURVE",
"585 905 CURVE",
"491 922 LINE",
"483 890 OFFCURVE",
"473 877 OFFCURVE",
"458 877 CURVE SMOOTH",
"430 877 OFFCURVE",
"386 913 OFFCURVE",
"338 913 CURVE SMOOTH",
"277 913 OFFCURVE",
"238 855 OFFCURVE",
"215 772 CURVE"
);
},
{
closed = 1;
nodes = (
"539 137 LINE",
"595 0 LINE",
"784 0 LINE",
"484 705 LINE",
"317 705 LINE",
"17 0 LINE",
"202 0 LINE",
"258 137 LINE"
);
},
{
closed = 1;
nodes = (
"399 497 LINE",
"487 275 LINE",
"311 275 LINE"
);
}
);
width = 809;
}
);
unicode = 00C3;
},
